<?xml version="1.0" encoding="UTF-8"?>
<svg id="svg8" width="110.06mm" height="101.35mm" version="1.1" viewBox="0 0 110.06 101.35" xmlns="http://www.w3.org/2000/svg" xmlns:xlink="http://www.w3.org/1999/xlink">
 <defs id="defs2">
  <radialGradient id="radialGradient833" cx="104.98" cy="149.87" r="43.373" gradientTransform="matrix(1.3538 2.1007 -1.9573 1.2614 256.21 -259.71)" gradientUnits="userSpaceOnUse">
   <stop id="stop825" style="stop-color:#fd5" offset="0"/>
   <stop id="stop827" style="stop-color:#fd5;stop-opacity:0" offset="1"/>
  </radialGradient>
  <radialGradient id="radialGradient867" cx="85.318" cy="130.6" r="4.6599" gradientTransform="matrix(1 0 0 1.0383 0 -5.0002)" gradientUnits="userSpaceOnUse">
   <stop id="stop861" style="stop-color:#1a1a1a" offset="0"/>
   <stop id="stop863" style="stop-color:#1a1a1a;stop-opacity:0" offset="1"/>
  </radialGradient>
  <radialGradient id="radialGradient981" cx="103.65" cy="161.5" r="1.047" gradientTransform="matrix(1 0 0 1.8239 0 -133.05)" gradientUnits="userSpaceOnUse">
   <stop id="stop973" style="stop-color:#0f2200" offset="0"/>
   <stop id="stop975" style="stop-color:#0f2200;stop-opacity:0" offset="1"/>
  </radialGradient>
  <filter id="filter1059" x="-1.4825" y="-.81285" width="3.9651" height="2.6257" style="color-interpolation-filters:sRGB">
   <feGaussianBlur id="feGaussianBlur1061" stdDeviation="1.2935531"/>
  </filter>
  <filter id="filter1115" x="-1.5234" y="-.63503" width="4.0469" height="2.2701" style="color-interpolation-filters:sRGB">
   <feGaussianBlur id="feGaussianBlur1117" stdDeviation="1.709348"/>
  </filter>
  <radialGradient id="radialGradient1180" cx="111.22" cy="172.64" r="4.3954" gradientTransform="matrix(1 0 0 1.0219 0 -3.7825)" gradientUnits="userSpaceOnUse">
   <stop id="stop1174" style="stop-color:#241f1c" offset="0"/>
   <stop id="stop1176" style="stop-color:#241f1c;stop-opacity:0" offset="1"/>
  </radialGradient>
  <filter id="filter1206" x="-.89806" y="-.87817" width="2.7961" height="2.7563" style="color-interpolation-filters:sRGB">
   <feGaussianBlur id="feGaussianBlur1208" stdDeviation="3.1903934"/>
  </filter>
  <radialGradient id="radialGradient1218" cx="126.06" cy="123.51" r="16.972" gradientTransform="matrix(1 0 0 .76556 0 28.954)" gradientUnits="userSpaceOnUse">
   <stop id="stop1212" style="stop-color:#241f1c" offset="0"/>
   <stop id="stop1214" style="stop-color:#241f1c;stop-opacity:0" offset="1"/>
  </radialGradient>
  <filter id="filter1228" x="-.55663" y="-.72884" width="2.1133" height="2.4577" style="color-interpolation-filters:sRGB">
   <feGaussianBlur id="feGaussianBlur1230" stdDeviation="7.8112483"/>
  </filter>
  <filter id="filter1242" x="-.50631" y="-.48764" width="2.0126" height="1.9753" style="color-interpolation-filters:sRGB">
   <feGaussianBlur id="feGaussianBlur1244" stdDeviation="1.9661195"/>
  </filter>
 </defs>
 <g id="layer1" transform="translate(-51.583 -91.898)">
  <circle id="path815" cx="104.98" cy="149.87" r="43.373" style="fill:url(#radialGradient833);opacity:.905"/>
  <path id="path835" d="m88.446 125.78c-0.25198 0-0.5074-0.0414-0.75595 0-0.13895 0.0232-0.24132 0.15483-0.37798 0.18899-0.12223 0.0306-0.25198 0-0.37798 0h-0.75595-1.1339c-0.06299 0-0.14444-0.0445-0.18899 0-0.04454 0.0445 0.04454 0.14445 0 0.18899-0.04454 0.0446-0.13264-0.0282-0.18899 0-0.05018 0.0251-0.54188 0.51679-0.56696 0.56697-0.02817 0.0563 0 0.12599 0 0.18898 0 0.18311 0.03756 1.0212 0 1.1339 0.11391 0.34206-0.30615 0.35149-0.37798 0.56696-0.03984 0.11953 0.03984 0.25845 0 0.37798-0.04266 0.12797-0.49478 0.4226-0.56696 0.56697-0.02817 0.0563 0.04454 0.14444 0 0.18898-0.39102 0.39103 0.01529-0.59753-0.37798 0.18899-0.02817 0.0564 0.04454 0.14445 0 0.18899-0.01172 0.53214-0.4261 0.0481-0.56696 0.18899-0.08909 0.0891 0.05634 0.26528 0 0.37798-0.39326 0.78652 0.01304-0.20204-0.37798 0.18898-0.04454 0.0446 0 0.12599 0 0.18899v0.18899c0 0.48157-0.22044 0.25189-0.37798 0.56696-0.02817 0.0564 0.04455 0.14445 0 0.18899-0.04454 0.0445-0.14444-0.0445-0.18899 0-0.04455 0.0445 0.02817 0.13264 0 0.18899-0.03984 0.0797-0.14915 0.1093-0.18899 0.18899-0.05634 0.11269 0.05635 0.26528 0 0.37797-0.03984 0.0797-0.14914 0.10931-0.18899 0.18899-0.02817 0.0564 0.02817 0.13264 0 0.18899-0.02461 0.0492-0.33673 0.23024-0.18899 0.37798 0.02933 0.0293 0.49342-0.0245 0.56696 0 0.13363 0.0445 0.24434 0.14444 0.37798 0.18898 0.11953 0.0399 0.26528-0.0563 0.37798 0 0.05018 0.0251 0.54188 0.51679 0.56696 0.56697 0.02817 0.0563-0.04454 0.14444 0 0.18899 0.04455 0.0445 0.14444-0.0445 0.18899 0 0.05852 0.0585-0.05852 0.88642 0 0.94494 0.04454 0.0445 0.12599 0 0.18899 0h0.56696 0.18899c0.063 0 0.14444 0.0445 0.18899 0 0.04454-0.0445-0.04454-0.14445 0-0.18899 0.39102-0.39102-0.01529 0.59753 0.37798-0.18899 0.10084-0.20169-0.10084-0.17629 0-0.37797 0.03984-0.0797 0.14914-0.10931 0.18899-0.18899 0.06188-0.12376-0.0559-0.77723 0-0.94494 0.25199-0.75596 0.063-0.063 0.56696-0.56697 0.04455-0.0445-0.01992-0.12922 0-0.18899 0.04455-0.13363 0.12599-0.25198 0.18899-0.37797 0.06299-0.12599 0.08938-0.27837 0.18899-0.37798 0.04454-0.0445 0.14444 0.0445 0.18899 0 0.53214-0.0117 0.04813-0.4261 0.18899-0.56696 0.04454-0.0445 0.126 0 0.18899 0 0.08911 0 0.93638-9e-3 0.94494 0 0.04454 0.0445-0.04454 0.14444 0 0.18898 0.04454 0.0445 0.14444-0.0445 0.18899 0 0 0.50397-0.063-0.063 0.18899 0.18899 0.04454 0.0446-0.04454 0.14445 0 0.18899 0.04454 0.0445 0.12599 0 0.18899 0 0.13145 0 0.87659 0.0342 0.94494 0 0.07968-0.0398 0.1093-0.14915 0.18899-0.18899 0.26068-0.13034 0.16904 0.22888 0.37798-0.18899 0.02484-0.0497 0-0.65712 0-0.75595v-0.18898c0-0.063-0.04454-0.14445 0-0.18899 0.04455-0.0445 0.12599 0 0.18899 0 0.31498 0 0.18899 0.063 0.18899-0.37798 0-0.0891-0.0086-0.93638 0-0.94494 0.04454-0.0446 0.14444 0.0445 0.18899 0 0.04455-0.0446-0.04454-0.14444 0-0.18899 0.04455-0.0445 0.14444 0.0446 0.18899 0 0.04454-0.0445-0.04454-0.14444 0-0.18899 0.04454-0.0445 0.14444 0.0445 0.18899 0 0.04454-0.0445 0-0.12599 0-0.18899v-0.18898-1.3229c0-0.0851 0.02876-0.50945 0-0.56696-0.20893-0.41787-0.1173-0.0587-0.37798-0.18899-0.07968-0.0398-0.1093-0.14915-0.18899-0.18899-0.25198-0.12599-0.18899 0.18899-0.18899-0.18899" style="fill:url(#radialGradient867);filter:url(#filter1242);opacity:.197"/>
  <path id="path971" d="m104.7 159.98c-0.66713-0.42398-0.71253-0.37798-1.3229-0.37798-0.063 0-0.14445-0.0445-0.18899 0-0.0446 0.0446 0.0445 0.14445 0 0.18899-0.0446 0.0445-0.16082-0.0563-0.18899 0-0.10406 0.20813 0.0739 0.53435 0 0.75595-0.45631 1.3689 0.0545-0.29796-0.37798 0.56697-0.0342 0.0683 0 0.81349 0 0.94494 0 0.13395-0.0244 1.0851 0 1.1339 0.14411 0.2882 0.49664 0.18898 0.75596 0.18898 0.063 0 0.14444 0.0445 0.18898 0 0.0446-0.0445-0.0445-0.14444 0-0.18898 0.39103-0.39103-0.0153 0.59753 0.37798-0.18899 0.0282-0.0564-0.0282-0.13264 0-0.18899 0.0398-0.0797 0.14915-0.1093 0.18899-0.18899 0.27808-0.55615-0.43781 0.24882 0.18899-0.37797 0.063-0.063 0.14914-0.10931 0.18899-0.18899 0.0282-0.0564 0-0.126 0-0.18899v-0.18899-0.75595c0-0.12599-0.0306-0.25575 0-0.37798 0.0483-0.19326 0.12599-0.37797 0.18898-0.56696z" style="fill:url(#radialGradient981);filter:url(#filter1059);opacity:.434"/>
  <path id="path1065" d="m120.39 142.41v0.18899c0 0.063 0.0445 0.14448 0 0.18898-0.0446 0.0446-0.14449-0.0445-0.18899 0-9e-3 9e-3 0 0.85584 0 0.94494v0.18899c0 0.063-0.0446 0.14439 0 0.18899 0.25199 0.25199 0.18899-0.31498 0.18899 0.18899v1.1339 0.18898c0 0.063 0.0282 0.13269 0 0.18899-0.0399 0.0797-0.14919 0.10929-0.18899 0.18899-0.0564 0.11269 0.0563 0.26528 0 0.37798-0.0797 0.15937-0.29828 0.2186-0.37798 0.37797-0.10084 0.20169 0.10084 0.17629 0 0.37798-0.0398 0.0797-0.14919 0.10929-0.18899 0.18899-0.0282 0.0563 0.0446 0.14448 0 0.18898-0.0445 0.0445-0.14439-0.0445-0.18899 0-0.0445 0.0445 0.0446 0.14449 0 0.18899-0.0445 0.0446-0.14448 0.0446-0.18898 0-0.0446-0.0445-0.0446-0.14449 0-0.18899 0.0445-0.0445 0.14448 0.0445 0.18898 0 0.0446-0.0445-0.0445-0.14448 0-0.18898 0.0446-0.0445 0.14449 0.0445 0.18899 0 0.0446-0.0445 0-0.12599 0-0.18899 0-0.15837 0.0402-0.86464 0-0.94494-0.0282-0.0564-0.12599 0-0.18899 0s-0.13268-0.0282-0.18898 0c-0.0797 0.0398-0.10929 0.14919-0.18899 0.18899-0.0563 0.0282-0.12599 0-0.18899 0-0.18899 0-0.39793 0.0845-0.56696 0-0.0563-0.0282 0-0.12599 0-0.18899 0-0.13437-0.0794-0.56697 0.18898-0.56697 0.063 0-0.063 0.18899 0 0.18899s0.0446-0.14449 0-0.18899c-0.25198-0.25198-0.18898 0.31498-0.18898-0.18898 0-0.1947-0.0279-1.2671 0-1.3229 0.0398-0.0797 0.14918-0.10929 0.18898-0.18899 0.0244-0.0489 0-0.99997 0-1.1339 0-0.063 0.0446-0.14448 0-0.18898-0.0445-0.0446-0.14448 0.0445-0.18898 0-0.0446-0.0446 0-0.12599 0-0.18899 0-0.0851-0.0288-0.50947 0-0.56697 0.0398-0.0797 0.14918-0.10929 0.18898-0.18899 0.0282-0.0563-0.0445-0.14448 0-0.18898 0.21717-0.21719 0.33423-0.18899 0.56697-0.18899h0.75595c6e-5 1.3e-4 1.1339 2.2677 1.1339 2.2679 0.0496 0.1158 0 0.25198 0 0.37797" style="fill:#0e2200;filter:url(#filter1115);opacity:.082"/>
  <path id="path1172" d="m115.28 171.51c-0.37798-0.18899-0.77558-0.34299-1.1339-0.56696-0.50204-0.31377-0.19928-0.4278-0.75595-0.56697-0.12223-0.0306-0.25845 0.0399-0.37798 0-0.0845-0.0282-0.11486-0.13957-0.18899-0.18898-0.1172-0.0781-0.24434-0.14445-0.37797-0.18899-0.0598-0.0199-0.14445 0.0445-0.18899 0-0.0446-0.0445 0-0.126 0-0.18899v-0.56697c0-0.0891 9e-3 -0.93637 0-0.94494-0.0446-0.0445-0.126 0-0.18899 0h-0.94494c-0.12599 0-0.25575-0.0306-0.37798 0-0.27331 0.0683-0.47969 0.32273-0.75595 0.37798-0.18532 0.0371-0.38362-0.0458-0.56696 0-0.0864 0.0216-0.10256 0.16738-0.18899 0.18899-0.18335 0.0458-0.37798 0-0.56697 0-0.12599 0-0.26528-0.0564-0.37797 0-0.0564 0.0282 0.0282 0.13264 0 0.18899-0.0398 0.0797-0.126 0.12599-0.18899 0.18898-0.12599 0.126-0.27914 0.22973-0.37798 0.37798-0.0349 0.0524 0.0446 0.14444 0 0.18899-0.0445 0.0445-0.12599 0-0.18899 0-0.12599 0.12599-0.29829 0.21861-0.37797 0.37798-0.0563 0.11269 0.0398 0.25845 0 0.37797-0.0282 0.0845-0.14915 0.10931-0.18899 0.18899-0.0166 0.0331-5.3e-4 1.3219 0 1.3229 0.0797 0.15937 0.27107 0.23543 0.37798 0.37797 0.0845 0.11269 0.11085 0.26077 0.18898 0.37798 0.28831 0.43246 0.1496-0.11817 0.37798 0.56696 0.0593 0.17805-0.0613 1.0114 0 1.1339 0.0162 0.0324 0.54349 0.55914 0.56697 0.56697 0.11952 0.0398 0.26528-0.0563 0.37797 0 0.0563 0.0282-0.0282 0.13264 0 0.18898 0.39326 0.78653-0.013-0.20203 0.37798 0.18899 0.0891 0.0891-0.0891 0.28889 0 0.37798 0.0445 0.0445 0.14444-0.0446 0.18899 0 0.0445 0.0445-0.0282 0.13264 0 0.18899 0.0398 0.0797 0.12599 0.12599 0.18898 0.18898 0.063 0.063 0.10931 0.14915 0.18899 0.18899 0.49751 0.24875 0.60374 0.18899 1.1339 0.18899 0.063 0 0.12787-0.0153 0.18899 0 0.19326 0.0483 0.3737 0.14067 0.56696 0.18899 0.0611 0.0153 0.12923-0.0199 0.18899 0 0.13364 0.0445 0.24434 0.14444 0.37798 0.18899 0.0243 8e-3 0.55131 8e-3 0.56696 0 0.0797-0.0399 0.12599-0.12599 0.18899-0.18899 6e-3 -6e-3 0.67962-0.71779 0.75595-0.75595 0.0563-0.0282 0.14445 0.0445 0.18899 0 0.0445-0.0445-0.0445-0.14445 0-0.18899 0.0891-0.0891 0.28889 0.0891 0.37798 0 0.28353-0.28354 0.18898-0.77546 0.18898-1.1339v-0.18899c0-0.063-0.0282-0.13264 0-0.18899 0.0399-0.0797 0.126-0.12599 0.18899-0.18898 0.063-0.063 0.10931-0.14915 0.18899-0.18899 0.0563-0.0282 0.13264 0.0282 0.18899 0 0.78652-0.39326-0.20204 0.013 0.18899-0.37798 0.0445-0.0445 0.14444 0.0446 0.18898 0 0.0189-0.0189 0.0189-0.54807 0-0.56696-0.39102-0.39103 0.0153 0.59753-0.37797-0.18899-0.0282-0.0564 0.0445-0.14444 0-0.18899-0.0446-0.0445-0.14445 0.0446-0.18899 0-0.0445-0.0445 0-0.12599 0-0.18899 0-0.47071-0.0282-0.13264 0.37798-0.94494z" style="fill:url(#radialGradient1180);filter:url(#filter1206);opacity:.345;stroke-width:.26458px;stroke:#000"/>
  <path id="path1210" d="m119.06 111.04c-0.37798 0-0.75887-0.0469-1.1339 0-0.13978 0.0175-0.2485 0.1335-0.37798 0.18899-0.31181 0.13363-0.6231 0.2707-0.94494 0.37798-0.364 0.12133-1.3714 0.31806-1.7009 0.37797-1.0094 0.18353-2.0216 0.34424-3.0238 0.56697-0.48-0.16133-0.7474 0.28134-1.1339 0.37797-0.12223 0.0306-0.25198 0-0.37797 0-0.063 0-0.16082-0.0563-0.18899 0-0.0563 0.1127 0.0563 0.26529 0 0.37798-0.0282 0.0564-0.12599 0-0.18899 0-0.063 0.12599-0.15482 0.24132-0.18899 0.37798-0.0458 0.18334 0.0598 0.38767 0 0.56696-0.0445 0.13363-0.12599 0.25198-0.18899 0.37798 0 0.18899 0.0458 0.38362 0 0.56696-0.0216 0.0864-0.16738 0.10256-0.18898 0.18899-0.0458 0.18334 0.0458 0.38362 0 0.56696-0.0216 0.0864-0.16082 0.10447-0.18899 0.18899-0.0417 0.12505 0 1.0668 0 1.3229 0 0.063-0.0446 0.14444 0 0.18899 0.0445 0.0445 0.12599 0 0.18899 0h0.18898 2.2679c0.44097 0 0.88464-0.0487 1.3229 0 0.25815 0.0287 0.49882 0.15225 0.75595 0.18898 1.7621 0.25173-1.1037-0.46492 1.5119 0.18899 0.83573 0.20893 0.29324 0.1173 0.94495 0.37798 0.18496 0.074 0.37797 0.12599 0.56696 0.18899s0.382 0.115 0.56696 0.18899c0.13079 0.0523 0.24435 0.14444 0.37798 0.18898 0.0598 0.0199 0.14444-0.0445 0.18899 0 0.0445 0.0446-0.0282 0.13265 0 0.18899 0.10109 0.20219 0.27688 0.17579 0.37797 0.37798 0.0282 0.0563-0.0445 0.14444 0 0.18898 0.0446 0.0446 0.12923-0.0199 0.18899 0 0.13364 0.0446 0.24434 0.14445 0.37798 0.18899 0.0598 0.0199 0.13264-0.0282 0.18899 0 0.0797 0.0398 0.1093 0.14915 0.18898 0.18899 0.0563 0.0282 0.12923-0.0199 0.18899 0 0.13364 0.0445 0.24434 0.14444 0.37798 0.18899 0.0598 0.0199 0.12922-0.0199 0.18899 0 0.60075 0.20025 0.46931 0.47058 0.94494 0.75595 0.34818 0.20891 0.45583 0.18899 0.75595 0.18899 0.12599 0 0.25575-0.0306 0.37798 0 0.13153 0.0329 0.48463 0.21331 0.56696 0.37798 0.0282 0.0563-0.054 0.15657 0 0.18898 0.2909 0.17454 0.62311 0.2707 0.94494 0.37798 0.43508 0.14503 0.8935 0.21695 1.3229 0.37798 0.58093 0.21785 1.1057 0.58088 1.7009 0.75595 0.48725 0.14331 1.0079 0.12599 1.5119 0.18899 0.56696 0.18898 1.1305 0.3887 1.7009 0.56696 1.6667 0.52085 0.84873 0.14088 1.7009 0.56696 0.12599 0.063 0.27837 0.0894 0.37798 0.18899 0.0386 0.0386-0.0375 0.49204 0 0.56697 0.0398 0.0797 0.14914 0.1093 0.18898 0.18899 0.0282 0.0563 0 0.12599 0 0.18898 0 0.126-0.0306 0.25575 0 0.37798 0.0342 0.13666 0.126 0.25198 0.18899 0.37798 0.18613 0.37225 0.41246 0.74765 0.56697 1.1339 0.074 0.18497 0.14992 0.37163 0.18899 0.56697 0.0247 0.12354-0.0564 0.26529 0 0.37797 0.0797 0.15937 0.2863 0.22519 0.37797 0.37798 0.1025 0.17082 0.0785 0.40121 0.18899 0.56697 0.0349 0.0524 0.15404-0.0524 0.18899 0 0.1105 0.16575 0.115 0.382 0.18899 0.56696 0.0523 0.13079 0.12599 0.25198 0.18898 0.37798 0.063 0.12599 0.0894 0.27837 0.18899 0.37797 0.0996 0.0996 0.27837 0.0894 0.37798 0.18899 0.0445 0.0445-0.0282 0.13264 0 0.18899 0.0398 0.0797 0.14914 0.1093 0.18899 0.18899 0.0282 0.0563-0.0445 0.14444 0 0.18898 0.0445 0.0445 0.14444-0.0445 0.18898 0 0.0445 0.0445-0.0445 0.14445 0 0.18899 0.0891 0.0891 0.26529-0.0563 0.37798 0 0.78652 0.39326-0.20203-0.013 0.18899 0.37798 0.0445 0.0445 0.13264-0.0282 0.18899 0 0.0324 0.0162 0.55913 0.54349 0.56696 0.56696 0.0398 0.11953-0.0306 0.25575 0 0.37798 0.0342 0.13666 0.14444 0.24434 0.18899 0.37798 0.0606 0.18182-0.0494 0.5582 0 0.75595 0.0483 0.19326 0.14067 0.3737 0.18899 0.56696 0.0153 0.0611-0.0199 0.12923 0 0.18899 0.0445 0.13363 0.16136 0.23985 0.18899 0.37798 0.0852 0.4261-0.14804 0.60791 0.18898 0.94494 0.0445 0.0445-0.0445-0.14445 0-0.18899 0.0945-0.0945 0.47247 0.0945 0.56697 0 0.0445-0.0446-0.0282-0.13264 0-0.18899 0.0398-0.0797 0.13957-0.11486 0.18899-0.18899 0.15627-0.23441 0.2217-0.52154 0.37797-0.75595 0.21932-0.32897 0.66345-0.48243 0.75595-0.94494 0.0367-0.18342 0-1.2876 0-1.5119v-2.2678c0.18899-0.063 0.37371-0.14067 0.56697-0.18899 0.12223-0.0306 0.25198 0 0.37798 0h0.75595c0.063 0 0.12922 0.0199 0.18899 0 0.26727-0.0891 0.48263-0.30965 0.75595-0.37797 0.12223-0.0306 0.25845 0.0398 0.37798 0 0.0845-0.0282 0.11486-0.13957 0.18898-0.18899 0.11721-0.0781 0.27837-0.0894 0.37798-0.18899 0.0445-0.0445 0-0.12599 0-0.18899 0-0.13145 0.0342-0.87659 0-0.94494-0.0398-0.0797-0.14915-0.1093-0.18899-0.18899-0.0563-0.11269 0.0891-0.28888 0-0.37797-0.0445-0.0446-0.14444 0.0445-0.18899 0-0.0445-0.0446 0.0446-0.14445 0-0.18899-0.0445-0.0446-0.16906 0.0598-0.18898 0-0.0598-0.17929 0.0371-0.38165 0-0.56697-0.0432-0.216-0.50972-0.84952-0.56697-0.94494-0.28348-0.47247-0.18899-0.56696-0.56696-1.1339-0.0988-0.14826-0.29829-0.21861-0.37798-0.37798-0.0563-0.11269 0.0306-0.25575 0-0.37798-0.0342-0.13665-0.12599-0.25198-0.18899-0.37797-0.063-0.126-0.11085-0.26077-0.18899-0.37798-0.0988-0.14825-0.32163-0.20894-0.37797-0.37798-0.1497-0.44911 0.22372-0.34324-0.18899-0.75595-0.0445-0.0445-0.14444 0.0446-0.18899 0-0.0996-0.0996-0.11651-0.25719-0.18899-0.37797-0.11686-0.19477-0.27639-0.36381-0.37797-0.56697-0.0891-0.17818-0.0865-0.39614-0.18899-0.56696-0.0917-0.15279-0.26667-0.23884-0.37798-0.37798-0.14189-0.17736-0.25198-0.37798-0.37797-0.56696-0.29914-0.44871-0.59332-0.91269-0.94494-1.3229-0.17394-0.20293-0.39303-0.36404-0.56697-0.56696-0.20498-0.23916-0.36197-0.51681-0.56696-0.75596-0.17394-0.20292-0.37798-0.37797-0.56697-0.56696-0.25198-0.25199-0.50396-0.50397-0.75595-0.75595-0.18899-0.18899-0.37797-0.37798-0.56696-0.56697s-0.35826-0.4-0.56697-0.56696c-0.10999-0.088-0.26528-0.10447-0.37797-0.18899-0.14255-0.10691-0.25199-0.25198-0.37798-0.37798-0.12599-0.063-0.26077-0.11085-0.37798-0.18898-0.14825-0.0988-0.22972-0.27914-0.37797-0.37798-0.14955-0.0997-0.96708-0.51135-1.1339-0.56696-1.1552-0.38506-0.33915-0.0797-1.3229-0.18899-0.76169-0.0846-1.5104-0.26145-2.2678-0.37798-0.44027-0.0677-0.88736-0.0957-1.3229-0.18899-0.44844-0.0961-0.87799-0.26674-1.3229-0.37797-0.87601-0.21901-1.7755-0.3183-2.6458-0.56697-0.26892-0.0768-0.69403-0.2107-0.94494-0.37797-0.0741-0.0494-0.1093-0.14915-0.18899-0.18899-0.0563-0.0282-0.12599 0-0.18899 0h-0.18899c-0.60822 0-0.86233-0.0113-1.5119 0.37797z" style="fill:url(#radialGradient1218);filter:url(#filter1228);opacity:.181;stroke-width:.26458px;stroke:#000"/>
  <ellipse id="path1232" cx="53.788" cy="148.91" rx="2.205" ry="2.16" style="fill:#1a1a1a;opacity:.47"/>
 </g>
</svg>
