<?xml version="1.0" encoding="UTF-8" standalone="no"?>
<!-- Created with Inkscape (http://www.inkscape.org/) -->

<svg
   xmlns:dc="http://purl.org/dc/elements/1.1/"
   xmlns:cc="http://creativecommons.org/ns#"
   xmlns:rdf="http://www.w3.org/1999/02/22-rdf-syntax-ns#"
   xmlns:svg="http://www.w3.org/2000/svg"
   xmlns="http://www.w3.org/2000/svg"
   xmlns:sodipodi="http://sodipodi.sourceforge.net/DTD/sodipodi-0.dtd"
   xmlns:inkscape="http://www.inkscape.org/namespaces/inkscape"
   width="70.225861mm"
   height="73.772057mm"
   viewBox="0 0 56.18069 59.017644"
   version="1.1"
   id="svg8"
   inkscape:version="0.92.3 (2405546, 2018-03-11)"
   sodipodi:docname="galaxy.svg">
  <defs
     id="defs2" />
  <sodipodi:namedview
     id="base"
     pagecolor="#ffffff"
     bordercolor="#666666"
     borderopacity="1.0"
     inkscape:pageopacity="0.0"
     inkscape:pageshadow="2"
     inkscape:zoom="0.24748737"
     inkscape:cx="-936.48727"
     inkscape:cy="-786.67035"
     inkscape:document-units="mm"
     inkscape:current-layer="layer1"
     showgrid="false"
     scale-x="0.8"
     inkscape:pagecheckerboard="true"
     fit-margin-top="0"
     fit-margin-left="0"
     fit-margin-right="0"
     fit-margin-bottom="0"
     showborder="false"
     inkscape:window-width="1920"
     inkscape:window-height="1027"
     inkscape:window-x="-8"
     inkscape:window-y="-8"
     inkscape:window-maximized="1" />
  <metadata
     id="metadata5">
    <rdf:RDF>
      <cc:Work
         rdf:about="">
        <dc:format>image/svg+xml</dc:format>
        <dc:type
           rdf:resource="http://purl.org/dc/dcmitype/StillImage" />
        <dc:title />
      </cc:Work>
    </rdf:RDF>
  </metadata>
  <g
     inkscape:label="Layer 1"
     inkscape:groupmode="layer"
     id="layer1"
     transform="translate(-83.823107,-87.018467)">
    <path
       id="path4842"
       style="opacity:0.8;fill:#aca3a3;fill-opacity:1;stroke:#b6b6b6;stroke-width:0.61744446;stroke-linecap:butt;stroke-linejoin:round;stroke-miterlimit:4;stroke-dasharray:none;stroke-dashoffset:0;stroke-opacity:1;paint-order:stroke fill markers"
       d="m 116.77637,89.786172 a 1.2306093,1.2306093 0 0 0 0.75525,-0.29421 1.2306093,1.2306093 0 0 0 0.13703,-1.73502 1.2306093,1.2306093 0 0 0 -1.73554,-0.13647 1.2306093,1.2306093 0 0 0 -0.13651,1.73447 1.2306093,1.2306093 0 0 0 0.97979,0.4312 z m 5.66964,6.803571 a 1.2306093,1.2306093 0 0 0 0.75525,-0.29421 1.2306093,1.2306093 0 0 0 0.13703,-1.73502 1.2306093,1.2306093 0 0 0 -1.73554,-0.13647 1.2306093,1.2306093 0 0 0 -0.13651,1.73447 1.2306093,1.2306093 0 0 0 0.97979,0.4312 z m 15.875,9.260417 a 1.2306093,1.2306093 0 0 0 0.75525,-0.29421 1.2306093,1.2306093 0 0 0 0.13703,-1.73502 1.2306093,1.2306093 0 0 0 -1.73554,-0.13647 1.2306093,1.2306093 0 0 0 -0.13651,1.73447 1.2306093,1.2306093 0 0 0 0.97979,0.4312 z m -3.2128,9.07143 a 1.2306093,1.2306093 0 0 0 0.75525,-0.29421 1.2306093,1.2306093 0 0 0 0.13703,-1.73502 1.2306093,1.2306093 0 0 0 -1.73554,-0.13647 1.2306093,1.2306093 0 0 0 -0.13651,1.73447 1.2306093,1.2306093 0 0 0 0.97979,0.4312 z m 3.40179,15.875 a 1.2306093,1.2306093 0 0 0 0.75525,-0.29421 1.2306093,1.2306093 0 0 0 0.13703,-1.73502 1.2306093,1.2306093 0 0 0 -1.73554,-0.13647 1.2306093,1.2306093 0 0 0 -0.13651,1.73447 1.2306093,1.2306093 0 0 0 0.97979,0.4312 z m -11.1503,11.33929 a 1.2306093,1.2306093 0 0 0 0.75525,-0.29421 1.2306093,1.2306093 0 0 0 0.13703,-1.73502 1.2306093,1.2306093 0 0 0 -1.73554,-0.13647 1.2306093,1.2306093 0 0 0 -0.13651,1.73447 1.2306093,1.2306093 0 0 0 0.97979,0.4312 z m -16.44196,3.59077 a 1.2306093,1.2306093 0 0 0 0.75525,-0.29421 1.2306093,1.2306093 0 0 0 0.13703,-1.73502 1.2306093,1.2306093 0 0 0 -1.73554,-0.13647 1.2306093,1.2306093 0 0 0 -0.13651,1.73447 1.2306093,1.2306093 0 0 0 0.97979,0.4312 z m -21.166668,0 a 1.2306093,1.2306093 0 0 0 0.755248,-0.29421 1.2306093,1.2306093 0 0 0 0.13703,-1.73502 1.2306093,1.2306093 0 0 0 -1.735538,-0.13647 1.2306093,1.2306093 0 0 0 -0.13651,1.73447 1.2306093,1.2306093 0 0 0 0.97979,0.4312 z m 0.377976,-7.74852 a 1.2306093,1.2306093 0 0 0 0.755248,-0.29421 1.2306093,1.2306093 0 0 0 0.13703,-1.73502 1.2306093,1.2306093 0 0 0 -1.735538,-0.13647 1.2306093,1.2306093 0 0 0 -0.13651,1.73447 1.2306093,1.2306093 0 0 0 0.97979,0.4312 z m -4.724703,-17.57589 a 1.2306093,1.2306093 0 0 0 0.755248,-0.29421 1.2306093,1.2306093 0 0 0 0.13703,-1.73502 1.2306093,1.2306093 0 0 0 -1.735538,-0.13647 1.2306093,1.2306093 0 0 0 -0.13651,1.73447 1.2306093,1.2306093 0 0 0 0.97979,0.4312 z m 6.236607,-17.3869 a 1.2306093,1.2306093 0 0 0 0.755248,-0.29421 1.2306093,1.2306093 0 0 0 0.13703,-1.73502 1.2306093,1.2306093 0 0 0 -1.735538,-0.13647 1.2306093,1.2306093 0 0 0 -0.13651,1.73447 1.2306093,1.2306093 0 0 0 0.97979,0.4312 z m 19.862028,16.71382 a 0.56696427,0.56696427 0 0 1 -0.56697,0.56696 0.56696427,0.56696427 0 0 1 -0.56696,-0.56696 0.56696427,0.56696427 0 0 1 0.56696,-0.56697 0.56696427,0.56696427 0 0 1 0.56697,0.56697 z M 99.578452,104.52724 a 1.2306093,1.2306093 0 0 0 0.755248,-0.29421 1.2306093,1.2306093 0 0 0 0.13703,-1.73502 1.2306093,1.2306093 0 0 0 -1.735538,-0.13647 1.2306093,1.2306093 0 0 0 -0.13651,1.73447 1.2306093,1.2306093 0 0 0 0.97979,0.4312 z m 5.851588,2 a 1.0264108,1.0264108 0 0 0 0.62981,-0.2453 1.0264108,1.0264108 0 0 0 0.11405,-1.44679 1.0264108,1.0264108 0 0 0 -1.44733,-0.114 1.0264108,1.0264108 0 0 0 -0.11402,1.4473 1.0264108,1.0264108 0 0 0 0.81748,0.35881 z m 2.05945,3.96182 a 0.66906351,0.66906351 0 0 0 0.4104,-0.15929 0.66906351,0.66906351 0 0 0 0.0744,-0.9436 0.66906351,0.66906351 0 0 0 -0.94359,-0.0744 0.66906351,0.66906351 0 0 0 -0.0739,0.94304 0.66906351,0.66906351 0 0 0 0.53268,0.23424 z m 0.26995,2.93345 a 0.36276579,0.36276579 0 0 0 0.22245,-0.0867 0.36276579,0.36276579 0 0 0 0.0402,-0.51152 0.36276579,0.36276579 0 0 0 -0.5115,-0.0402 0.36276579,0.36276579 0 0 0 -0.0403,0.51151 0.36276579,0.36276579 0 0 0 0.28903,0.12694 z m 14.29872,-8.21629 a 1.2306093,1.2306093 0 0 0 0.0791,0.0363 1.2306093,1.2306093 0 0 0 1.60968,-0.66334 1.2306093,1.2306093 0 0 0 -0.66401,-1.60869 1.2306093,1.2306093 0 0 0 -1.60862,0.66289 1.2306093,1.2306093 0 0 0 0.58381,1.57329 z m -11.22857,-3.62851 a 1.2306093,1.2306093 0 0 0 0.7966,0.14962 1.2306093,1.2306093 0 0 0 1.0337,-1.40019 1.2306093,1.2306093 0 0 0 -1.40093,-1.033502 1.2306093,1.2306093 0 0 0 -1.03297,1.400002 1.2306093,1.2306093 0 0 0 0.60363,0.88406 z m 3.9092,4.79158 a 1.0264108,1.0264108 0 0 0 0.66427,0.12481 1.0264108,1.0264108 0 0 0 0.86179,-1.1677 1.0264108,1.0264108 0 0 0 -1.16818,-0.86204 1.0264108,1.0264108 0 0 0 -0.86204,1.16815 1.0264108,1.0264108 0 0 0 0.50414,0.73679 z m 8.09735,4.87577 a 1.0264108,1.0264108 0 0 0 0.0665,0.0302 1.0264108,1.0264108 0 0 0 1.34196,-0.55319 1.0264108,1.0264108 0 0 0 -0.55319,-1.34195 1.0264108,1.0264108 0 0 0 -1.34236,0.553 1.0264108,1.0264108 0 0 0 0.48728,1.31161 z m 7.68139,8.09903 a 1.2306093,1.2306093 0 0 0 0.79673,0.1473 1.2306093,1.2306093 0 0 0 1.02876,-1.40412 1.2306093,1.2306093 0 0 0 -1.40366,-1.02853 1.2306093,1.2306093 0 0 0 -1.02899,1.40342 1.2306093,1.2306093 0 0 0 0.60716,0.88193 z m -16.12554,-8.52316 a 0.66906351,0.66906351 0 0 0 0.43256,0.0818 0.66906351,0.66906351 0 0 0 0.56212,-0.76154 0.66906351,0.66906351 0 0 0 -0.76154,-0.5621 0.66906351,0.66906351 0 0 0 -0.56139,0.76134 0.66906351,0.66906351 0 0 0 0.32827,0.48047 z m 5.69148,3.90778 a 0.66906351,0.66906351 0 0 0 0.043,0.0194 0.66906351,0.66906351 0 0 0 0.87503,-0.36058 0.66906351,0.66906351 0 0 0 -0.36059,-0.87505 0.66906351,0.66906351 0 0 0 -0.87459,0.36086 0.66906351,0.66906351 0 0 0 0.31728,0.85503 z m -7.01341,-1.27519 a 0.36276579,0.36276579 0 0 0 0.23467,0.044 0.36276579,0.36276579 0 0 0 0.30462,-0.41289 0.36276579,0.36276579 0 0 0 -0.41288,-0.30461 0.36276579,0.36276579 0 0 0 -0.30463,0.41287 0.36276579,0.36276579 0 0 0 0.17821,0.26057 z m 4.38957,2.71826 a 0.36276579,0.36276579 0 0 0 0.0231,0.0106 0.36276579,0.36276579 0 0 0 0.47438,-0.19557 0.36276579,0.36276579 0 0 0 -0.19559,-0.4744 0.36276579,0.36276579 0 0 0 -0.47439,0.19558 0.36276579,0.36276579 0 0 0 0.17238,0.46389 z m 8.2032,6.81837 a 1.0264108,1.0264108 0 0 0 0.66436,0.12249 1.0264108,1.0264108 0 0 0 0.85799,-1.17042 1.0264108,1.0264108 0 0 0 -1.17064,-0.85869 1.0264108,1.0264108 0 0 0 -0.85802,1.17158 1.0264108,1.0264108 0 0 0 0.50626,0.73506 z m -7.33769,-2.5502 a 0.36276579,0.36276579 0 0 0 0.23471,0.0429 0.36276579,0.36276579 0 0 0 0.30333,-0.41361 0.36276579,0.36276579 0 0 0 -0.41369,-0.30323 0.36276579,0.36276579 0 0 0 -0.30347,0.41411 0.36276579,0.36276579 0 0 0 0.1792,0.25988 z m 2.75105,1.73082 a 0.66906351,0.66906351 0 0 0 0.43313,0.0797 0.66906351,0.66906351 0 0 0 0.5594,-0.76305 0.66906351,0.66906351 0 0 0 -0.76329,-0.55896 0.66906351,0.66906351 0 0 0 -0.55914,0.76261 0.66906351,0.66906351 0 0 0 0.32988,0.47966 z m -5.46271,2.84829 a 0.36276579,0.36276579 0 0 0 0.49364,-0.13973 0.36276579,0.36276579 0 0 0 -0.13973,-0.49363 0.36276579,0.36276579 0 0 0 -0.49362,0.13982 0.36276579,0.36276579 0 0 0 0.13973,0.49364 z m 10.66769,7.06146 a 1.2306093,1.2306093 0 0 0 1.67449,-0.47458 1.2306093,1.2306093 0 0 0 -0.47418,-1.67421 1.2306093,1.2306093 0 0 0 -1.67467,0.47389 1.2306093,1.2306093 0 0 0 0.4744,1.67491 z m -9.4288,-3.8538 a 0.66906351,0.66906351 0 0 0 0.91058,-0.25791 0.66906351,0.66906351 0 0 0 -0.25819,-0.91012 0.66906351,0.66906351 0 0 0 -0.91034,0.25742 0.66906351,0.66906351 0 0 0 0.25792,0.91059 z m 3.26895,3.64255 a 1.0264108,1.0264108 0 0 0 1.39644,-0.39555 1.0264108,1.0264108 0 0 0 -0.39525,-1.39691 1.0264108,1.0264108 0 0 0 -1.39672,0.39594 1.0264108,1.0264108 0 0 0 0.39553,1.39646 z M 96.667483,113.69435 a 1.0264108,1.0264108 0 0 0 -1.026292,1.02629 1.0264108,1.0264108 0 0 0 1.026292,1.02681 1.0264108,1.0264108 0 0 0 1.026295,-1.02681 1.0264108,1.0264108 0 0 0 -1.026295,-1.02629 z m 4.630207,1.58595 a 0.66906351,0.66906351 0 0 0 -0.66921,0.66921 0.66906351,0.66906351 0 0 0 0.66921,0.66869 0.66906351,0.66906351 0 0 0 0.66921,-0.66869 0.66906351,0.66906351 0 0 0 -0.66921,-0.66921 z m -10.111009,1.23352 a 1.2306093,1.2306093 0 0 0 -1.230415,1.23093 1.2306093,1.2306093 0 0 0 1.230415,1.23041 1.2306093,1.2306093 0 0 0 1.230932,-1.23041 1.2306093,1.2306093 0 0 0 -1.230932,-1.23093 z m 12.756839,0.96273 a 0.36276579,0.36276579 0 0 0 -0.36276,0.36277 0.36276579,0.36276579 0 0 0 0.36276,0.36277 0.36276579,0.36276579 0 0 0 0.36277,-0.36277 0.36276579,0.36276579 0 0 0 -0.36277,-0.36277 z m -3.38015,5.15059 a 0.66906351,0.66906351 0 0 0 -0.41703,0.14159 0.66906351,0.66906351 0 0 0 -0.11627,0.93896 0.66906351,0.66906351 0 0 0 0.93896,0.11576 0.66906351,0.66906351 0 0 0 0.11627,-0.93844 0.66906351,0.66906351 0 0 0 -0.52193,-0.25787 z m 3.2458,0.1695 a 0.36276579,0.36276579 0 0 0 -0.22583,0.077 0.36276579,0.36276579 0 0 0 -0.0631,0.50901 0.36276579,0.36276579 0 0 0 0.50902,0.063 0.36276579,0.36276579 0 0 0 0.063,-0.50953 0.36276579,0.36276579 0 0 0 -0.28318,-0.13952 z m -7.649666,1.35185 a 1.0264108,1.0264108 0 0 0 -0.639755,0.21704 1.0264108,1.0264108 0 0 0 -0.178284,1.44023 1.0264108,1.0264108 0 0 0 1.440741,0.1788 1.0264108,1.0264108 0 0 0 0.177766,-1.44126 1.0264108,1.0264108 0 0 0 -0.800468,-0.39481 z m 10.486696,1.95234 a 0.36276579,0.36276579 0 0 0 -0.0253,0.002 0.36276579,0.36276579 0 0 0 -0.31884,0.40204 0.36276579,0.36276579 0 0 0 0.40204,0.31884 0.36276579,0.36276579 0 0 0 0.31884,-0.40204 0.36276579,0.36276579 0 0 0 -0.37672,-0.32091 z m 5.15783,0.23254 a 0.36276579,0.36276579 0 0 0 -0.22635,0.076 0.36276579,0.36276579 0 0 0 -0.0646,0.50901 0.36276579,0.36276579 0 0 0 0.50901,0.0646 0.36276579,0.36276579 0 0 0 0.0646,-0.50902 0.36276579,0.36276579 0 0 0 -0.28267,-0.14056 z m -6.74481,2.30684 a 0.66906351,0.66906351 0 0 0 -0.047,0.004 0.66906351,0.66906351 0 0 0 -0.58807,0.74155 0.66906351,0.66906351 0 0 0 0.74155,0.58808 0.66906351,0.66906351 0 0 0 0.58756,-0.74156 0.66906351,0.66906351 0 0 0 -0.69401,-0.59169 z m 6.87451,0.63614 a 0.66906351,0.66906351 0 0 0 -0.41754,0.13952 0.66906351,0.66906351 0 0 0 -0.11937,0.93896 0.66906351,0.66906351 0 0 0 0.93896,0.11938 0.66906351,0.66906351 0 0 0 0.11885,-0.93845 0.66906351,0.66906351 0 0 0 -0.5209,-0.25941 z m -18.234541,0.42271 a 1.2306093,1.2306093 0 0 0 -0.767395,0.25993 1.2306093,1.2306093 0 0 0 -0.213424,1.72754 1.2306093,1.2306093 0 0 0 1.727026,0.21343 1.2306093,1.2306093 0 0 0 0.213942,-1.72703 1.2306093,1.2306093 0 0 0 -0.960149,-0.47387 z m 10.655681,3.32486 a 1.0264108,1.0264108 0 0 0 -0.0729,0.006 1.0264108,1.0264108 0 0 0 -0.90176,1.1374 1.0264108,1.0264108 0 0 0 1.1374,0.90176 1.0264108,1.0264108 0 0 0 0.90227,-1.1374 1.0264108,1.0264108 0 0 0 -1.06505,-0.90744 z m 9.44697,0.30799 a 1.0264108,1.0264108 0 0 0 -0.64079,0.21498 1.0264108,1.0264108 0 0 0 -0.18293,1.4397 1.0264108,1.0264108 0 0 0 1.44022,0.18293 1.0264108,1.0264108 0 0 0 0.18293,-1.44022 1.0264108,1.0264108 0 0 0 -0.79943,-0.39739 z m 5.74952,2.27687 a 1.2306093,1.2306093 0 0 0 -0.76843,0.25786 1.2306093,1.2306093 0 0 0 -0.21963,1.72651 1.2306093,1.2306093 0 0 0 1.72703,0.21911 1.2306093,1.2306093 0 0 0 0.21911,-1.72599 1.2306093,1.2306093 0 0 0 -0.95808,-0.47749 z m -11.57242,2.30787 a 1.2306093,1.2306093 0 0 0 -0.0868,0.007 1.2306093,1.2306093 0 0 0 -1.08159,1.36426 1.2306093,1.2306093 0 0 0 1.36426,1.08055 1.2306093,1.2306093 0 0 0 1.08107,-1.36322 1.2306093,1.2306093 0 0 0 -1.27692,-1.08882 z"
       inkscape:connector-curvature="0" />
  </g>
</svg>
