<?xml version="1.0" encoding="UTF-8" standalone="no"?>
<!-- Created with Inkscape (http://www.inkscape.org/) -->

<svg
   xmlns:dc="http://purl.org/dc/elements/1.1/"
   xmlns:cc="http://creativecommons.org/ns#"
   xmlns:rdf="http://www.w3.org/1999/02/22-rdf-syntax-ns#"
   xmlns:svg="http://www.w3.org/2000/svg"
   xmlns="http://www.w3.org/2000/svg"
   xmlns:sodipodi="http://sodipodi.sourceforge.net/DTD/sodipodi-0.dtd"
   xmlns:inkscape="http://www.inkscape.org/namespaces/inkscape"
   width="124.38598mm"
   height="23.964769mm"
   viewBox="0 0 124.38598 23.964769"
   version="1.1"
   id="svg8"
   inkscape:version="0.92.3 (2405546, 2018-03-11)"
   sodipodi:docname="logoinkscape.svg">
  <defs
     id="defs2" />
  <sodipodi:namedview
     id="base"
     pagecolor="#ffffff"
     bordercolor="#666666"
     borderopacity="1.0"
     inkscape:pageopacity="0.0"
     inkscape:pageshadow="2"
     inkscape:zoom="1.4"
     inkscape:cx="323.64818"
     inkscape:cy="141.96989"
     inkscape:document-units="mm"
     inkscape:current-layer="layer1"
     showgrid="false"
     inkscape:window-width="1920"
     inkscape:window-height="1027"
     inkscape:window-x="-8"
     inkscape:window-y="-8"
     inkscape:window-maximized="1"
     fit-margin-top="0"
     fit-margin-left="0"
     fit-margin-right="0"
     fit-margin-bottom="0"
     inkscape:pagecheckerboard="true"
     showborder="false"
     inkscape:snap-nodes="false" />
  <metadata
     id="metadata5">
    <rdf:RDF>
      <cc:Work
         rdf:about="">
        <dc:format>image/svg+xml</dc:format>
        <dc:type
           rdf:resource="http://purl.org/dc/dcmitype/StillImage" />
        <dc:title></dc:title>
      </cc:Work>
    </rdf:RDF>
  </metadata>
  <g
     inkscape:label="Layer 1"
     inkscape:groupmode="layer"
     id="layer1"
     transform="translate(-37.575936,-123.28533)">
    <path
       style="opacity:1;fill:#f61010;fill-opacity:1;fill-rule:nonzero;stroke:#a92a2a;stroke-width:0.40000001;stroke-linecap:round;stroke-linejoin:round;stroke-miterlimit:4;stroke-dasharray:none;stroke-dashoffset:0;stroke-opacity:1;paint-order:stroke fill markers"
       d="m 156.69503,124.20468 a 0.04340084,0.03908012 22.104525 0 0 -0.0189,0.005 0.04340084,0.03908012 22.104525 0 0 -0.002,8e-4 l -2.9e-4,5.3e-4 a 0.04340084,0.03908012 22.104525 0 0 -0.0109,0.0523 0.04340084,0.03908012 22.104525 0 0 0.059,0.0163 0.04340084,0.03908012 22.104525 0 0 0.0135,-0.0536 0.04340084,0.03908012 22.104525 0 0 -0.0401,-0.021 z m -2.28374,0.37833 a 0.04503765,0.04055398 22.10452 0 0 -0.0235,0.006 v -2.7e-4 a 0.04503765,0.04055398 22.10452 0 0 -0.003,0.003 0.04503765,0.04055398 22.10452 0 0 -0.003,0.0578 0.04503765,0.04055398 22.10452 0 0 0.063,0.007 0.04503765,0.04055398 22.10452 0 0 0.003,-0.058 0.04503765,0.04055398 22.10452 0 0 -0.0358,-0.0158 z m -0.19105,0.15573 a 0.04301179,0.0387298 22.104546 0 0 -0.0146,0.004 0.04301179,0.0387298 22.104546 0 0 -0.006,0.003 0.04301179,0.0387298 22.104546 0 0 -0.009,0.0492 0.04301179,0.0387298 22.104546 0 0 0.0579,0.0176 0.04301179,0.0387298 22.104546 0 0 0.0149,-0.0529 0.04301179,0.0387298 22.104546 0 0 -0.0435,-0.0215 z m -0.14236,0.12101 a 0.0437775,0.03941928 22.104527 0 0 -0.0223,0.008 0.0437775,0.03941928 22.104527 0 0 -0.006,0.0557 0.0437775,0.03941928 22.104527 0 0 0.061,0.009 0.0437775,0.03941928 22.104527 0 0 0.005,-0.056 0.0437775,0.03941928 22.104527 0 0 -0.0384,-0.0166 z m 0.48178,0.0402 a 0.0443445,0.03992983 22.104543 0 0 -0.0152,0.004 0.0443445,0.03992983 22.104543 0 0 -0.004,0.002 0.0443445,0.03992983 22.104543 0 0 -0.003,0.002 0.0443445,0.03992983 22.104543 0 0 -0.003,0.003 0.0443445,0.03992983 22.104543 0 0 -0.012,0.0202 0.0443445,0.03992983 22.104543 0 0 -5.9e-4,0.004 0.0443445,0.03992983 22.104543 0 0 0.005,0.0238 0.0443445,0.03992983 22.104543 0 0 0.0596,0.0194 0.0443445,0.03992983 22.104543 0 0 0.0166,-0.0539 0.0443445,0.03992983 22.104543 0 0 -0.0444,-0.0233 z m 1.44507,0.0855 a 0.04442637,0.04000355 22.104507 0 0 -0.0155,0.004 0.04442637,0.04000355 22.104507 0 0 -0.006,0.003 0.04442637,0.04000355 22.104507 0 0 -0.0109,0.0505 0.04442637,0.04000355 22.104507 0 0 0.0593,0.02 0.04442637,0.04000355 22.104507 0 0 0.0175,-0.0536 0.04442637,0.04000355 22.104507 0 0 -0.0441,-0.0238 z m 0.79457,0.0109 a 0.0432862,0.03897689 22.104551 0 0 -0.0195,0.006 l -2.9e-4,2.7e-4 a 0.0432862,0.03897689 22.104551 0 0 -0.002,0.002 0.0432862,0.03897689 22.104551 0 0 -0.004,0.0555 0.0432862,0.03897689 22.104551 0 0 0.0601,0.008 0.0432862,0.03897689 22.104551 0 0 0.004,-0.0557 0.0432862,0.03897689 22.104551 0 0 -0.0384,-0.0155 z m -4.50133,0.1477 a 0.04397375,0.03959599 22.104532 0 0 -0.0223,0.007 h -3e-4 a 0.04397375,0.03959599 22.104532 0 0 -0.007,0.0557 0.04397375,0.03959599 22.104532 0 0 0.061,0.0112 0.04397375,0.03959599 22.104532 0 0 0.007,-0.056 0.04397375,0.03959599 22.104532 0 0 -0.0384,-0.0176 z m 4.3435,0.0314 a 0.04494448,0.04047008 22.104533 0 0 -0.0235,0.006 0.04494448,0.04047008 22.104533 0 0 -0.002,0.002 h -2.9e-4 a 0.04494448,0.04047008 22.104533 0 0 -0.007,0.0552 0.04494448,0.04047008 22.104533 0 0 0.0622,0.0127 0.04494448,0.04047008 22.104533 0 0 0.009,-0.057 0.04494448,0.04047008 22.104533 0 0 -0.0387,-0.0189 z m -0.11858,0.1236 a 0.04341583,0.03909361 22.104531 0 0 -0.0189,0.005 0.04341583,0.03909361 22.104531 0 0 -0.002,0.002 l -2.9e-4,-2.6e-4 a 0.04341583,0.03909361 22.104531 0 0 -0.01,0.0526 0.04341583,0.03909361 22.104531 0 0 0.059,0.0158 0.04341583,0.03909361 22.104531 0 0 0.0129,-0.0542 0.04341583,0.03909361 22.104531 0 0 -0.0404,-0.0205 z m -5.66454,0.0277 a 0.0428378,0.03857313 22.104542 0 0 -0.0186,0.004 0.0428378,0.03857313 22.104542 0 0 -0.003,0.002 h -3e-4 a 0.0428378,0.03857313 22.104542 0 0 -0.002,0.002 0.0428378,0.03857313 22.104542 0 0 -0.007,0.0495 0.0428378,0.03857313 22.104542 0 0 0.0582,0.0161 0.0428378,0.03857313 22.104542 0 0 0.0132,-0.0529 0.0428378,0.03857313 22.104542 0 0 -0.0395,-0.0207 z m 0.17701,0.58225 a 0.04453091,0.04009768 22.104548 0 0 -0.0226,0.007 0.04453091,0.04009768 22.104548 0 0 -0.003,0.003 0.04453091,0.04009768 22.104548 0 0 -2.9e-4,0.0573 0.04453091,0.04009768 22.104548 0 0 0.0622,0.005 0.04453091,0.04009768 22.104548 0 0 2.9e-4,-0.0575 0.04453091,0.04009768 22.104548 0 0 -0.0361,-0.0143 z m -0.55912,0.0565 a 0.04370237,0.03935163 22.104527 0 0 -0.0226,0.007 0.04370237,0.03935163 22.104527 0 0 -0.003,0.002 0.04370237,0.03935163 22.104527 0 0 -0.002,0.0565 0.04370237,0.03935163 22.104527 0 0 0.0352,0.0145 0.04370237,0.03935163 22.104527 0 0 0.004,-2.7e-4 0.04370237,0.03935163 22.104527 0 0 0.0215,-0.009 0.04370237,0.03935163 22.104527 0 0 0.003,-0.003 0.04370237,0.03935163 22.104527 0 0 0.003,-0.003 0.04370237,0.03935163 22.104527 0 0 -0.004,-0.0505 0.04370237,0.03935163 22.104527 0 0 -0.0349,-0.0148 z m -1.49146,0.82842 a 0.0436117,0.03926998 22.104542 0 0 -0.0195,0.006 h -5.9e-4 a 0.0436117,0.03926998 22.104542 0 0 -0.002,0.002 0.0436117,0.03926998 22.104542 0 0 -0.003,0.003 0.0436117,0.03926998 22.104542 0 0 0.002,0.0562 0.0436117,0.03926998 22.104542 0 0 0.0607,0.003 0.0436117,0.03926998 22.104542 0 0 -0.002,-0.0562 0.0436117,0.03926998 22.104542 0 0 -0.0358,-0.013 z m 2.20784,0.21067 a 0.04495932,0.04048345 22.104533 0 0 -0.0195,0.005 0.04495932,0.04048345 22.104533 0 0 -0.002,10e-4 l -2.9e-4,2.6e-4 a 0.04495932,0.04048345 22.104533 0 0 -0.0106,0.0544 0.04495932,0.04048345 22.104533 0 0 0.0613,0.0163 0.04495932,0.04048345 22.104533 0 0 0.0132,-0.0557 0.04495932,0.04048345 22.104533 0 0 -0.0418,-0.0215 z m 3.16281,0.0536 a 0.04396629,0.03958928 22.104529 0 0 -0.009,0.002 0.04396629,0.03958928 22.104529 0 0 -0.004,10e-4 0.04396629,0.03958928 22.104529 0 0 -0.004,0.002 0.04396629,0.03958928 22.104529 0 0 -0.004,0.002 0.04396629,0.03958928 22.104529 0 0 -0.002,0.002 l 2.9e-4,5.3e-4 a 0.04396629,0.03958928 22.104529 0 0 -0.003,0.003 0.04396629,0.03958928 22.104529 0 0 -0.007,0.009 0.04396629,0.03958928 22.104529 0 0 -0.002,0.003 0.04396629,0.03958928 22.104529 0 0 -0.001,0.004 0.04396629,0.03958928 22.104529 0 0 -8.8e-4,0.004 0.04396629,0.03958928 22.104529 0 0 0.0129,0.0363 0.04396629,0.03958928 22.104529 0 0 0.0613,0.002 0.04396629,0.03958928 22.104529 0 0 -0.002,-0.0567 0.04396629,0.03958928 22.104529 0 0 -0.0358,-0.0132 z m -0.65192,0.0293 a 0.04282018,0.03855726 22.104523 0 0 -0.0223,0.006 0.04282018,0.03855726 22.104523 0 0 -0.009,0.0542 0.04282018,0.03855726 22.104523 0 0 0.059,0.0122 0.04282018,0.03855726 22.104523 0 0 0.009,-0.0542 0.04282018,0.03855726 22.104523 0 0 -0.0367,-0.0184 z m 1.09017,0.0137 a 0.04323447,0.0389303 22.104543 0 0 -0.0221,0.007 0.04323447,0.0389303 22.104543 0 0 -0.007,0.0529 0.04323447,0.0389303 22.104543 0 0 0.002,0.002 0.04323447,0.0389303 22.104543 0 0 0.0212,0.0142 0.04323447,0.0389303 22.104543 0 0 0.004,0.001 0.04323447,0.0389303 22.104543 0 0 0.035,-0.006 0.04323447,0.0389303 22.104543 0 0 0.006,-0.0552 0.04323447,0.0389303 22.104543 0 0 -0.0381,-0.0166 z m -0.79858,0.0145 a 0.04496053,0.04048453 22.104544 0 0 -0.0129,0.002 0.04496053,0.04048453 22.104544 0 0 -0.004,0.002 0.04496053,0.04048453 22.104544 0 0 -0.006,0.003 0.04496053,0.04048453 22.104544 0 0 -0.003,0.003 0.04496053,0.04048453 22.104544 0 0 -0.0115,0.0166 0.04496053,0.04048453 22.104544 0 0 -10e-4,0.004 0.04496053,0.04048453 22.104544 0 0 2.9e-4,0.0163 0.04496053,0.04048453 22.104544 0 0 0.001,0.004 0.04496053,0.04048453 22.104544 0 0 0.0106,0.0174 0.04496053,0.04048453 22.104544 0 0 0.007,0.006 0.04496053,0.04048453 22.104544 0 0 0.004,0.002 0.04496053,0.04048453 22.104544 0 0 0.004,0.002 0.04496053,0.04048453 22.104544 0 0 0.004,0.002 0.04496053,0.04048453 22.104544 0 0 0.0441,-0.007 0.04496053,0.04048453 22.104544 0 0 5.8e-4,-0.058 0.04496053,0.04048453 22.104544 0 0 -0.0364,-0.0145 z m -5.48867,0.0158 a 0.04347253,0.03914467 22.104528 0 0 -0.0152,0.003 0.04347253,0.03914467 22.104528 0 0 -0.006,0.003 v 2.6e-4 a 0.04347253,0.03914467 22.104528 0 0 -0.0126,0.0487 0.04347253,0.03914467 22.104528 0 0 0.0576,0.0215 0.04347253,0.03914467 22.104528 0 0 0.0189,-0.0521 0.04347253,0.03914467 22.104528 0 0 -0.0424,-0.0244 z m 0.30104,0.0573 a 0.04379875,0.03943841 22.104516 0 0 -0.0152,0.003 0.04379875,0.03943841 22.104516 0 0 -0.006,0.003 v -2.6e-4 a 0.04379875,0.03943841 22.104516 0 0 -0.0112,0.0111 0.04379875,0.03943841 22.104516 0 0 -0.002,0.004 0.04379875,0.03943841 22.104516 0 0 0.001,0.035 0.04379875,0.03943841 22.104516 0 0 0.0584,0.0205 0.04379875,0.03943841 22.104516 0 0 0.018,-0.0526 0.04379875,0.03943841 22.104516 0 0 -0.043,-0.0241 z m 3.55867,0.0567 a 0.04465345,0.04020802 22.10453 0 0 -0.0155,0.004 0.04465345,0.04020802 22.10453 0 0 -0.006,0.004 v -2.7e-4 a 0.04465345,0.04020802 22.10453 0 0 -0.0112,0.0117 0.04465345,0.04020802 22.10453 0 0 -0.002,0.004 0.04465345,0.04020802 22.10453 0 0 0.002,0.0355 0.04465345,0.04020802 22.10453 0 0 0.0599,0.0202 0.04465345,0.04020802 22.10453 0 0 0.0172,-0.0544 0.04465345,0.04020802 22.10453 0 0 -0.0444,-0.0236 z m 0.47634,0.007 a 0.04288024,0.03861135 22.10452 0 0 -0.004,2.6e-4 0.04288024,0.03861135 22.10452 0 0 -0.004,8e-4 0.04288024,0.03861135 22.10452 0 0 -0.0135,0.006 0.04288024,0.03861135 22.10452 0 0 -0.003,0.002 0.04288024,0.03861135 22.10452 0 0 -0.002,0.0524 0.04288024,0.03861135 22.10452 0 0 0.0593,0.009 0.04288024,0.03861135 22.10452 0 0 0.006,-0.0547 0.04288024,0.03861135 22.10452 0 0 -0.0378,-0.0163 z m -1.84034,0.0225 a 0.04450197,0.04007163 22.104523 0 0 -0.0195,0.004 0.04450197,0.04007163 22.104523 0 0 -0.002,0.001 0.04450197,0.04007163 22.104523 0 0 -0.004,0.003 v 2.7e-4 a 0.04450197,0.04007163 22.104523 0 0 -0.0135,0.0394 0.04450197,0.04007163 22.104523 0 0 10e-4,0.004 0.04450197,0.04007163 22.104523 0 0 0.004,0.008 0.04450197,0.04007163 22.104523 0 0 0.0601,0.0176 0.04450197,0.04007163 22.104523 0 0 0.0149,-0.0549 0.04450197,0.04007163 22.104523 0 0 -0.041,-0.022 z m -2.15858,0.042 a 0.04274712,0.03849148 22.104524 0 0 -0.0189,0.004 0.04274712,0.03849148 22.104524 0 0 -0.006,0.003 0.04274712,0.03849148 22.104524 0 0 -0.009,0.0487 0.04274712,0.03849148 22.104524 0 0 0.0109,0.0124 0.04274712,0.03849148 22.104524 0 0 0.003,0.003 0.04274712,0.03849148 22.104524 0 0 0.0433,0.003 0.04274712,0.03849148 22.104524 0 0 0.0152,-0.0524 0.04274712,0.03849148 22.104524 0 0 -0.0387,-0.022 z m 4.06939,0.0329 a 0.04295597,0.03867953 22.10455 0 0 -0.0183,0.005 v 2.6e-4 a 0.04295597,0.03867953 22.10455 0 0 -0.003,0.002 0.04295597,0.03867953 22.10455 0 0 -0.004,0.0549 0.04295597,0.03867953 22.10455 0 0 0.0378,0.0158 0.04295597,0.03867953 22.10455 0 0 0.004,-5.3e-4 0.04295597,0.03867953 22.10455 0 0 0.0175,-0.007 0.04295597,0.03867953 22.10455 0 0 0.008,-0.009 0.04295597,0.03867953 22.10455 0 0 -0.004,-0.0466 0.04295597,0.03867953 22.10455 0 0 -0.0381,-0.0158 z m -5.20138,0.0215 a 0.04481586,0.04035426 22.104512 0 0 -0.0192,0.006 0.04481586,0.04035426 22.104512 0 0 -0.002,0.002 h -2.9e-4 a 0.04481586,0.04035426 22.104512 0 0 -0.009,0.0547 0.04481586,0.04035426 22.104512 0 0 0.0616,0.0145 0.04481586,0.04035426 22.104512 0 0 0.0112,-0.0562 0.04481586,0.04035426 22.104512 0 0 -0.0424,-0.0202 z m 4.51021,0.0428 a 0.04485812,0.04039232 22.104546 0 0 -0.0152,0.003 0.04485812,0.04039232 22.104546 0 0 -0.007,0.004 0.04485812,0.04039232 22.104546 0 0 -0.003,0.002 0.04485812,0.04039232 22.104546 0 0 -0.003,0.003 0.04485812,0.04039232 22.104546 0 0 -0.009,0.0176 0.04485812,0.04039232 22.104546 0 0 -8.8e-4,0.004 0.04485812,0.04039232 22.104546 0 0 0.005,0.0241 0.04485812,0.04039232 22.104546 0 0 0.0599,0.0205 0.04485812,0.04039232 22.104546 0 0 0.018,-0.0541 0.04485812,0.04039232 22.104546 0 0 -0.0447,-0.0241 z m -3.41058,0.013 a 0.04344264,0.03911776 22.104545 0 0 -0.0183,0.006 v -2.6e-4 a 0.04344264,0.03911776 22.104545 0 0 -0.006,0.005 0.04344264,0.03911776 22.104545 0 0 0.003,0.0565 0.04344264,0.03911776 22.104545 0 0 0.0146,0.009 0.04344264,0.03911776 22.104545 0 0 0.004,0.001 0.04344264,0.03911776 22.104545 0 0 0.0172,0.002 0.04344264,0.03911776 22.104545 0 0 0.008,-0.002 0.04344264,0.03911776 22.104545 0 0 0.004,-0.002 0.04344264,0.03911776 22.104545 0 0 0.004,-0.002 0.04344264,0.03911776 22.104545 0 0 0.007,-0.005 0.04344264,0.03911776 22.104545 0 0 0.002,-0.002 0.04344264,0.03911776 22.104545 0 0 -0.003,-0.056 0.04344264,0.03911776 22.104545 0 0 -0.0358,-0.0122 z m 6.26118,0.0192 a 0.04274402,0.03848869 22.104535 0 0 -0.008,0.001 0.04274402,0.03848869 22.104535 0 0 -0.004,0.001 0.04274402,0.03848869 22.104535 0 0 -0.007,0.004 l -5.8e-4,-2.6e-4 a 0.04274402,0.03848869 22.104535 0 0 -0.002,0.002 0.04274402,0.03848869 22.104535 0 0 -0.003,0.003 0.04274402,0.03848869 22.104535 0 0 -0.005,0.006 0.04274402,0.03848869 22.104535 0 0 -0.002,0.003 0.04274402,0.03848869 22.104535 0 0 0.009,0.0461 0.04274402,0.03848869 22.104535 0 0 0.0596,0.003 0.04274402,0.03848869 22.104535 0 0 -0.001,-0.0554 0.04274402,0.03848869 22.104535 0 0 -0.0352,-0.0124 z m -1.11538,0.0161 a 0.04514208,0.04064801 22.104511 0 0 -0.0235,0.007 0.04514208,0.04064801 22.104511 0 0 -0.003,0.002 0.04514208,0.04064801 22.104511 0 0 -0.0129,0.0205 0.04514208,0.04064801 22.104511 0 0 -5.9e-4,0.004 0.04514208,0.04064801 22.104511 0 0 0.005,0.0243 0.04514208,0.04064801 22.104511 0 0 0.002,0.004 0.04514208,0.04064801 22.104511 0 0 0.005,0.006 0.04514208,0.04064801 22.104511 0 0 0.003,0.003 0.04514208,0.04064801 22.104511 0 0 0.003,0.003 0.04514208,0.04064801 22.104511 0 0 0.0561,0 0.04514208,0.04064801 22.104511 0 0 0.002,-0.058 0.04514208,0.04064801 22.104511 0 0 -0.0361,-0.0153 z m -5.80976,0.0316 a 0.04380879,0.03944745 22.104553 0 0 -0.0221,0.007 l -5.8e-4,2.7e-4 a 0.04380879,0.03944745 22.104553 0 0 -0.003,0.003 0.04380879,0.03944745 22.104553 0 0 5.8e-4,0.0565 0.04380879,0.03944745 22.104553 0 0 0.061,0.004 0.04380879,0.03944745 22.104553 0 0 -2.9e-4,-0.0567 0.04380879,0.03944745 22.104553 0 0 -0.0358,-0.0135 z m 2.01622,0.0106 a 0.0442803,0.03987202 22.104531 0 0 -0.0226,0.008 0.0442803,0.03987202 22.104531 0 0 -0.0149,0.0389 0.0442803,0.03987202 22.104531 0 0 0.001,0.004 0.0442803,0.03987202 22.104531 0 0 0.008,0.0137 0.0442803,0.03987202 22.104531 0 0 0.003,0.003 0.0442803,0.03987202 22.104531 0 0 0.0587,0.007 0.0442803,0.03987202 22.104531 0 0 0.006,-0.0567 0.0442803,0.03987202 22.104531 0 0 -0.039,-0.0171 z m 2.75235,0.0101 a 0.04486001,0.04039402 22.104509 0 0 -0.0232,0.007 v -2.7e-4 a 0.04486001,0.04039402 22.104509 0 0 -0.003,0.003 0.04486001,0.04039402 22.104509 0 0 -0.001,0.0578 0.04486001,0.04039402 22.104509 0 0 0.0401,0.015 0.04486001,0.04039402 22.104509 0 0 0.005,-8e-4 0.04486001,0.04039402 22.104509 0 0 0.0178,-0.008 0.04486001,0.04039402 22.104509 0 0 0.003,-0.003 0.04486001,0.04039402 22.104509 0 0 -0.001,-0.0552 0.04486001,0.04039402 22.104509 0 0 -0.0361,-0.015 z m 2.6458,0.015 a 0.04290805,0.03863638 22.10454 0 0 -0.0223,0.006 l -5.9e-4,2.7e-4 a 0.04290805,0.03863638 22.10454 0 0 -0.003,0.002 0.04290805,0.03863638 22.10454 0 0 -0.005,0.005 0.04290805,0.03863638 22.10454 0 0 -0.002,0.003 0.04290805,0.03863638 22.10454 0 0 0.001,0.0409 0.04290805,0.03863638 22.10454 0 0 0.002,0.003 0.04290805,0.03863638 22.10454 0 0 0.002,0.002 0.04290805,0.03863638 22.10454 0 0 0.003,0.003 0.04290805,0.03863638 22.10454 0 0 0.0146,0.009 0.04290805,0.03863638 22.10454 0 0 0.004,0.001 0.04290805,0.03863638 22.10454 0 0 0.0384,-0.007 0.04290805,0.03863638 22.10454 0 0 0.002,-0.0552 0.04290805,0.03863638 22.10454 0 0 -0.0341,-0.0148 z m -5.17731,10e-4 a 0.04313288,0.03883883 22.104531 0 0 -0.0221,0.007 l -5.8e-4,5.3e-4 a 0.04313288,0.03883883 22.104531 0 0 -0.003,0.002 0.04313288,0.03883883 22.104531 0 0 -8.8e-4,0.0557 0.04313288,0.03883883 22.104531 0 0 0.0601,0.005 0.04313288,0.03883883 22.104531 0 0 10e-4,-0.0557 0.04313288,0.03883883 22.104531 0 0 -0.0349,-0.0143 z m 1.45108,0.0124 a 0.04356781,0.03923046 22.10454 0 0 -0.0123,0.003 0.04356781,0.03923046 22.10454 0 0 -0.004,0.002 0.04356781,0.03923046 22.10454 0 0 -0.003,10e-4 0.04356781,0.03923046 22.10454 0 0 -0.003,0.002 0.04356781,0.03923046 22.10454 0 0 -0.009,0.05 0.04356781,0.03923046 22.10454 0 0 0.003,0.004 0.04356781,0.03923046 22.10454 0 0 0.002,0.002 0.04356781,0.03923046 22.10454 0 0 0.003,0.003 0.04356781,0.03923046 22.10454 0 0 0.0103,0.008 0.04356781,0.03923046 22.10454 0 0 0.004,0.002 0.04356781,0.03923046 22.10454 0 0 0.004,0.002 0.04356781,0.03923046 22.10454 0 0 0.004,10e-4 0.04356781,0.03923046 22.10454 0 0 0.0349,-0.007 0.04356781,0.03923046 22.10454 0 0 0.004,-0.0557 0.04356781,0.03923046 22.10454 0 0 -0.0387,-0.0161 z m -1.88446,0.0749 a 0.04275288,0.03849666 22.104522 0 0 -0.0149,0.004 0.04275288,0.03849666 22.104522 0 0 -0.006,0.003 v 2.7e-4 a 0.04275288,0.03849666 22.104522 0 0 -0.01,0.0487 0.04275288,0.03849666 22.104522 0 0 0.0573,0.0189 0.04275288,0.03849666 22.104522 0 0 0.0163,-0.0521 0.04275288,0.03849666 22.104522 0 0 -0.0427,-0.0225 z m 5.45516,0.0503 a 0.04512046,0.04062854 22.104523 0 0 -0.0192,0.006 v -2.7e-4 a 0.04512046,0.04062854 22.104523 0 0 -0.003,0.003 0.04512046,0.04062854 22.104523 0 0 -0.003,0.0578 0.04512046,0.04062854 22.104523 0 0 0.063,0.008 0.04512046,0.04062854 22.104523 0 0 0.003,-0.0578 0.04512046,0.04062854 22.104523 0 0 -0.0401,-0.0161 z m 0.22485,0.25524 a 0.04452191,0.04008958 22.104533 0 0 -0.0235,0.006 0.04452191,0.04008958 22.104533 0 0 -0.002,0.002 h -2.9e-4 a 0.04452191,0.04008958 22.104533 0 0 -0.009,0.0541 0.04452191,0.04008958 22.104533 0 0 0.061,0.0145 0.04452191,0.04008958 22.104533 0 0 0.0114,-0.0557 0.04452191,0.04008958 22.104533 0 0 -0.0375,-0.0202 z m -6.02516,0.0342 a 0.04516606,0.0406696 22.104543 0 0 -0.0226,0.008 h -2.9e-4 a 0.04516606,0.0406696 22.104543 0 0 -0.005,0.0578 0.04516606,0.0406696 22.104543 0 0 0.0627,0.009 0.04516606,0.0406696 22.104543 0 0 0.005,-0.0578 0.04516606,0.0406696 22.104543 0 0 -0.0401,-0.0168 z m 5.76336,0.0296 a 0.04310542,0.0388141 22.10456 0 0 -0.0192,0.004 0.04310542,0.0388141 22.10456 0 0 -0.006,0.004 v -2.7e-4 a 0.04310542,0.0388141 22.10456 0 0 -0.0106,0.049 0.04310542,0.0388141 22.10456 0 0 0.0582,0.0194 0.04310542,0.0388141 22.10456 0 0 0.0163,-0.0523 0.04310542,0.0388141 22.10456 0 0 -0.0387,-0.0231 z m -6.19531,0.0793 a 0.04497078,0.04049376 22.104522 0 0 -0.0198,0.004 0.04497078,0.04049376 22.104522 0 0 -0.003,0.002 0.04497078,0.04049376 22.104522 0 0 -0.0118,0.0539 0.04497078,0.04049376 22.104522 0 0 0.061,0.0176 0.04497078,0.04049376 22.104522 0 0 0.0143,-0.0555 0.04497078,0.04049376 22.104522 0 0 -0.0413,-0.022 z m 1.77361,0.0891 a 0.04298521,0.03870587 22.104529 0 0 -0.0149,0.003 0.04298521,0.03870587 22.104529 0 0 -0.006,0.003 0.04298521,0.03870587 22.104529 0 0 -0.0118,0.0487 0.04298521,0.03870587 22.104529 0 0 0.0573,0.0202 0.04298521,0.03870587 22.104529 0 0 0.0178,-0.0518 0.04298521,0.03870587 22.104529 0 0 -0.0424,-0.0233 z m 4.46581,0.0827 a 0.04516366,0.04066745 22.104519 0 0 -0.0232,0.008 0.04516366,0.04066745 22.104519 0 0 -0.006,0.0578 0.04516366,0.04066745 22.104519 0 0 0.0395,0.0174 0.04516366,0.04066745 22.104519 0 0 0.0232,-0.008 0.04516366,0.04066745 22.104519 0 0 0.006,-0.0575 0.04516366,0.04066745 22.104519 0 0 -0.0398,-0.0174 z m -5.09683,0.0174 a 0.04324863,0.03894306 22.104502 0 0 -0.0186,0.006 v -2.6e-4 a 0.04324863,0.03894306 22.104502 0 0 -0.003,0.002 0.04324863,0.03894306 22.104502 0 0 -0.003,0.0555 0.04324863,0.03894306 22.104502 0 0 0.0601,0.007 0.04324863,0.03894306 22.104502 0 0 0.003,-0.0554 0.04324863,0.03894306 22.104502 0 0 -0.0384,-0.0153 z m 1.56279,0 a 0.04375832,0.03940201 22.104537 0 0 -0.0186,0.006 0.04375832,0.03940201 22.104537 0 0 -0.002,0.002 h -2.9e-4 a 0.04375832,0.03940201 22.104537 0 0 -0.007,0.0534 0.04375832,0.03940201 22.104537 0 0 0.0604,0.013 0.04375832,0.03940201 22.104537 0 0 0.009,-0.0549 0.04375832,0.03940201 22.104537 0 0 -0.0415,-0.0189 z m 0.53764,0.10054 a 0.04456509,0.04012846 22.104537 0 0 -0.009,0.002 0.04456509,0.04012846 22.104537 0 0 -0.004,10e-4 0.04456509,0.04012846 22.104537 0 0 -0.006,0.003 l -3e-4,-2.6e-4 a 0.04456509,0.04012846 22.104537 0 0 -0.003,0.003 0.04456509,0.04012846 22.104537 0 0 -0.004,0.0573 0.04456509,0.04012846 22.104537 0 0 0.003,0.003 0.04456509,0.04012846 22.104537 0 0 0.003,0.003 0.04456509,0.04012846 22.104537 0 0 0.0332,0.0101 0.04456509,0.04012846 22.104537 0 0 0.004,-5.3e-4 0.04456509,0.04012846 22.104537 0 0 0.018,-0.008 0.04456509,0.04012846 22.104537 0 0 0.004,-0.057 0.04456509,0.04012846 22.104537 0 0 -0.0395,-0.0161 z m -0.57058,0.002 a 0.04464042,0.04019629 22.104516 0 0 -0.0195,0.005 0.04464042,0.04019629 22.104516 0 0 -0.0126,0.0104 0.04437223,0.0399548 22.104564 0 0 -0.0123,0.003 0.04437223,0.0399548 22.104564 0 0 -0.003,0.001 0.04437223,0.0399548 22.104564 0 0 -0.006,0.003 l -5.9e-4,5.3e-4 a 0.04437223,0.0399548 22.104564 0 0 -0.0126,0.0433 0.04437223,0.0399548 22.104564 0 0 0.004,0.008 0.04437223,0.0399548 22.104564 0 0 0.0152,0.0153 0.04437223,0.0399548 22.104564 0 0 0.004,0.002 0.04437223,0.0399548 22.104564 0 0 0.0255,0.005 0.04437223,0.0399548 22.104564 0 0 0.004,-5.4e-4 0.04437223,0.0399548 22.104564 0 0 0.008,-0.003 0.04437223,0.0399548 22.104564 0 0 0.003,-0.001 0.04437223,0.0399548 22.104564 0 0 0.0132,-0.0104 0.04464042,0.04019629 22.104516 0 0 0.0172,-0.005 0.04464042,0.04019629 22.104516 0 0 0.0192,-0.0243 0.04358304,0.03924418 22.104523 0 0 0.0109,0.0163 0.04358304,0.03924418 22.104523 0 0 0.0226,0.0122 0.04358304,0.03924418 22.104523 0 0 0.009,0.001 0.04358304,0.03924418 22.104523 0 0 0.0295,-0.0101 0.04358304,0.03924418 22.104523 0 0 -0.001,-0.0565 0.04358304,0.03924418 22.104523 0 0 -0.0478,-0.0104 0.04358304,0.03924418 22.104523 0 0 -0.004,0.002 0.04358304,0.03924418 22.104523 0 0 -0.006,0.003 0.04358304,0.03924418 22.104523 0 0 -0.003,0.003 0.04358304,0.03924418 22.104523 0 0 -0.0109,0.0181 0.04464042,0.04019629 22.104516 0 0 -0.005,-0.009 0.04464042,0.04019629 22.104516 0 0 -0.0412,-0.0212 z m -3.15078,0.0145 a 0.04343637,0.03911211 22.104524 0 0 -0.0226,0.006 0.04343637,0.03911211 22.104524 0 0 -0.006,0.005 0.04343637,0.03911211 22.104524 0 0 0.003,0.0562 0.04343637,0.03911211 22.104524 0 0 0.0607,0.002 0.04343637,0.03911211 22.104524 0 0 -0.003,-0.0562 0.04343637,0.03911211 22.104524 0 0 -0.0315,-0.0124 z m 0.40244,0.078 a 0.0451295,0.04063668 22.104554 0 0 -0.004,2.6e-4 0.0451295,0.04063668 22.104554 0 0 -0.004,10e-4 0.0451295,0.04063668 22.104554 0 0 -0.0109,0.004 0.0451295,0.04063668 22.104554 0 0 -0.003,0.002 0.0451295,0.04063668 22.104554 0 0 -0.009,0.0547 0.0451295,0.04063668 22.104554 0 0 0.0249,0.0179 0.0451295,0.04063668 22.104554 0 0 0.004,0.001 0.0451295,0.04063668 22.104554 0 0 0.0327,-0.004 0.0451295,0.04063668 22.104554 0 0 0.0117,-0.0565 0.0451295,0.04063668 22.104554 0 0 -0.0427,-0.0205 z m 2.36022,0.005 a 0.04429355,0.03988396 22.104504 0 0 -0.008,0.002 0.04429355,0.03988396 22.104504 0 0 -0.004,0.001 0.04429355,0.03988396 22.104504 0 0 -0.004,0.002 0.04429355,0.03988396 22.104504 0 0 -0.002,0.001 0.04429355,0.03988396 22.104504 0 0 -3e-4,2.7e-4 0.04429355,0.03988396 22.104504 0 0 -0.006,0.005 0.04429355,0.03988396 22.104504 0 0 0.002,0.0573 0.04429355,0.03988396 22.104504 0 0 0.0109,0.008 0.04429355,0.03988396 22.104504 0 0 0.004,0.002 0.04429355,0.03988396 22.104504 0 0 0.004,0.002 0.04429355,0.03988396 22.104504 0 0 0.004,0.001 0.04429355,0.03988396 22.104504 0 0 0.0384,-0.01 0.04429355,0.03988396 22.104504 0 0 -0.002,-0.0575 0.04429355,0.03988396 22.104504 0 0 -0.0364,-0.0127 z m -4.41539,0.0438 a 0.04356564,0.03922851 22.10454 0 0 -0.0186,0.006 0.04356564,0.03922851 22.10454 0 0 -0.006,0.005 0.04356564,0.03922851 22.10454 0 0 0.003,0.0565 0.04356564,0.03922851 22.10454 0 0 0.0607,0.002 0.04356564,0.03922851 22.10454 0 0 -0.003,-0.0565 0.04356564,0.03922851 22.10454 0 0 -0.0358,-0.0124 z m 5.73414,0.0254 a 0.04460653,0.04016577 22.104526 0 0 -0.0192,0.005 0.04460653,0.04016577 22.104526 0 0 -0.003,0.002 0.04460653,0.04016577 22.104526 0 0 -0.0129,0.0469 0.04460653,0.04016577 22.104526 0 0 0.002,0.004 0.04460653,0.04016577 22.104526 0 0 0.003,0.004 0.04460653,0.04016577 22.104526 0 0 0.0286,0.0189 0.04460653,0.04016577 22.104526 0 0 0.005,8e-4 0.04460653,0.04016577 22.104526 0 0 0.009,5.3e-4 0.04460653,0.04016577 22.104526 0 0 0.0126,-0.003 0.04460653,0.04016577 22.104526 0 0 0.007,-0.003 0.04460653,0.04016577 22.104526 0 0 0.0112,-0.0557 0.04460653,0.04016577 22.104526 0 0 -0.0421,-0.0202 z m 2.60656,0.0246 a 0.04458412,0.0401456 22.104527 0 0 -0.0192,0.005 0.04458412,0.0401456 22.104527 0 0 -0.002,0.002 h -2.9e-4 a 0.04458412,0.0401456 22.104527 0 0 -0.0169,0.0264 0.04458412,0.0401456 22.104527 0 0 -3e-4,0.004 0.04458412,0.0401456 22.104527 0 0 5.9e-4,0.008 0.04458412,0.0401456 22.104527 0 0 0.001,0.004 0.04458412,0.0401456 22.104527 0 0 0.001,0.004 0.04458412,0.0401456 22.104527 0 0 0.002,0.004 0.04458412,0.0401456 22.104527 0 0 0.002,0.004 0.04458412,0.0401456 22.104527 0 0 0.005,0.007 0.04458412,0.0401456 22.104527 0 0 0.003,0.003 0.04458412,0.0401456 22.104527 0 0 0.003,0.003 0.04458412,0.0401456 22.104527 0 0 0.004,0.002 0.04458412,0.0401456 22.104527 0 0 0.045,0.001 0.04458412,0.0401456 22.104527 0 0 0.0126,-0.0554 0.04458412,0.0401456 22.104527 0 0 -0.0418,-0.021 z m -3.3301,0.002 a 0.04309838,0.03880777 22.104524 0 0 -0.0223,0.006 0.04309838,0.03880777 22.104524 0 0 -0.008,0.0547 0.04309838,0.03880777 22.104524 0 0 0.0596,0.0114 0.04309838,0.03880777 22.104524 0 0 0.008,-0.0547 0.04309838,0.03880777 22.104524 0 0 -0.0372,-0.0179 z m -1.60604,5.3e-4 a 0.045294,0.04078481 22.104504 0 0 -0.0235,0.006 h 5.8e-4 a 0.045294,0.04078481 22.104504 0 0 -0.007,0.005 0.045294,0.04078481 22.104504 0 0 0.003,0.0588 0.045294,0.04078481 22.104504 0 0 0.0633,0.002 0.045294,0.04078481 22.104504 0 0 -0.003,-0.0586 0.045294,0.04078481 22.104504 0 0 -0.0329,-0.013 z m 1.38921,0.0236 a 0.04353221,0.03919841 22.104539 0 0 -0.0223,0.007 l -2.9e-4,-2.6e-4 a 0.04353221,0.03919841 22.104539 0 0 -0.003,0.003 0.04353221,0.03919841 22.104539 0 0 -3e-4,0.056 0.04353221,0.03919841 22.104539 0 0 0.0607,0.005 0.04353221,0.03919841 22.104539 0 0 2.9e-4,-0.0562 0.04353221,0.03919841 22.104539 0 0 -0.0352,-0.014 z m 0.74731,0.044 a 0.04398938,0.03961006 22.104537 0 0 -0.0198,0.006 0.04398938,0.03961006 22.104537 0 0 -0.002,0.002 0.04398938,0.03961006 22.104537 0 0 -0.003,0.003 0.04398938,0.03961006 22.104537 0 0 0.001,0.0568 0.04398938,0.03961006 22.104537 0 0 0.0616,0.003 0.04398938,0.03961006 22.104537 0 0 -0.002,-0.057 0.04398938,0.03961006 22.104537 0 0 -0.0361,-0.013 z m -1.33364,0.0723 a 0.04398129,0.03960278 22.104528 0 0 -0.0223,0.008 l -5.9e-4,-2.6e-4 a 0.04398129,0.03960278 22.104528 0 0 -0.003,0.003 0.04398129,0.03960278 22.104528 0 0 -0.0123,0.0241 0.04398129,0.03960278 22.104528 0 0 3e-4,0.008 0.04398129,0.03960278 22.104528 0 0 0.0123,0.0246 0.04398129,0.03960278 22.104528 0 0 0.007,0.005 0.04398129,0.03960278 22.104528 0 0 0.0547,-0.001 0.04398129,0.03960278 22.104528 0 0 -5.8e-4,-0.057 0.04398129,0.03960278 22.104528 0 0 -0.0355,-0.0137 z m -2.74147,0.0132 a 0.04386748,0.0395003 22.104535 0 0 -0.0229,0.006 v 2.6e-4 a 0.04386748,0.0395003 22.104535 0 0 -0.007,0.005 0.04386748,0.0395003 22.104535 0 0 0.003,0.0567 0.04386748,0.0395003 22.104535 0 0 0.0361,0.0122 0.04386748,0.0395003 22.104535 0 0 0.0123,-0.003 0.04386748,0.0395003 22.104535 0 0 0.004,-0.002 0.04386748,0.0395003 22.104535 0 0 0.003,-0.002 0.04386748,0.0395003 22.104535 0 0 0.005,-0.004 0.04386748,0.0395003 22.104535 0 0 -0.003,-0.0567 0.04386748,0.0395003 22.104535 0 0 -0.0318,-0.0124 z m 2.94112,0.0197 a 0.04466279,0.04021643 22.104523 0 0 -0.0226,0.008 0.04466279,0.04021643 22.104523 0 0 -0.006,0.0567 0.04466279,0.04021643 22.104523 0 0 0.0619,0.0101 0.04466279,0.04021643 22.104523 0 0 0.006,-0.057 0.04466279,0.04021643 22.104523 0 0 -0.0392,-0.0174 z m -0.76507,0.0391 a 0.04325667,0.0389503 22.104531 0 0 -0.0183,0.006 0.04325667,0.0389503 22.104531 0 0 -0.006,0.005 0.04325667,0.0389503 22.104531 0 0 0.003,0.0562 0.04325667,0.0389503 22.104531 0 0 0.0358,0.0119 0.04325667,0.0389503 22.104531 0 0 0.008,-0.002 0.04325667,0.0389503 22.104531 0 0 0.004,-0.002 0.04325667,0.0389503 22.104531 0 0 0.004,-0.002 0.04325667,0.0389503 22.104531 0 0 0.009,-0.006 0.04325667,0.0389503 22.104531 0 0 -0.003,-0.056 0.04325667,0.0389503 22.104531 0 0 -0.0358,-0.0119 z m -3.76319,0.0192 a 0.04268023,0.03843125 22.104532 0 0 -0.0183,0.006 l 2.9e-4,2.6e-4 a 0.04268023,0.03843125 22.104532 0 0 -0.003,0.002 0.04268023,0.03843125 22.104532 0 0 -0.004,0.0544 0.04268023,0.03843125 22.104532 0 0 0.0596,0.008 0.04268023,0.03843125 22.104532 0 0 0.004,-0.0547 0.04268023,0.03843125 22.104532 0 0 -0.0378,-0.0156 z m 1.24428,0.0671 a 0.04282812,0.03856441 22.104532 0 0 -0.004,2.6e-4 0.04282812,0.03856441 22.104532 0 0 -0.004,5.3e-4 0.04282812,0.03856441 22.104532 0 0 -0.004,0.001 0.04282812,0.03856441 22.104532 0 0 -0.004,10e-4 0.04282812,0.03856441 22.104532 0 0 -0.006,0.003 0.04282812,0.03856441 22.104532 0 0 -0.006,0.005 0.04282812,0.03856441 22.104532 0 0 -2.9e-4,2.7e-4 0.04282812,0.03856441 22.104532 0 0 0.003,0.0555 0.04282812,0.03856441 22.104532 0 0 0.0596,0.001 0.04282812,0.03856441 22.104532 0 0 -0.003,-0.0552 0.04282812,0.03856441 22.104532 0 0 -0.0312,-0.0124 z m 2.21901,0.072 a 0.04332473,0.03901158 22.104541 0 0 -0.0186,0.005 0.04332473,0.03901158 22.104541 0 0 -0.002,0.001 h -2.9e-4 a 0.04332473,0.03901158 22.104541 0 0 -0.009,0.0526 0.04332473,0.03901158 22.104541 0 0 0.0593,0.0148 0.04332473,0.03901158 22.104541 0 0 0.0117,-0.0542 0.04332473,0.03901158 22.104541 0 0 -0.0407,-0.0199 z m 4.88973,0.0365 a 0.04442636,0.04000354 22.104514 0 0 -0.0195,0.005 0.04442636,0.04000354 22.104514 0 0 -0.002,0.002 h -3e-4 a 0.04442636,0.04000354 22.104514 0 0 -0.0152,0.0184 0.04442636,0.04000354 22.104514 0 0 -10e-4,0.004 0.04442636,0.04000354 22.104514 0 0 -5.9e-4,0.0161 0.04442636,0.04000354 22.104514 0 0 0.003,0.008 0.04442636,0.04000354 22.104514 0 0 0.004,0.008 0.04442636,0.04000354 22.104514 0 0 0.016,0.0145 0.04442636,0.04000354 22.104514 0 0 0.004,0.002 0.04442636,0.04000354 22.104514 0 0 0.008,0.003 0.04442636,0.04000354 22.104514 0 0 0.004,0.001 0.04442636,0.04000354 22.104514 0 0 0.0281,-0.005 0.04442636,0.04000354 22.104514 0 0 0.0126,-0.0554 0.04442636,0.04000354 22.104514 0 0 -0.0413,-0.0207 z m -2.12449,0.0233 a 0.04453742,0.04010354 22.104525 0 0 -0.005,2.7e-4 0.04453742,0.04010354 22.104525 0 0 -0.004,5.3e-4 0.04453742,0.04010354 22.104525 0 0 -0.0146,0.005 v -2.7e-4 a 0.04453742,0.04010354 22.104525 0 0 -0.007,0.005 0.04453742,0.04010354 22.104525 0 0 -0.003,0.003 0.04453742,0.04010354 22.104525 0 0 -0.003,0.003 0.04453742,0.04010354 22.104525 0 0 0.008,0.0516 0.04453742,0.04010354 22.104525 0 0 0.0622,0.002 0.04453742,0.04010354 22.104525 0 0 -0.003,-0.0578 0.04453742,0.04010354 22.104525 0 0 -0.0321,-0.013 z m 2.01851,0.099 a 0.04423886,0.03983471 22.104511 0 0 -0.0149,0.004 0.04423886,0.03983471 22.104511 0 0 -0.002,0.001 l -2.9e-4,5.3e-4 a 0.04423886,0.03983471 22.104511 0 0 -0.007,0.005 0.04423886,0.03983471 22.104511 0 0 -0.003,0.003 0.04423886,0.03983471 22.104511 0 0 -0.002,0.0453 0.04423886,0.03983471 22.104511 0 0 0.0117,0.0124 0.04423886,0.03983471 22.104511 0 0 0.007,0.005 0.04423886,0.03983471 22.104511 0 0 0.0215,0.005 0.04423886,0.03983471 22.104511 0 0 0.004,-2.6e-4 0.04423886,0.03983471 22.104511 0 0 0.004,-5.4e-4 0.04423886,0.03983471 22.104511 0 0 0.004,-0.001 0.04423886,0.03983471 22.104511 0 0 0.004,-0.001 0.04423886,0.03983471 22.104511 0 0 0.003,-0.001 0.04423886,0.03983471 22.104511 0 0 0.014,-0.0547 0.04423886,0.03983471 22.104511 0 0 -0.045,-0.0218 z m -0.10569,0.002 a 0.04291051,0.0386386 22.104532 0 0 -0.0149,0.004 0.04291051,0.0386386 22.104532 0 0 -0.003,0.002 l -2.9e-4,2.6e-4 a 0.04291051,0.0386386 22.104532 0 0 -0.002,0.002 0.04291051,0.0386386 22.104532 0 0 -0.0118,0.015 0.04291051,0.0386386 22.104532 0 0 -10e-4,0.004 0.04291051,0.0386386 22.104532 0 0 0.005,0.0303 0.04291051,0.0386386 22.104532 0 0 0.0152,0.0145 0.04291051,0.0386386 22.104532 0 0 0.004,0.002 0.04291051,0.0386386 22.104532 0 0 0.008,0.003 0.04291051,0.0386386 22.104532 0 0 0.004,0.001 0.04291051,0.0386386 22.104532 0 0 0.0129,5.3e-4 0.04291051,0.0386386 22.104532 0 0 0.0117,-0.003 0.04291051,0.0386386 22.104532 0 0 0.003,-0.001 0.04291051,0.0386386 22.104532 0 0 0.014,-0.0529 0.04291051,0.0386386 22.104532 0 0 -0.0435,-0.0212 z m -7.24652,0.0246 a 0.0431683,0.03887073 22.10451 0 0 -0.0221,0.008 l -2.9e-4,-2.6e-4 a 0.0431683,0.03887073 22.10451 0 0 -0.003,0.003 0.0431683,0.03887073 22.10451 0 0 2.9e-4,0.0557 0.0431683,0.03887073 22.10451 0 0 0.0223,0.0122 0.0431683,0.03887073 22.10451 0 0 0.004,8e-4 0.0431683,0.03887073 22.10451 0 0 0.0335,-0.009 0.0431683,0.03887073 22.10451 0 0 -2.9e-4,-0.0557 0.0431683,0.03887073 22.10451 0 0 -0.0352,-0.0135 z m -0.10427,0.0785 a 0.04319437,0.0388942 22.10454 0 0 -0.0223,0.006 v -2.7e-4 a 0.04319437,0.0388942 22.10454 0 0 -0.003,0.002 0.04319437,0.0388942 22.10454 0 0 -0.002,0.0557 0.04319437,0.0388942 22.10454 0 0 0.0601,0.006 0.04319437,0.0388942 22.10454 0 0 0.002,-0.0557 0.04319437,0.0388942 22.10454 0 0 -0.0344,-0.0148 z m 5.20195,0.0124 a 0.04420924,0.03980803 22.104538 0 0 -0.009,0.001 0.04420924,0.03980803 22.104538 0 0 -0.004,10e-4 0.04420924,0.03980803 22.104538 0 0 -0.003,8e-4 0.04420924,0.03980803 22.104538 0 0 -0.006,0.003 v 2.7e-4 a 0.04420924,0.03980803 22.104538 0 0 -0.0115,0.0111 0.04420924,0.03980803 22.104538 0 0 -0.002,0.003 0.04420924,0.03980803 22.104538 0 0 5.8e-4,0.0352 0.04420924,0.03980803 22.104538 0 0 0.0587,0.0218 0.04420924,0.03980803 22.104538 0 0 0.0192,-0.0529 0.04420924,0.03980803 22.104538 0 0 -0.0433,-0.0251 z m -7.60714,0.003 a 0.04436272,0.03994624 22.104546 0 0 -0.0223,0.008 l 2.9e-4,2.6e-4 a 0.04436272,0.03994624 22.104546 0 0 -0.005,0.0567 0.04436272,0.03994624 22.104546 0 0 0.0616,0.009 0.04436272,0.03994624 22.104546 0 0 0.005,-0.0565 0.04436272,0.03994624 22.104546 0 0 -0.0392,-0.0168 z m 5.3973,0.008 a 0.04524677,0.04074228 22.104509 0 0 -0.0172,0.003 0.04524677,0.04074228 22.104509 0 0 -0.004,0.002 0.04524677,0.04074228 22.104509 0 0 -0.003,0.002 0.04524677,0.04074228 22.104509 0 0 -0.003,0.002 0.04524677,0.04074228 22.104509 0 0 -0.003,0.003 0.04524677,0.04074228 22.104509 0 0 0.002,0.0586 0.04524677,0.04074228 22.104509 0 0 0.0372,0.013 0.04524677,0.04074228 22.104509 0 0 0.004,-5.3e-4 0.04524677,0.04074228 22.104509 0 0 0.0218,-0.0104 0.04524677,0.04074228 22.104509 0 0 -0.002,-0.0586 0.04524677,0.04074228 22.104509 0 0 -0.0327,-0.0132 z m -4.95705,0.0135 a 0.04488654,0.04041791 22.10452 0 0 -0.0229,0.007 h -3e-4 a 0.04488654,0.04041791 22.10452 0 0 -0.003,0.003 0.04488654,0.04041791 22.10452 0 0 -0.001,0.0578 0.04488654,0.04041791 22.10452 0 0 0.0624,0.005 0.04488654,0.04041791 22.10452 0 0 0.001,-0.058 0.04488654,0.04041791 22.10452 0 0 -0.0361,-0.0145 z m 4.39764,0.0355 a 0.0435285,0.03919507 22.104525 0 0 -0.009,0.001 0.0435285,0.03919507 22.104525 0 0 -0.004,10e-4 0.0435285,0.03919507 22.104525 0 0 -0.003,0.001 0.0435285,0.03919507 22.104525 0 0 -0.006,0.003 v 2.7e-4 a 0.0435285,0.03919507 22.104525 0 0 -0.003,0.002 0.0435285,0.03919507 22.104525 0 0 -0.003,0.003 0.0435285,0.03919507 22.104525 0 0 -0.007,0.044 0.0435285,0.03919507 22.104525 0 0 0.007,0.0101 0.0435285,0.03919507 22.104525 0 0 0.003,0.003 0.0435285,0.03919507 22.104525 0 0 0.0112,0.007 0.0435285,0.03919507 22.104525 0 0 0.004,0.002 0.0435285,0.03919507 22.104525 0 0 0.004,10e-4 0.0435285,0.03919507 22.104525 0 0 0.004,8e-4 0.0435285,0.03919507 22.104525 0 0 0.0238,-0.003 0.0435285,0.03919507 22.104525 0 0 0.0189,-0.0521 0.0435285,0.03919507 22.104525 0 0 -0.0424,-0.0244 z m -0.3907,0.003 a 0.04461328,0.04017185 22.104552 0 0 -0.009,0.001 0.04461328,0.04017185 22.104552 0 0 -0.008,0.003 0.04461328,0.04017185 22.104552 0 0 -0.003,0.002 0.04461328,0.04017185 22.104552 0 0 -0.003,0.001 l 3e-4,2.7e-4 a 0.04461328,0.04017185 22.104552 0 0 -0.009,0.008 0.04461328,0.04017185 22.104552 0 0 -0.002,0.003 0.04461328,0.04017185 22.104552 0 0 0.002,0.0428 0.04461328,0.04017185 22.104552 0 0 0.0329,0.0199 0.04461328,0.04017185 22.104552 0 0 0.005,5.3e-4 0.04461328,0.04017185 22.104552 0 0 0.004,0 0.04461328,0.04017185 22.104552 0 0 0.0166,-0.004 0.04461328,0.04017185 22.104552 0 0 0.003,-0.002 0.04461328,0.04017185 22.104552 0 0 0.012,-0.0557 0.04461328,0.04017185 22.104552 0 0 -0.0418,-0.0205 z m 0.65479,0.0163 a 0.04375046,0.03939493 22.104553 0 0 -0.0266,0.008 0.04375046,0.03939493 22.104553 0 0 -0.0149,0.0267 0.04375046,0.03939493 22.104553 0 0 0,0.004 0.04375046,0.03939493 22.104553 0 0 0.0106,0.0249 0.04375046,0.03939493 22.104553 0 0 0.0387,0.0163 0.04375046,0.03939493 22.104553 0 0 0.004,-5.3e-4 0.04375046,0.03939493 22.104553 0 0 0.0181,-0.007 0.04375046,0.03939493 22.104553 0 0 0.0106,-0.0119 0.04375046,0.03939493 22.104553 0 0 -0.006,-0.044 0.04375046,0.03939493 22.104553 0 0 -0.0344,-0.0163 z m -2.36366,8e-4 a 0.04371694,0.03936475 22.104524 0 0 -0.0189,0.005 0.04371694,0.03936475 22.104524 0 0 -0.002,0.001 0.04371694,0.03936475 22.104524 0 0 -0.01,0.0531 0.04371694,0.03936475 22.104524 0 0 0.0599,0.0153 0.04371694,0.03936475 22.104524 0 0 0.012,-0.0547 0.04371694,0.03936475 22.104524 0 0 -0.041,-0.0202 z m 7.79218,0.0632 a 0.04290401,0.03863275 22.10452 0 0 -0.0223,0.006 0.04290401,0.03863275 22.10452 0 0 -0.003,0.002 0.04290401,0.03863275 22.10452 0 0 -0.006,0.005 0.04290401,0.03863275 22.10452 0 0 -0.002,0.003 0.04290401,0.03863275 22.10452 0 0 -0.005,0.0262 0.04290401,0.03863275 22.10452 0 0 8.8e-4,0.004 0.04290401,0.03863275 22.10452 0 0 0.008,0.0143 0.04290401,0.03863275 22.10452 0 0 0.002,0.002 0.04290401,0.03863275 22.10452 0 0 0.003,0.003 0.04290401,0.03863275 22.10452 0 0 0.0567,0.004 0.04290401,0.03863275 22.10452 0 0 0.003,-0.0552 0.04290401,0.03863275 22.10452 0 0 -0.0344,-0.015 z m -8.07489,0.0466 a 0.04344308,0.03911815 22.104547 0 0 -0.0192,0.005 0.04344308,0.03911815 22.104547 0 0 -0.002,0.001 h -3e-4 a 0.04344308,0.03911815 22.104547 0 0 -0.0114,0.0523 0.04344308,0.03911815 22.104547 0 0 0.0401,0.0212 0.04344308,0.03911815 22.104547 0 0 0.004,-2.7e-4 0.04344308,0.03911815 22.104547 0 0 0.004,-5.3e-4 0.04344308,0.03911815 22.104547 0 0 0.004,-0.001 0.04344308,0.03911815 22.104547 0 0 0.007,-0.003 0.04344308,0.03911815 22.104547 0 0 0.0138,-0.0539 0.04344308,0.03911815 22.104547 0 0 -0.0398,-0.0212 z m 1.71059,0.006 a 0.04478165,0.04032347 22.104532 0 0 -0.0129,0.002 0.04478165,0.04032347 22.104532 0 0 -0.004,10e-4 0.04478165,0.04032347 22.104532 0 0 -0.007,0.004 0.04478165,0.04032347 22.104532 0 0 -0.002,0.002 0.04478165,0.04032347 22.104532 0 0 -2.9e-4,0 0.04478165,0.04032347 22.104532 0 0 -0.003,0.002 0.04478165,0.04032347 22.104532 0 0 0.002,0.058 0.04478165,0.04032347 22.104532 0 0 0.0625,0.003 0.04478165,0.04032347 22.104532 0 0 -0.002,-0.0581 0.04478165,0.04032347 22.104532 0 0 -0.0321,-0.0135 z m -1.58227,0.0114 a 0.04330894,0.03899736 22.104549 0 0 -0.0149,0.003 0.04330894,0.03899736 22.104549 0 0 -0.006,0.003 v 2.7e-4 a 0.04330894,0.03899736 22.104549 0 0 -0.009,0.008 0.04330894,0.03899736 22.104549 0 0 -0.002,0.003 0.04330894,0.03899736 22.104549 0 0 0,0.0381 0.04330894,0.03899736 22.104549 0 0 0.0579,0.0197 0.04330894,0.03899736 22.104549 0 0 0.0172,-0.0523 0.04330894,0.03899736 22.104549 0 0 -0.043,-0.0233 z m 1.73322,0.005 a 0.04293239,0.0386583 22.10453 0 0 -0.008,0.001 0.04293239,0.0386583 22.10453 0 0 -0.004,10e-4 0.04293239,0.0386583 22.10453 0 0 -0.006,0.003 0.04293239,0.0386583 22.10453 0 0 -0.002,0.001 0.04293239,0.0386583 22.10453 0 0 -0.009,0.0523 0.04293239,0.0386583 22.10453 0 0 0.0157,0.0137 0.04293239,0.0386583 22.10453 0 0 0.004,0.002 0.04293239,0.0386583 22.10453 0 0 0.004,0.002 0.04293239,0.0386583 22.10453 0 0 0.004,0.001 0.04293239,0.0386583 22.10453 0 0 0.0312,-0.004 0.04293239,0.0386583 22.10453 0 0 0.0109,-0.0539 0.04293239,0.0386583 22.10453 0 0 -0.0407,-0.0192 z m -1.94031,0.0583 a 0.0434643,0.03913726 22.104524 0 0 -0.0224,0.008 0.0434643,0.03913726 22.104524 0 0 -0.005,0.0554 0.0434643,0.03913726 22.104524 0 0 0.0604,0.009 0.0434643,0.03913726 22.104524 0 0 0.005,-0.0557 0.0434643,0.03913726 22.104524 0 0 -0.0381,-0.0163 z m 1.49662,0.034 a 0.04328775,0.03897828 22.104531 0 0 -0.0189,0.005 0.04328775,0.03897828 22.104531 0 0 -0.002,0.002 h -3e-4 a 0.04328775,0.03897828 22.104531 0 0 -0.009,0.0526 0.04328775,0.03897828 22.104531 0 0 0.0593,0.0143 0.04328775,0.03897828 22.104531 0 0 0.0112,-0.0542 0.04328775,0.03897828 22.104531 0 0 -0.0407,-0.0197 z m 1.07843,0.0122 a 0.04514375,0.04064951 22.104535 0 0 -0.0198,0.005 0.04514375,0.04064951 22.104535 0 0 -0.002,0.001 l -3e-4,2.6e-4 a 0.04514375,0.04064951 22.104535 0 0 -0.0114,0.0547 0.04514375,0.04064951 22.104535 0 0 0.0613,0.0168 0.04514375,0.04064951 22.104535 0 0 0.014,-0.0557 0.04514375,0.04064951 22.104535 0 0 -0.0415,-0.022 z m -0.89196,0.0104 a 0.04345105,0.03912533 22.104538 0 0 -0.0238,0.006 l -3e-4,2.7e-4 a 0.04345105,0.03912533 22.104538 0 0 -0.002,10e-4 0.04345105,0.03912533 22.104538 0 0 -0.004,0.056 0.04345105,0.03912533 22.104538 0 0 0.0604,0.008 0.04345105,0.03912533 22.104538 0 0 0.004,-0.0557 0.04345105,0.03912533 22.104538 0 0 -0.0344,-0.0158 z m 3.46787,0.006 a 0.04483287,0.04036958 22.104543 0 0 -0.0198,0.004 0.04483287,0.04036958 22.104543 0 0 -0.003,0.002 v 2.6e-4 h -2.9e-4 a 0.04483287,0.04036958 22.104543 0 0 -0.002,0.002 0.04483287,0.04036958 22.104543 0 0 -0.009,0.0513 0.04483287,0.04036958 22.104543 0 0 0.0604,0.0187 0.04483287,0.04036958 22.104543 0 0 0.0158,-0.0549 0.04483287,0.04036958 22.104543 0 0 -0.041,-0.0231 z m -2.7366,0.0256 a 0.04512524,0.04063285 22.104534 0 0 -0.0158,0.003 0.04512524,0.04063285 22.104534 0 0 -0.006,0.004 v -2.6e-4 a 0.04512524,0.04063285 22.104534 0 0 -0.0132,0.0508 0.04512524,0.04063285 22.104534 0 0 0.0601,0.022 0.04512524,0.04063285 22.104534 0 0 0.0192,-0.0542 0.04512524,0.04063285 22.104534 0 0 -0.0441,-0.0251 z m -2.69106,0.004 a 0.04334072,0.03902598 22.104558 0 0 -0.0183,0.006 0.04334072,0.03902598 22.104558 0 0 -0.008,0.0549 0.04334072,0.03902598 22.104558 0 0 0.003,0.003 0.04334072,0.03902598 22.104558 0 0 0.003,0.003 0.04334072,0.03902598 22.104558 0 0 0.007,0.005 0.04334072,0.03902598 22.104558 0 0 0.004,0.002 0.04334072,0.03902598 22.104558 0 0 0.0252,0.004 0.04334072,0.03902598 22.104558 0 0 0.004,-7.9e-4 0.04334072,0.03902598 22.104558 0 0 0.014,-0.005 0.04334072,0.03902598 22.104558 0 0 0.006,-0.005 0.04334072,0.03902598 22.104558 0 0 0.005,-0.006 0.04334072,0.03902598 22.104558 0 0 -0.003,-0.0438 0.04334072,0.03902598 22.104558 0 0 -0.0415,-0.0179 z m -2.3946,0.0161 a 0.04278463,0.03852525 22.104535 0 0 -0.018,0.006 0.04278463,0.03852525 22.104535 0 0 -0.002,0.002 h -2.9e-4 a 0.04278463,0.03852525 22.104535 0 0 -0.007,0.0521 0.04278463,0.03852525 22.104535 0 0 0.059,0.0132 0.04278463,0.03852525 22.104535 0 0 0.01,-0.0539 0.04278463,0.03852525 22.104535 0 0 -0.0407,-0.0187 z m 4.07913,0.0775 a 0.04512351,0.04063129 22.104536 0 0 -0.0232,0.007 v 2.7e-4 a 0.04512351,0.04063129 22.104536 0 0 -0.007,0.0573 0.04512351,0.04063129 22.104536 0 0 0.0349,0.0179 0.04512351,0.04063129 22.104536 0 0 0.004,2.7e-4 0.04512351,0.04063129 22.104536 0 0 0.0232,-0.007 0.04512351,0.04063129 22.104536 0 0 0.007,-0.0573 0.04512351,0.04063129 22.104536 0 0 -0.0392,-0.0181 z m 0.0567,0.0705 a 0.0446612,0.040215 22.104528 0 0 -0.0189,0.006 0.0446612,0.040215 22.104528 0 0 -0.003,0.002 0.0446612,0.040215 22.104528 0 0 -0.006,0.005 0.0446612,0.040215 22.104528 0 0 -0.003,0.003 0.0446612,0.040215 22.104528 0 0 10e-4,0.0461 0.0446612,0.040215 22.104528 0 0 0.0206,0.0158 0.0446612,0.040215 22.104528 0 0 0.004,0.002 0.0446612,0.040215 22.104528 0 0 0.0364,-0.004 0.0446612,0.040215 22.104528 0 0 0.0103,-0.0562 0.0446612,0.040215 22.104528 0 0 -0.0424,-0.0194 z m -0.0922,0.0122 a 0.04413424,0.0397405 22.104548 0 0 -0.0189,0.005 0.04413424,0.0397405 22.104548 0 0 -0.002,0.002 h -2.9e-4 a 0.04413424,0.0397405 22.104548 0 0 -0.009,0.008 0.04413424,0.0397405 22.104548 0 0 -0.004,0.007 0.04413424,0.0397405 22.104548 0 0 -0.001,0.004 0.04413424,0.0397405 22.104548 0 0 -0.001,0.004 0.04413424,0.0397405 22.104548 0 0 0.007,0.0314 0.04413424,0.0397405 22.104548 0 0 0.0415,0.0197 0.04413424,0.0397405 22.104548 0 0 0.009,-10e-4 0.04413424,0.0397405 22.104548 0 0 0.0103,-0.004 0.04413424,0.0397405 22.104548 0 0 0.016,-0.0176 0.04413424,0.0397405 22.104548 0 0 0.002,-0.0238 0.04413424,0.0397405 22.104548 0 0 -0.001,-0.004 0.04413424,0.0397405 22.104548 0 0 -10e-4,-0.004 0.04413424,0.0397405 22.104548 0 0 -0.002,-0.004 0.04413424,0.0397405 22.104548 0 0 -0.001,-0.003 0.04413424,0.0397405 22.104548 0 0 -0.0418,-0.0197 z m -4.10719,0.002 a 0.04459996,0.04015986 22.10454 0 0 -0.0155,0.004 0.04459996,0.04015986 22.10454 0 0 -0.006,0.003 0.04459996,0.04015986 22.10454 0 0 -0.0109,0.0508 0.04459996,0.04015986 22.10454 0 0 0.0447,0.0236 0.04459996,0.04015986 22.10454 0 0 0.004,-5.3e-4 0.04459996,0.04015986 22.10454 0 0 0.0109,-0.003 0.04459996,0.04015986 22.10454 0 0 0.0169,-0.0542 0.04459996,0.04015986 22.10454 0 0 -0.0444,-0.0236 z m 2.42094,0.0262 a 0.04521276,0.04071166 22.104511 0 0 -0.0275,0.008 v 2.6e-4 a 0.04521276,0.04071166 22.104511 0 0 -0.009,0.009 0.04521276,0.04071166 22.104511 0 0 -0.004,0.007 0.04521276,0.04071166 22.104511 0 0 -0.001,0.004 0.04521276,0.04071166 22.104511 0 0 -0.001,0.004 0.04521276,0.04071166 22.104511 0 0 0.0103,0.0342 0.04521276,0.04071166 22.104511 0 0 0.0441,0.0163 0.04521276,0.04071166 22.104511 0 0 0.004,-0.001 0.04521276,0.04071166 22.104511 0 0 0.0143,-0.007 0.04521276,0.04071166 22.104511 0 0 0.005,-0.0578 0.04521276,0.04071166 22.104511 0 0 -0.0355,-0.0168 z m 1.8899,0.009 a 0.04336654,0.03904923 22.10453 0 0 -0.0229,0.005 0.04336654,0.03904923 22.10453 0 0 -0.002,0.002 0.04336654,0.03904923 22.10453 0 0 -0.003,0.002 0.04336654,0.03904923 22.10453 0 0 -0.003,0.003 0.04336654,0.03904923 22.10453 0 0 -0.005,0.006 0.04336654,0.03904923 22.10453 0 0 -0.002,0.003 0.04336654,0.03904923 22.10453 0 0 0.004,0.0381 0.04336654,0.03904923 22.10453 0 0 0.003,0.003 0.04336654,0.03904923 22.10453 0 0 0.003,0.003 0.04336654,0.03904923 22.10453 0 0 0.003,0.003 0.04336654,0.03904923 22.10453 0 0 0.007,0.005 0.04336654,0.03904923 22.10453 0 0 0.0438,0 0.04336654,0.03904923 22.10453 0 0 0.0109,-0.0541 0.04336654,0.03904923 22.10453 0 0 -0.0367,-0.0197 z m -0.28529,0.10002 a 0.04396562,0.03958867 22.104508 0 0 -0.0229,0.006 0.04396562,0.03958867 22.104508 0 0 -0.009,0.0554 0.04396562,0.03958867 22.104508 0 0 0.0249,0.0169 0.04399993,0.03961956 22.104539 0 0 0.007,0.0236 0.04399993,0.03961956 22.104539 0 0 0.045,0.021 0.04399993,0.03961956 22.104539 0 0 0.004,-8e-4 0.04399993,0.03961956 22.104539 0 0 0.0106,-0.004 0.04399993,0.03961956 22.104539 0 0 0.0135,-0.0544 0.04399993,0.03961956 22.104539 0 0 -0.012,-0.0122 0.04399993,0.03961956 22.104539 0 0 -0.003,-0.003 0.04399993,0.03961956 22.104539 0 0 -0.0112,-0.005 0.04396562,0.03958867 22.104508 0 0 -0.008,-0.0254 0.04396562,0.03958867 22.104508 0 0 -0.0375,-0.0192 z m 5.62702,0.002 a 0.04402118,0.0396387 22.104531 0 0 -0.008,8e-4 0.04402118,0.0396387 22.104531 0 0 -0.004,0.001 0.04402118,0.0396387 22.104531 0 0 -0.01,0.005 0.04402118,0.0396387 22.104531 0 0 -0.003,0.002 0.04402118,0.0396387 22.104531 0 0 -0.002,0.0568 0.04402118,0.0396387 22.104531 0 0 0.003,0.003 0.04402118,0.0396387 22.104531 0 0 0.0278,0.0117 0.04402118,0.0396387 22.104531 0 0 0.005,2.7e-4 0.04402118,0.0396387 22.104531 0 0 0.0261,-0.009 0.04402118,0.0396387 22.104531 0 0 0.002,-0.0565 0.04402118,0.0396387 22.104531 0 0 -0.0355,-0.015 z m -5.80948,0.16584 a 0.0442948,0.03988508 22.104533 0 0 -0.02,0.006 v 2.7e-4 a 0.0442948,0.03988508 22.104533 0 0 -0.002,0.002 0.0442948,0.03988508 22.104533 0 0 -0.003,0.003 0.0442948,0.03988508 22.104533 0 0 -0.009,0.0407 0.0442948,0.03988508 22.104533 0 0 0.002,0.004 0.0442948,0.03988508 22.104533 0 0 0.01,0.0127 0.0442948,0.03988508 22.104533 0 0 0.0616,0.002 0.0442948,0.03988508 22.104533 0 0 -0.002,-0.0573 0.0442948,0.03988508 22.104533 0 0 -0.0364,-0.013 z m 5.34889,0.0399 a 0.04292307,0.03864991 22.10453 0 0 -0.0195,0.006 0.04292307,0.03864991 22.10453 0 0 -0.003,0.002 h -2.9e-4 a 0.04292307,0.03864991 22.10453 0 0 -0.003,0.002 0.04292307,0.03864991 22.10453 0 0 -0.0123,0.0277 0.04292307,0.03864991 22.10453 0 0 2.9e-4,0.004 0.04292307,0.03864991 22.10453 0 0 0.0126,0.0238 0.04292307,0.03864991 22.10453 0 0 0.0596,0.004 0.04292307,0.03864991 22.10453 0 0 -2.9e-4,-0.0555 0.04292307,0.03864991 22.10453 0 0 -0.035,-0.0132 z m -7.18637,0.0148 a 0.04312281,0.03882977 22.104543 0 0 -0.0189,0.004 0.04312281,0.03882977 22.104543 0 0 -0.006,0.003 0.04312281,0.03882977 22.104543 0 0 -0.012,0.0153 0.04312281,0.03882977 22.104543 0 0 -0.001,0.004 0.04312281,0.03882977 22.104543 0 0 0.005,0.0306 0.04312281,0.03882977 22.104543 0 0 0.008,0.01 0.04312281,0.03882977 22.104543 0 0 0.003,0.003 0.04312281,0.03882977 22.104543 0 0 0.047,0.005 0.04312281,0.03882977 22.104543 0 0 0.0146,-0.0531 0.04312281,0.03882977 22.104543 0 0 -0.0398,-0.0215 z m -0.5004,0.0166 a 0.04288109,0.0386121 22.104541 0 0 -0.0223,0.006 0.04288109,0.0386121 22.104541 0 0 -0.002,0.002 h -2.9e-4 a 0.04288109,0.0386121 22.104541 0 0 -0.007,0.0526 0.04288109,0.0386121 22.104541 0 0 0.059,0.013 0.04288109,0.0386121 22.104541 0 0 0.01,-0.0539 0.04288109,0.0386121 22.104541 0 0 -0.0367,-0.0189 z m 0.42965,0.0293 a 0.04397083,0.03959337 22.104519 0 0 -0.0126,0.002 0.04397083,0.03959337 22.104519 0 0 -0.004,0.001 0.04397083,0.03959337 22.104519 0 0 -0.006,0.003 l -5.9e-4,5.3e-4 a 0.04397083,0.03959337 22.104519 0 0 -0.003,0.002 0.04397083,0.03959337 22.104519 0 0 -0.0132,0.0319 0.04397083,0.03959337 22.104519 0 0 5.9e-4,0.004 0.04397083,0.03959337 22.104519 0 0 0.0114,0.0207 0.04397083,0.03959337 22.104519 0 0 0.0613,0.005 0.04397083,0.03959337 22.104519 0 0 0.001,-0.0568 0.04397083,0.03959337 22.104519 0 0 -0.0355,-0.0145 z m 1.81829,0.0578 a 0.04363866,0.03929426 22.104519 0 0 -0.0149,0.004 0.04363866,0.03929426 22.104519 0 0 -0.006,0.003 v 2.7e-4 a 0.04363866,0.03929426 22.104519 0 0 -0.0106,0.0117 0.04363866,0.03929426 22.104519 0 0 -0.002,0.003 0.04363866,0.03929426 22.104519 0 0 -0.003,0.0156 0.04363866,0.03929426 22.104519 0 0 5.8e-4,0.004 0.04363866,0.03929426 22.104519 0 0 5.9e-4,0.004 0.04363866,0.03929426 22.104519 0 0 0.001,0.004 0.04363866,0.03929426 22.104519 0 0 0.003,0.007 0.04363866,0.03929426 22.104519 0 0 0.0114,0.0127 0.04363866,0.03929426 22.104519 0 0 0.003,0.002 0.04363866,0.03929426 22.104519 0 0 0.0292,0.007 0.04363866,0.03929426 22.104519 0 0 0.008,-0.001 0.04363866,0.03929426 22.104519 0 0 0.007,-0.003 0.04363866,0.03929426 22.104519 0 0 0.0152,-0.0534 0.04363866,0.03929426 22.104519 0 0 -0.0441,-0.0223 z m -0.12775,0.0422 a 0.04486969,0.04040274 22.104542 0 0 -0.0238,0.006 0.04486969,0.04040274 22.104542 0 0 -0.002,0.002 h -2.9e-4 a 0.04486969,0.04040274 22.104542 0 0 -0.003,0.003 0.04486969,0.04040274 22.104542 0 0 -0.006,0.006 0.04486969,0.04040274 22.104542 0 0 -0.002,0.0425 0.04486969,0.04040274 22.104542 0 0 0.002,0.004 0.04486969,0.04040274 22.104542 0 0 0.0292,0.0192 0.04486969,0.04040274 22.104542 0 0 0.005,7.9e-4 0.04486969,0.04040274 22.104542 0 0 0.009,2.7e-4 0.04486969,0.04040274 22.104542 0 0 0.005,-5.3e-4 0.04486969,0.04040274 22.104542 0 0 0.0149,-0.005 0.04486969,0.04040274 22.104542 0 0 0.0109,-0.0562 0.04486969,0.04040274 22.104542 0 0 -0.0378,-0.0202 z m -4.3899,0.01 a 0.04529188,0.04078289 22.104527 0 0 -0.02,0.004 0.04529188,0.04078289 22.104527 0 0 -0.006,0.004 0.04529188,0.04078289 22.104527 0 0 -0.01,0.0518 0.04529188,0.04078289 22.104527 0 0 0.061,0.0194 0.04529188,0.04078289 22.104527 0 0 0.0163,-0.0554 0.04529188,0.04078289 22.104527 0 0 -0.041,-0.0236 z m 2.46334,0.002 a 0.04513487,0.04064152 22.104524 0 0 -0.009,0.001 0.04513487,0.04064152 22.104524 0 0 -0.004,0.001 0.04513487,0.04064152 22.104524 0 0 -0.007,0.003 0.04513487,0.04064152 22.104524 0 0 -0.002,0.002 h -2.9e-4 a 0.04513487,0.04064152 22.104524 0 0 -0.014,0.0148 0.04513487,0.04064152 22.104524 0 0 -0.004,0.0238 0.04513487,0.04064152 22.104524 0 0 8.8e-4,0.004 0.04513487,0.04064152 22.104524 0 0 0.005,0.0117 0.04513487,0.04064152 22.104524 0 0 0.003,0.004 0.04513487,0.04064152 22.104524 0 0 0.0587,0.0135 0.04513487,0.04064152 22.104524 0 0 0.014,-0.0557 0.04513487,0.04064152 22.104524 0 0 -0.0415,-0.022 z m 1.83977,0.0212 a 0.04412074,0.03972835 22.104521 0 0 -0.0152,0.004 0.04412074,0.03972835 22.104521 0 0 -0.004,0.002 0.04412074,0.03972835 22.104521 0 0 -0.002,0.002 h -2.9e-4 a 0.04412074,0.03972835 22.104521 0 0 -0.0103,0.0503 0.04412074,0.03972835 22.104521 0 0 0.002,0.004 0.04412074,0.03972835 22.104521 0 0 0.0418,0.0194 0.04412074,0.03972835 22.104521 0 0 0.004,-5.3e-4 0.04412074,0.03972835 22.104521 0 0 0.0109,-0.003 0.04412074,0.03972835 22.104521 0 0 0.0166,-0.0536 0.04412074,0.03972835 22.104521 0 0 -0.0441,-0.0231 z m 5.92348,0.0583 a 0.0448519,0.04038671 22.104543 0 0 -0.009,0.001 0.0448519,0.04038671 22.104543 0 0 -0.004,0.001 0.0448519,0.04038671 22.104543 0 0 -0.008,0.004 0.0448519,0.04038671 22.104543 0 0 -0.002,0.002 v 2.6e-4 a 0.0448519,0.04038671 22.104543 0 0 -0.003,0.003 0.0448519,0.04038671 22.104543 0 0 -0.0126,0.0329 0.0448519,0.04038671 22.104543 0 0 8.8e-4,0.004 0.0448519,0.04038671 22.104543 0 0 0.001,0.004 0.0448519,0.04038671 22.104543 0 0 0.002,0.004 0.0448519,0.04038671 22.104543 0 0 0.009,0.013 0.0448519,0.04038671 22.104543 0 0 0.0624,0.004 0.0448519,0.04038671 22.104543 0 0 0,-0.0581 0.0448519,0.04038671 22.104543 0 0 -0.0364,-0.0143 z m -5.86103,0.003 a 0.04455325,0.0401178 22.104541 0 0 -0.008,10e-4 0.04455325,0.0401178 22.104541 0 0 -0.004,0.001 0.04455325,0.0401178 22.104541 0 0 -0.007,0.003 0.04455325,0.0401178 22.104541 0 0 -0.002,0.002 h -5.9e-4 a 0.04455325,0.0401178 22.104541 0 0 -0.0118,0.0503 0.04455325,0.0401178 22.104541 0 0 0.002,0.004 0.04455325,0.0401178 22.104541 0 0 0.0607,0.0155 0.04455325,0.0401178 22.104541 0 0 0.0123,-0.0557 0.04455325,0.0401178 22.104541 0 0 -0.0418,-0.0205 z m 0.27068,0.0342 a 0.04315918,0.03886251 22.104513 0 0 -0.0226,0.006 l 2.9e-4,2.7e-4 a 0.04315918,0.03886251 22.104513 0 0 -0.003,0.002 0.04315918,0.03886251 22.104513 0 0 -0.003,0.003 0.04315918,0.03886251 22.104513 0 0 -3e-4,0.0529 0.04315918,0.03886251 22.104513 0 0 0.0602,0.007 0.04315918,0.03886251 22.104513 0 0 0.003,-0.0555 0.04315918,0.03886251 22.104513 0 0 -0.0344,-0.0153 z m -0.13692,0.002 a 0.0432767,0.03896834 22.10453 0 0 -0.0223,0.007 l -5.9e-4,2.6e-4 a 0.0432767,0.03896834 22.10453 0 0 -0.003,0.002 0.0432767,0.03896834 22.10453 0 0 -0.001,0.0557 0.0432767,0.03896834 22.10453 0 0 0.0604,0.005 0.0432767,0.03896834 22.10453 0 0 8.8e-4,-0.056 0.0432767,0.03896834 22.10453 0 0 -0.0347,-0.014 z m 5.4818,0.007 a 0.04344769,0.0391223 22.104506 0 0 -0.0123,0.002 0.04344769,0.0391223 22.104506 0 0 -0.004,0.001 0.04344769,0.0391223 22.104506 0 0 -0.006,0.003 l -5.9e-4,2.7e-4 a 0.04344769,0.0391223 22.104506 0 0 -0.003,0.002 0.04344769,0.0391223 22.104506 0 0 -0.001,0.056 0.04344769,0.0391223 22.104506 0 0 0.0607,0.005 0.04344769,0.0391223 22.104506 0 0 10e-4,-0.056 0.04344769,0.0391223 22.104506 0 0 -0.0352,-0.0142 z m -5.73587,0.0124 a 0.04352353,0.03919059 22.104532 0 0 -0.0226,0.006 0.04352353,0.03919059 22.104532 0 0 -0.009,0.0552 0.04352353,0.03919059 22.104532 0 0 0.0601,0.0119 0.04352353,0.03919059 22.104532 0 0 0.009,-0.0552 0.04352353,0.03919059 22.104532 0 0 -0.0375,-0.0181 z m 3.85313,0.0412 a 0.04476777,0.04031096 22.104519 0 0 -0.0152,0.004 0.04476777,0.04031096 22.104519 0 0 -0.006,0.004 0.04476777,0.04031096 22.104519 0 0 -0.003,0.002 0.04476777,0.04031096 22.104519 0 0 -0.003,0.003 0.04476777,0.04031096 22.104519 0 0 -0.003,0.003 0.04476777,0.04031096 22.104519 0 0 -0.005,0.0109 0.04476777,0.04031096 22.104519 0 0 -0.001,0.004 0.04476777,0.04031096 22.104519 0 0 0.003,0.0241 0.04476777,0.04031096 22.104519 0 0 0.002,0.004 0.04476777,0.04031096 22.104519 0 0 0.0272,0.0213 0.04476777,0.04031096 22.104519 0 0 0.004,0.001 0.04476777,0.04031096 22.104519 0 0 0.0286,-0.003 0.04476777,0.04031096 22.104519 0 0 0.0166,-0.0547 0.04476777,0.04031096 22.104519 0 0 -0.045,-0.0233 z m -3.57586,0.0295 a 0.04406297,0.03967633 22.10452 0 0 -0.0232,0.006 v 2.7e-4 a 0.04406297,0.03967633 22.10452 0 0 -0.003,0.002 0.04406297,0.03967633 22.10452 0 0 -0.012,0.0433 0.04406297,0.03967633 22.10452 0 0 0.002,0.004 0.04406297,0.03967633 22.10452 0 0 0.007,0.01 0.04406297,0.03967633 22.10452 0 0 0.0613,0.008 0.04406297,0.03967633 22.10452 0 0 0.004,-0.0565 0.04406297,0.03967633 22.10452 0 0 -0.0347,-0.0158 z m 0.16041,0.006 a 0.04429292,0.03988339 22.104498 0 0 -0.0229,0.007 0.04429292,0.03988339 22.104498 0 0 -0.003,0.003 0.04429292,0.03988339 22.104498 0 0 -0.003,0.003 0.04429292,0.03988339 22.104498 0 0 -0.005,0.0451 0.04429292,0.03988339 22.104498 0 0 0.002,0.004 0.04429292,0.03988339 22.104498 0 0 0.002,0.002 0.04429292,0.03988339 22.104498 0 0 0.003,0.003 0.04429292,0.03988339 22.104498 0 0 0.0587,0.007 0.04429292,0.03988339 22.104498 0 0 0.007,-0.0565 0.04429292,0.03988339 22.104498 0 0 -0.0387,-0.0174 z m 3.20721,0.0187 a 0.04330679,0.03899543 22.10455 0 0 -0.0223,0.007 l -2.9e-4,2.6e-4 a 0.04330679,0.03899543 22.10455 0 0 -0.003,0.002 0.04330679,0.03899543 22.10455 0 0 -0.001,0.0557 0.04330679,0.03899543 22.10455 0 0 0.018,0.0117 0.04330679,0.03899543 22.10455 0 0 0.004,0.001 0.04330679,0.03899543 22.10455 0 0 0.0384,-0.008 0.04330679,0.03899543 22.10455 0 0 10e-4,-0.0557 0.04330679,0.03899543 22.10455 0 0 -0.035,-0.0143 z m 2.58336,0.0194 a 0.04321103,0.03890921 22.104504 0 0 -0.0229,0.006 v 2.7e-4 a 0.04321103,0.03890921 22.104504 0 0 -0.003,0.002 0.04321103,0.03890921 22.104504 0 0 -0.012,0.0153 0.04321103,0.03890921 22.104504 0 0 -0.003,0.0111 0.04321103,0.03890921 22.104504 0 0 0.001,0.0119 0.04321103,0.03890921 22.104504 0 0 0.001,0.004 0.04321103,0.03890921 22.104504 0 0 0.002,0.004 0.04321103,0.03890921 22.104504 0 0 0.002,0.004 0.04321103,0.03890921 22.104504 0 0 0.004,0.006 0.04321103,0.03890921 22.104504 0 0 0.01,0.008 0.04321103,0.03890921 22.104504 0 0 0.004,0.002 0.04321103,0.03890921 22.104504 0 0 0.0467,-0.003 0.04321103,0.03890921 22.104504 0 0 0.004,-0.0554 0.04321103,0.03890921 22.104504 0 0 -0.0341,-0.0158 z m -6.242,0.0101 a 0.04475331,0.04029794 22.104532 0 0 -0.0158,0.003 0.04475331,0.04029794 22.104532 0 0 -0.006,0.003 0.04475331,0.04029794 22.104532 0 0 -0.0126,0.0503 0.04475331,0.04029794 22.104532 0 0 0.0596,0.0215 0.04475331,0.04029794 22.104532 0 0 0.0189,-0.0536 0.04475331,0.04029794 22.104532 0 0 -0.0438,-0.0249 z m 0.16843,0.008 a 0.04338072,0.039062 22.104507 0 0 -0.0209,0.007 h -2.9e-4 a 0.04338072,0.039062 22.104507 0 0 -0.0132,0.0443 0.04460582,0.04016513 22.104544 0 0 0.006,0.0386 0.04460582,0.04016513 22.104544 0 0 0.0619,0.0122 0.04460582,0.04016513 22.104544 0 0 0.007,-0.006 0.04389586,0.03952586 22.104517 0 0 0.0261,-0.009 0.04389586,0.03952586 22.104517 0 0 0.002,-0.0562 0.04389586,0.03952586 22.104517 0 0 -0.0307,-0.0148 0.04338072,0.039062 22.104507 0 0 -0.0384,-0.0163 z m 2.97835,0.33712 a 0.04388029,0.03951183 22.104512 0 0 -0.0189,0.005 0.04388029,0.03951183 22.104512 0 0 -0.002,10e-4 h -5.9e-4 a 0.04388029,0.03951183 22.104512 0 0 -0.0126,0.0492 0.04388029,0.03951183 22.104512 0 0 0.002,0.004 0.04388029,0.03951183 22.104512 0 0 0.0364,0.021 0.04388029,0.03951183 22.104512 0 0 0.004,2.7e-4 0.04388029,0.03951183 22.104512 0 0 0.0189,-0.005 0.04388029,0.03951183 22.104512 0 0 0.0135,-0.0542 0.04388029,0.03951183 22.104512 0 0 -0.0407,-0.0213 z m -4.91007,0.006 a 0.04372257,0.03936982 22.104546 0 0 -0.0229,0.006 0.04372257,0.03936982 22.104546 0 0 -0.009,0.0552 0.04372257,0.03936982 22.104546 0 0 0.0418,0.0187 0.04372257,0.03936982 22.104546 0 0 0.008,-0.002 0.04372257,0.03936982 22.104546 0 0 0.0103,-0.005 0.04372257,0.03936982 22.104546 0 0 0.009,-0.0552 0.04372257,0.03936982 22.104546 0 0 -0.0375,-0.0187 z m 2.05546,0.0303 a 0.04470057,0.04025045 22.104506 0 0 -0.0169,0.004 0.04470057,0.04025045 22.104506 0 0 -0.003,0.002 0.04470057,0.04025045 22.104506 0 0 -0.003,0.002 0.04470057,0.04025045 22.104506 0 0 -0.003,0.003 0.04470057,0.04025045 22.104506 0 0 -0.0126,0.0244 0.04470057,0.04025045 22.104506 0 0 0,0.004 0.04470057,0.04025045 22.104506 0 0 0.01,0.0259 0.04470057,0.04025045 22.104506 0 0 0.0624,0.01 0.04470057,0.04025045 22.104506 0 0 0.006,-0.0573 0.04470057,0.04025045 22.104506 0 0 -0.0392,-0.0171 z m 0.18189,0.0181 a 0.04424003,0.03983576 22.104537 0 0 -0.0209,0.006 0.04424003,0.03983576 22.104537 0 0 -0.002,0.002 h -3e-4 a 0.04424003,0.03983576 22.104537 0 0 -0.008,0.0539 0.04424003,0.03983576 22.104537 0 0 0.0246,0.0174 0.04424003,0.03983576 22.104537 0 0 0.004,0.001 0.04424003,0.03983576 22.104537 0 0 0.0135,7.9e-4 0.04443047,0.04000724 22.104533 0 0 0.059,0.0215 0.04443047,0.04000724 22.104533 0 0 0.016,-0.0119 0.04484413,0.04037972 22.104518 0 0 0.0155,0.009 0.04484413,0.04037972 22.104518 0 0 0.004,10e-4 0.04484413,0.04037972 22.104518 0 0 0.0292,-0.002 0.04484413,0.04037972 22.104518 0 0 0.018,-0.0542 0.04484413,0.04037972 22.104518 0 0 -0.0599,-0.0207 0.04484413,0.04037972 22.104518 0 0 -0.004,0.002 0.04484413,0.04037972 22.104518 0 0 -0.008,0.006 0.04431877,0.03990667 22.104525 0 0 -0.002,-0.003 0.04431877,0.03990667 22.104525 0 0 -0.051,-0.0194 0.04424003,0.03983576 22.104537 0 0 -0.0289,-0.009 z m -0.13005,0.0679 a 0.04362634,0.03928317 22.104509 0 0 -0.0192,0.004 0.04362634,0.03928317 22.104509 0 0 -0.003,0.002 0.04362634,0.03928317 22.104509 0 0 -0.002,0.002 0.04362634,0.03928317 22.104509 0 0 -0.008,0.009 0.04362634,0.03928317 22.104509 0 0 -0.002,0.003 0.04362634,0.03928317 22.104509 0 0 0.002,0.0384 0.04362634,0.03928317 22.104509 0 0 0.0444,0.0212 0.04362634,0.03928317 22.104509 0 0 0.0123,-0.003 0.04362634,0.03928317 22.104509 0 0 0.003,-0.001 0.04362634,0.03928317 22.104509 0 0 0.014,-0.0539 0.04362634,0.03928317 22.104509 0 0 -0.0401,-0.0215 z m 0.4984,0.002 a 0.04333963,0.039025 22.104527 0 0 -0.0186,0.006 0.04333963,0.039025 22.104527 0 0 -0.006,0.005 0.04333963,0.039025 22.104527 0 0 -0.0109,0.0205 0.04333963,0.039025 22.104527 0 0 -5.8e-4,0.004 0.04333963,0.039025 22.104527 0 0 0.0137,0.0316 0.04333963,0.039025 22.104527 0 0 0.0604,0.002 0.04333963,0.039025 22.104527 0 0 -0.002,-0.056 0.04333963,0.039025 22.104527 0 0 -0.0355,-0.0127 z m -0.42564,0.0552 a 0.04394267,0.039568 22.104507 0 0 -0.0192,0.004 0.04394267,0.039568 22.104507 0 0 -0.002,0.001 0.04394267,0.039568 22.104507 0 0 -0.003,0.002 0.04394267,0.039568 22.104507 0 0 -5.9e-4,5.3e-4 0.04394267,0.039568 22.104507 0 0 -0.009,0.0505 0.04394267,0.039568 22.104507 0 0 0.0596,0.0176 0.04394267,0.039568 22.104507 0 0 0.0146,-0.0539 0.04394267,0.039568 22.104507 0 0 -0.0401,-0.0223 z m 4.12982,0.006 a 0.04475579,0.04030017 22.10452 0 0 -0.0192,0.006 0.04475579,0.04030017 22.10452 0 0 -0.003,0.002 0.04475579,0.04030017 22.10452 0 0 -0.0109,0.0119 0.04475579,0.04030017 22.10452 0 0 -0.002,0.004 0.04475579,0.04030017 22.10452 0 0 -0.003,0.0117 0.04475579,0.04030017 22.10452 0 0 -3e-4,0.004 0.04475579,0.04030017 22.10452 0 0 5.9e-4,0.004 0.04475579,0.04030017 22.10452 0 0 5.9e-4,0.004 0.04475579,0.04030017 22.10452 0 0 0.007,0.0153 0.04475579,0.04030017 22.10452 0 0 0.003,0.003 0.04475579,0.04030017 22.10452 0 0 0.003,0.003 0.04475579,0.04030017 22.10452 0 0 0.0559,0.007 0.04475579,0.04030017 22.10452 0 0 0.0103,-0.056 0.04475579,0.04030017 22.10452 0 0 -0.0424,-0.0197 z m -6.92314,0.12438 a 0.04457677,0.04013898 22.104518 0 0 -0.0229,0.008 0.04457677,0.04013898 22.104518 0 0 -0.003,0.002 0.04457677,0.04013898 22.104518 0 0 3e-4,0.0578 0.04457677,0.04013898 22.104518 0 0 0.0622,0.004 0.04457677,0.04013898 22.104518 0 0 -2.9e-4,-0.0575 0.04457677,0.04013898 22.104518 0 0 -0.0361,-0.014 z m 5.19966,0.13915 a 0.04406475,0.03967793 22.104523 0 0 -0.0229,0.006 l -5.8e-4,5.3e-4 a 0.04406475,0.03967793 22.104523 0 0 -0.003,0.002 0.04406475,0.03967793 22.104523 0 0 -0.0137,0.0358 0.04406475,0.03967793 22.104523 0 0 0.001,0.004 0.04406475,0.03967793 22.104523 0 0 0.01,0.0171 0.04406475,0.03967793 22.104523 0 0 0.0395,0.0153 0.04406475,0.03967793 22.104523 0 0 0.004,-8e-4 0.04406475,0.03967793 22.104523 0 0 0.0178,-0.008 0.04406475,0.03967793 22.104523 0 0 0.003,-0.0565 0.04406475,0.03967793 22.104523 0 0 -0.0352,-0.0155 z m -2.07207,0.0179 a 0.04359108,0.03925142 22.104525 0 0 -0.0186,0.006 0.04359108,0.03925142 22.104525 0 0 -0.004,0.002 0.04359108,0.03925142 22.104525 0 0 -2.9e-4,5.3e-4 0.04359108,0.03925142 22.104525 0 0 -0.003,0.002 0.04359108,0.03925142 22.104525 0 0 0.002,0.0562 0.04359108,0.03925142 22.104525 0 0 0.0607,0.003 0.04359108,0.03925142 22.104525 0 0 -0.002,-0.0565 0.04359108,0.03925142 22.104525 0 0 -0.0355,-0.0127 z m 1.93372,0.0109 a 0.04460233,0.04016199 22.104534 0 0 -0.0232,0.006 0.04460233,0.04016199 22.104534 0 0 -0.002,0.002 h -2.9e-4 a 0.04460233,0.04016199 22.104534 0 0 -0.007,0.0547 0.04460233,0.04016199 22.104534 0 0 0.0616,0.013 0.04460233,0.04016199 22.104534 0 0 0.009,-0.056 0.04460233,0.04016199 22.104534 0 0 -0.0381,-0.0194 z m -5.25465,0.0676 a 0.04408445,0.03969567 22.104542 0 0 -0.0229,0.006 0.04408445,0.03969567 22.104542 0 0 -0.003,0.003 0.04408445,0.03969567 22.104542 0 0 -0.003,0.0565 0.04408445,0.03969567 22.104542 0 0 0.0616,0.007 0.04408445,0.03969567 22.104542 0 0 0.003,-0.0568 0.04408445,0.03969567 22.104542 0 0 -0.0352,-0.0153 z m 0.0753,0.15003 a 0.044426,0.04000321 22.104547 0 0 -0.0155,0.004 0.044426,0.04000321 22.104547 0 0 -0.006,0.004 0.044426,0.04000321 22.104547 0 0 -0.0103,0.0505 0.044426,0.04000321 22.104547 0 0 0.0149,0.0156 0.044426,0.04000321 22.104547 0 0 0.004,0.002 0.044426,0.04000321 22.104547 0 0 0.041,0.002 0.044426,0.04000321 22.104547 0 0 0.0166,-0.0542 0.044426,0.04000321 22.104547 0 0 -0.0444,-0.0233 z m -1.83576,0.0412 a 0.04522913,0.04072639 22.104542 0 0 -0.0203,0.006 l 3e-4,-5.3e-4 a 0.04522913,0.04072639 22.104542 0 0 -0.003,0.002 0.04522913,0.04072639 22.104542 0 0 -0.003,0.003 0.04522913,0.04072639 22.104542 0 0 0.002,0.0583 0.04522913,0.04072639 22.104542 0 0 0.063,0.003 0.04522913,0.04072639 22.104542 0 0 -0.002,-0.0586 0.04522913,0.04072639 22.104542 0 0 -0.037,-0.0135 z m 7.89415,0.0381 a 0.04406452,0.03967773 22.10453 0 0 -0.004,7.9e-4 0.04406452,0.03967773 22.10453 0 0 -0.004,0.001 0.04406452,0.03967773 22.10453 0 0 -0.0103,0.004 0.04406452,0.03967773 22.10453 0 0 -0.003,0.002 0.04406452,0.03967773 22.10453 0 0 -0.005,0.0536 0.04406452,0.03967773 22.10453 0 0 0.009,0.009 0.04406452,0.03967773 22.10453 0 0 0.004,0.002 0.04406452,0.03967773 22.10453 0 0 0.0292,0.007 0.04406452,0.03967773 22.10453 0 0 0.0186,-0.006 0.04406452,0.03967773 22.10453 0 0 0.0135,-0.0145 0.04406452,0.03967773 22.10453 0 0 0.004,-0.0192 0.04406452,0.03967773 22.10453 0 0 -0.009,-0.022 0.04406452,0.03967773 22.10453 0 0 -0.0421,-0.0184 z m -1.27406,0.009 a 0.04411419,0.03972245 22.104531 0 0 -0.0189,0.005 0.04411419,0.03972245 22.104531 0 0 -0.002,0.002 h -2.9e-4 a 0.04411419,0.03972245 22.104531 0 0 -0.009,0.0534 0.04411419,0.03972245 22.104531 0 0 0.0601,0.0153 0.04411419,0.03972245 22.104531 0 0 0.012,-0.0549 0.04411419,0.03972245 22.104531 0 0 -0.0412,-0.0205 z m -4.74022,0.0565 a 0.04494827,0.04047349 22.104545 0 0 -0.0169,0.004 0.04494827,0.04047349 22.104545 0 0 -0.004,0.002 0.04494827,0.04047349 22.104545 0 0 -0.002,0.001 0.04494827,0.04047349 22.104545 0 0 -0.003,0.003 0.04494827,0.04047349 22.104545 0 0 -0.003,0.003 0.04494827,0.04047349 22.104545 0 0 -2.9e-4,0.0518 0.04494827,0.04047349 22.104545 0 0 0.003,0.003 0.04494827,0.04047349 22.104545 0 0 0.003,0.003 0.04494827,0.04047349 22.104545 0 0 0.0332,0.0114 0.04494827,0.04047349 22.104545 0 0 0.004,-2.6e-4 0.04494827,0.04047349 22.104545 0 0 0.0186,-0.007 0.04494827,0.04047349 22.104545 0 0 0.007,-0.057 0.04494827,0.04047349 22.104545 0 0 -0.0393,-0.0179 z m -2.24135,0.002 a 0.04284405,0.03857876 22.104538 0 0 -0.0183,0.005 0.04284405,0.03857876 22.104538 0 0 -0.002,0.002 0.04284405,0.03857876 22.104538 0 0 -0.009,0.0521 0.04284405,0.03857876 22.104538 0 0 0.0587,0.0148 0.04284405,0.03857876 22.104538 0 0 0.0115,-0.0536 0.04284405,0.03857876 22.104538 0 0 -0.0401,-0.0197 z m 7.19954,0.0189 a 0.04362887,0.03928545 22.104537 0 0 -0.0152,0.003 0.04362887,0.03928545 22.104537 0 0 -0.006,0.003 v 2.6e-4 a 0.04362887,0.03928545 22.104537 0 0 -0.0123,0.0492 0.04362887,0.03928545 22.104537 0 0 0.0582,0.021 0.04362887,0.03928545 22.104537 0 0 0.0183,-0.0526 0.04362887,0.03928545 22.104537 0 0 -0.043,-0.0241 z m -6.78192,0.14796 a 0.04432548,0.0399127 22.104509 0 0 -0.0189,0.006 0.04432548,0.0399127 22.104509 0 0 -0.003,0.003 0.04432548,0.0399127 22.104509 0 0 -0.004,0.0567 0.04432548,0.0399127 22.104509 0 0 0.0616,0.008 0.04432548,0.0399127 22.104509 0 0 0.005,-0.0567 0.04432548,0.0399127 22.104509 0 0 -0.0395,-0.0163 z m 7.7601,0.0228 a 0.04420124,0.03980083 22.104522 0 0 -0.0195,0.004 0.04420124,0.03980083 22.104522 0 0 -0.006,0.004 0.04420124,0.03980083 22.104522 0 0 -0.009,0.0508 0.04420124,0.03980083 22.104522 0 0 0.005,0.007 0.04420124,0.03980083 22.104522 0 0 0.003,0.003 0.04420124,0.03980083 22.104522 0 0 0.003,0.003 0.04420124,0.03980083 22.104522 0 0 0.004,0.002 0.04420124,0.03980083 22.104522 0 0 0.008,0.004 0.04420124,0.03980083 22.104522 0 0 0.004,0.001 0.04420124,0.03980083 22.104522 0 0 0.0324,-0.003 0.04420124,0.03980083 22.104522 0 0 0.0146,-0.0544 0.04420124,0.03980083 22.104522 0 0 -0.0407,-0.022 z m 1.08416,0.0254 a 0.04314843,0.03885283 22.104516 0 0 -0.008,0.002 0.04314843,0.03885283 22.104516 0 0 -0.004,0.001 0.04314843,0.03885283 22.104516 0 0 -0.006,0.003 0.04314843,0.03885283 22.104516 0 0 -0.002,0.002 h -2.9e-4 a 0.04314843,0.03885283 22.104516 0 0 -0.0143,0.0228 0.04314843,0.03885283 22.104516 0 0 -2.9e-4,0.004 0.04314843,0.03885283 22.104516 0 0 0.008,0.0264 0.04314843,0.03885283 22.104516 0 0 0.0126,0.0111 0.04314843,0.03885283 22.104516 0 0 0.004,0.002 0.04314843,0.03885283 22.104516 0 0 0.0432,-10e-4 0.04314843,0.03885283 22.104516 0 0 0.009,-0.0544 0.04314843,0.03885283 22.104516 0 0 -0.0412,-0.0181 z m -8.91014,0.0412 a 0.04382977,0.03946634 22.104545 0 0 -0.0229,0.006 l -5.9e-4,-2.6e-4 a 0.04382977,0.03946634 22.104545 0 0 -0.003,0.003 0.04382977,0.03946634 22.104545 0 0 -0.003,0.0562 0.04382977,0.03946634 22.104545 0 0 0.061,0.007 0.04382977,0.03946634 22.104545 0 0 0.003,-0.0562 0.04382977,0.03946634 22.104545 0 0 -0.0347,-0.0155 z m 1.94203,0.0736 a 0.04362774,0.03928442 22.104528 0 0 -0.009,0.001 0.04362774,0.03928442 22.104528 0 0 -0.004,8e-4 0.04362774,0.03928442 22.104528 0 0 -0.008,0.003 0.04362774,0.03928442 22.104528 0 0 -0.002,10e-4 0.04362774,0.03928442 22.104528 0 0 -0.008,0.0552 0.04362774,0.03928442 22.104528 0 0 0.0601,0.0119 0.04362774,0.03928442 22.104528 0 0 0.008,-0.0552 0.04362774,0.03928442 22.104528 0 0 -0.0375,-0.0184 z m 3.90812,0.006 a 0.04343162,0.03910783 22.104523 0 0 -0.0226,0.006 0.04343162,0.03910783 22.104523 0 0 -0.003,0.003 0.04343162,0.03910783 22.104523 0 0 -0.003,0.0557 0.04343162,0.03910783 22.104523 0 0 0.0604,0.006 0.04343162,0.03910783 22.104523 0 0 0.003,-0.0557 0.04343162,0.03910783 22.104523 0 0 -0.0347,-0.0153 z m 0.0243,0.14899 a 0.04343337,0.03910941 22.104546 0 0 -0.0221,0.007 0.04343337,0.03910941 22.104546 0 0 -0.006,0.0555 0.04343337,0.03910941 22.104546 0 0 0.0602,0.009 0.04343337,0.03910941 22.104546 0 0 0.006,-0.0555 0.04343337,0.03910941 22.104546 0 0 -0.0381,-0.0166 z m 1.68911,0.02 a 0.04449968,0.04006956 22.104522 0 0 -0.0243,0.007 v -2.7e-4 a 0.04449968,0.04006956 22.104522 0 0 -0.003,0.002 0.04449968,0.04006956 22.104522 0 0 -0.003,0.002 0.04449968,0.04006956 22.104522 0 0 0.002,0.0575 0.04449968,0.04006956 22.104522 0 0 0.0622,0.002 0.04449968,0.04006956 22.104522 0 0 -0.002,-0.0575 0.04449968,0.04006956 22.104522 0 0 -0.0321,-0.013 z m -5.56401,0.0124 a 0.04319805,0.03889751 22.104528 0 0 -0.0221,0.007 h -2.9e-4 a 0.04319805,0.03889751 22.104528 0 0 -0.003,0.003 0.04319805,0.03889751 22.104528 0 0 0,0.0557 0.04319805,0.03889751 22.104528 0 0 0.0458,0.0119 0.04391599,0.03954398 22.104535 0 0 0.002,0.003 0.04391599,0.03954398 22.104535 0 0 0.0599,0.0171 0.04391599,0.03954398 22.104535 0 0 0.014,-0.0542 0.04391599,0.03954398 22.104535 0 0 -0.0536,-0.0194 0.04319805,0.03889751 22.104528 0 0 -0.008,-0.0104 0.04319805,0.03889751 22.104528 0 0 -0.035,-0.0137 z m 6.13917,2.6e-4 a 0.04367366,0.03932578 22.104528 0 0 -0.0192,0.004 0.04367366,0.03932578 22.104528 0 0 -0.006,0.003 v 2.6e-4 a 0.04367366,0.03932578 22.104528 0 0 -0.009,0.05 0.04367366,0.03932578 22.104528 0 0 0.0593,0.0176 0.04367366,0.03932578 22.104528 0 0 0.0146,-0.0539 0.04367366,0.03932578 22.104528 0 0 -0.0401,-0.0218 z m -5.94725,0.009 a 0.0428265,0.03856295 22.104525 0 0 -0.018,0.006 0.0428265,0.03856295 22.104525 0 0 -0.002,0.001 l -2.9e-4,2.7e-4 a 0.0428265,0.03856295 22.104525 0 0 -0.008,0.0521 0.0428265,0.03856295 22.104525 0 0 0.059,0.0135 0.0428265,0.03856295 22.104525 0 0 0.01,-0.0539 0.0428265,0.03856295 22.104525 0 0 -0.0407,-0.0189 z m 4.8714,0.005 a 0.04344446,0.03911939 22.104533 0 0 -0.0155,0.003 0.04344446,0.03911939 22.104533 0 0 -0.006,0.003 v 2.7e-4 a 0.04344446,0.03911939 22.104533 0 0 -0.0118,0.0492 0.04344446,0.03911939 22.104533 0 0 0.0579,0.0205 0.04344446,0.03911939 22.104533 0 0 0.018,-0.0523 0.04344446,0.03911939 22.104533 0 0 -0.0427,-0.0238 z m -5.17044,0.13734 a 0.04354503,0.03920995 22.104545 0 0 -0.0226,0.006 v -2.6e-4 a 0.04354503,0.03920995 22.104545 0 0 -0.003,0.003 0.04354503,0.03920995 22.104545 0 0 -0.002,0.056 0.04354503,0.03920995 22.104545 0 0 0.0389,0.0148 0.04354503,0.03920995 22.104545 0 0 0.004,-7.9e-4 0.04354503,0.03920995 22.104545 0 0 0.004,-8e-4 0.04354503,0.03920995 22.104545 0 0 0.004,-0.002 0.04354503,0.03920995 22.104545 0 0 0.009,-0.005 0.04354503,0.03920995 22.104545 0 0 0.002,-0.056 0.04354503,0.03920995 22.104545 0 0 -0.0347,-0.015 z m 0.17243,0.10054 a 0.04311376,0.03882162 22.104515 0 0 -0.022,0.007 h 5.8e-4 a 0.04311376,0.03882162 22.104515 0 0 -0.006,0.0549 0.04311376,0.03882162 22.104515 0 0 0.0283,0.0163 0.04420448,0.03980375 22.104551 0 0 0.004,0.007 0.04420448,0.03980375 22.104551 0 0 0.0607,0.0137 0.04420448,0.03980375 22.104551 0 0 0.0103,-0.0557 0.04420448,0.03980375 22.104551 0 0 -0.0326,-0.0189 0.04311376,0.03882162 22.104515 0 0 -0.005,-0.007 0.04311376,0.03882162 22.104515 0 0 -0.0378,-0.0171 z m 3.1041,0.0168 a 0.04446173,0.04003539 22.104522 0 0 -0.0198,0.004 0.04446173,0.04003539 22.104522 0 0 -0.006,0.003 0.04446173,0.04003539 22.104522 0 0 -0.009,0.0511 0.04446173,0.04003539 22.104522 0 0 0.0602,0.0184 0.04446173,0.04003539 22.104522 0 0 0.0155,-0.0547 0.04446173,0.04003539 22.104522 0 0 -0.0404,-0.0225 z m -0.59607,0.0231 a 0.04369573,0.03934565 22.10451 0 0 -0.0229,0.006 0.04369573,0.03934565 22.10451 0 0 -0.003,0.003 0.04369573,0.03934565 22.10451 0 0 -0.003,0.056 0.04369573,0.03934565 22.10451 0 0 0.0607,0.007 0.04369573,0.03934565 22.10451 0 0 0.003,-0.056 0.04369573,0.03934565 22.10451 0 0 -0.0347,-0.0155 z m -0.14895,0.0389 a 0.04398788,0.03960872 22.104535 0 0 -0.0192,0.005 0.04398788,0.03960872 22.104535 0 0 -0.002,0.002 h -2.9e-4 a 0.04398788,0.03960872 22.104535 0 0 -0.0103,0.0531 0.04398788,0.03960872 22.104535 0 0 0.0599,0.0161 0.04398788,0.03960872 22.104535 0 0 0.0129,-0.0544 0.04398788,0.03960872 22.104535 0 0 -0.0407,-0.0213 z m -2.07637,0.05 a 0.04453114,0.04009789 22.104546 0 0 -0.0192,0.005 0.04453114,0.04009789 22.104546 0 0 -0.002,0.002 h -2.9e-4 a 0.04453114,0.04009789 22.104546 0 0 -0.009,0.0542 0.04453114,0.04009789 22.104546 0 0 0.061,0.0148 0.04453114,0.04009789 22.104546 0 0 0.0114,-0.0557 0.04453114,0.04009789 22.104546 0 0 -0.0418,-0.0202 z m 4.26158,0.013 a 0.0428472,0.03858159 22.10454 0 0 -0.0149,0.003 0.0428472,0.03858159 22.10454 0 0 -0.006,0.003 0.0428472,0.03858159 22.10454 0 0 -0.012,0.0485 0.0428472,0.03858159 22.10454 0 0 0.0567,0.0207 0.0428472,0.03858159 22.10454 0 0 0.0183,-0.0516 0.0428472,0.03858159 22.10454 0 0 -0.0418,-0.0238 z m -4.65285,0.036 a 0.04434806,0.03993304 22.104522 0 0 -0.0232,0.006 0.04434806,0.03993304 22.104522 0 0 -0.007,0.005 0.04434806,0.03993304 22.104522 0 0 0.003,0.0573 0.04434806,0.03993304 22.104522 0 0 0.0619,0.001 0.04434806,0.03993304 22.104522 0 0 -0.003,-0.0573 0.04434806,0.03993304 22.104522 0 0 -0.0321,-0.0124 z m 2.05088,0.021 a 0.04334351,0.0390285 22.10453 0 0 -0.0186,0.006 v -2.6e-4 a 0.04334351,0.0390285 22.10453 0 0 -0.006,0.005 0.04334351,0.0390285 22.10453 0 0 0.002,0.056 0.04334351,0.0390285 22.10453 0 0 0.0604,0.002 0.04334351,0.0390285 22.10453 0 0 -0.002,-0.056 0.04334351,0.0390285 22.10453 0 0 -0.0355,-0.0127 z m -1.78535,0.0174 a 0.04376518,0.03940819 22.104518 0 0 -0.0155,0.003 0.04376518,0.03940819 22.104518 0 0 -0.006,0.003 v -2.7e-4 a 0.04376518,0.03940819 22.104518 0 0 -0.0169,0.0259 0.04376518,0.03940819 22.104518 0 0 -3e-4,0.008 0.04376518,0.03940819 22.104518 0 0 0.005,0.0158 0.04376518,0.03940819 22.104518 0 0 0.0264,0.0218 0.04436329,0.03994675 22.104545 0 0 0.008,0.0314 0.04436329,0.03994675 22.104545 0 0 0.0249,0.0174 0.04436329,0.03994675 22.104545 0 0 0.004,0.001 0.04436329,0.03994675 22.104545 0 0 0.0321,-0.005 0.04436329,0.03994675 22.104545 0 0 0.0169,-0.0236 0.04323117,0.03892734 22.104547 0 0 0.0278,-0.004 0.04323117,0.03892734 22.104547 0 0 0.0126,-0.0536 0.04323117,0.03892734 22.104547 0 0 -0.0587,-0.0158 0.04323117,0.03892734 22.104547 0 0 -0.007,0.005 0.04323117,0.03892734 22.104547 0 0 -0.003,0.003 0.04323117,0.03892734 22.104547 0 0 -0.003,0.004 0.04376518,0.03940819 22.104518 0 0 -8.8e-4,-0.004 0.04376518,0.03940819 22.104518 0 0 -0.003,-0.008 0.04376518,0.03940819 22.104518 0 0 0,-2.6e-4 0.04376518,0.03940819 22.104518 0 0 -0.043,-0.0241 z m -1.6957,0.078 a 0.04299678,0.03871628 22.104518 0 0 -0.0186,0.005 0.04299678,0.03871628 22.104518 0 0 -0.002,0.002 h -3e-4 a 0.04299678,0.03871628 22.104518 0 0 -0.009,0.0523 0.04299678,0.03871628 22.104518 0 0 0.059,0.0145 0.04299678,0.03871628 22.104518 0 0 0.0114,-0.0539 0.04299678,0.03871628 22.104518 0 0 -0.0404,-0.0197 z m 5.78771,0.0531 a 0.04367373,0.03932584 22.104533 0 0 -0.0183,0.006 0.04367373,0.03932584 22.104533 0 0 -0.009,0.0549 0.04367373,0.03932584 22.104533 0 0 0.0601,0.0124 0.04367373,0.03932584 22.104533 0 0 0.009,-0.0552 0.04367373,0.03932584 22.104533 0 0 -0.0418,-0.0184 z m -5.03753,0.0472 a 0.04478055,0.04032247 22.104551 0 0 -0.0232,0.007 v -2.6e-4 a 0.04478055,0.04032247 22.104551 0 0 -0.008,0.0567 0.04478055,0.04032247 22.104551 0 0 0.0619,0.0119 0.04478055,0.04032247 22.104551 0 0 0.008,-0.0567 0.04478055,0.04032247 22.104551 0 0 -0.0387,-0.0184 z m 1.80883,0.035 a 0.04474122,0.04028706 22.104521 0 0 -0.0232,0.007 0.04474122,0.04028706 22.104521 0 0 -0.008,0.0567 0.04474122,0.04028706 22.104521 0 0 0.0619,0.0114 0.04474122,0.04028706 22.104521 0 0 0.008,-0.0567 0.04474122,0.04028706 22.104521 0 0 -0.0387,-0.0181 z m 2.87123,0.24746 a 0.04292784,0.03865421 22.104518 0 0 -0.0183,0.006 l 2.9e-4,2.7e-4 a 0.04292784,0.03865421 22.104518 0 0 -0.003,0.002 0.04292784,0.03865421 22.104518 0 0 -0.003,0.0549 0.04292784,0.03865421 22.104518 0 0 0.0599,0.008 0.04292784,0.03865421 22.104518 0 0 0.003,-0.0552 0.04292784,0.03865421 22.104518 0 0 -0.0384,-0.0153 z m 1.22394,0.0707 a 0.04497045,0.04049347 22.104532 0 0 -0.0203,0.006 0.04497045,0.04049347 22.104532 0 0 -0.003,0.002 0.04497045,0.04049347 22.104532 0 0 -0.004,0.0575 0.04497045,0.04049347 22.104532 0 0 0.0624,0.008 0.04497045,0.04049347 22.104532 0 0 0.005,-0.0575 0.04497045,0.04049347 22.104532 0 0 -0.0398,-0.0166 z m -1.54017,0.013 a 0.04448071,0.04005248 22.104531 0 0 -0.0209,0.005 0.04448071,0.04005248 22.104531 0 0 -0.002,0.002 0.04448071,0.04005248 22.104531 0 0 -3e-4,0 0.04448071,0.04005248 22.104531 0 0 -0.006,0.005 0.04448071,0.04005248 22.104531 0 0 0.003,0.0575 0.04448071,0.04005248 22.104531 0 0 0.0622,0.002 0.04448071,0.04005248 22.104531 0 0 -0.003,-0.0578 0.04448071,0.04005248 22.104531 0 0 -0.0321,-0.0127 z m 0.56571,0.13708 a 0.04281352,0.03855126 22.104523 0 0 -0.0189,0.004 0.04281352,0.03855126 22.104523 0 0 -0.006,0.004 v -2.7e-4 a 0.04281352,0.03855126 22.104523 0 0 -0.009,0.049 0.04281352,0.03855126 22.104523 0 0 0.0576,0.0184 0.04281352,0.03855126 22.104523 0 0 0.0155,-0.0523 0.04281352,0.03855126 22.104523 0 0 -0.0387,-0.0223 z m 0.22801,0.0373 a 0.04422449,0.03982177 22.104519 0 0 -0.0229,0.007 v -2.7e-4 a 0.04422449,0.03982177 22.104519 0 0 -0.003,0.003 0.04422449,0.03982177 22.104519 0 0 -0.006,0.006 0.04422449,0.03982177 22.104519 0 0 -0.004,0.007 0.04422449,0.03982177 22.104519 0 0 -0.004,0.0153 0.04422449,0.03982177 22.104519 0 0 0,0.004 0.04422449,0.03982177 22.104519 0 0 0.0115,0.0251 0.04422449,0.03982177 22.104519 0 0 0.0103,0.008 0.04422449,0.03982177 22.104519 0 0 0.004,0.002 0.04422449,0.03982177 22.104519 0 0 0.0258,0.005 0.04422449,0.03982177 22.104519 0 0 0.0123,-0.003 0.04422449,0.03982177 22.104519 0 0 0.01,-0.006 0.04422449,0.03982177 22.104519 0 0 0.002,-0.0567 0.04422449,0.03982177 22.104519 0 0 -0.0352,-0.0153 z m -4.78089,0.0557 a 0.04451074,0.04007952 22.104551 0 0 -0.0229,0.007 0.04451074,0.04007952 22.104551 0 0 -0.003,0.002 0.04451074,0.04007952 22.104551 0 0 -2.9e-4,0 0.04451074,0.04007952 22.104551 0 0 -8.8e-4,0.0575 0.04451074,0.04007952 22.104551 0 0 0.0619,0.005 0.04451074,0.04007952 22.104551 0 0 0.001,-0.0575 0.04451074,0.04007952 22.104551 0 0 -0.0358,-0.0145 z m 3.14362,0.26146 a 0.04327758,0.03896913 22.104518 0 0 -0.0186,0.005 0.04327758,0.03896913 22.104518 0 0 -0.002,0.002 l -3e-4,-2.7e-4 a 0.04327758,0.03896913 22.104518 0 0 -0.009,0.0526 0.04327758,0.03896913 22.104518 0 0 0.0593,0.0148 0.04327758,0.03896913 22.104518 0 0 0.0114,-0.0539 0.04327758,0.03896913 22.104518 0 0 -0.0407,-0.0199 z m -3.88807,0.0238 a 0.04479112,0.04033199 22.104513 0 0 -0.0232,0.007 0.04479112,0.04033199 22.104513 0 0 -0.003,0.002 0.04479112,0.04033199 22.104513 0 0 -0.002,0.0578 0.04479112,0.04033199 22.104513 0 0 0.0624,0.006 0.04479112,0.04033199 22.104513 0 0 0.002,-0.0578 0.04479112,0.04033199 22.104513 0 0 -0.0361,-0.015 z m 2.30838,0.0137 a 0.04505498,0.04056958 22.104539 0 0 -0.0232,0.007 v -2.6e-4 a 0.04505498,0.04056958 22.104539 0 0 -0.003,0.003 0.04505498,0.04056958 22.104539 0 0 -0.003,0.003 0.04505498,0.04056958 22.104539 0 0 -0.003,0.003 0.04505498,0.04056958 22.104539 0 0 -0.001,0.0464 0.04505498,0.04056958 22.104539 0 0 0.003,0.004 0.04505498,0.04056958 22.104539 0 0 0.002,0.002 0.04505498,0.04056958 22.104539 0 0 0.0407,0.015 0.04505498,0.04056958 22.104539 0 0 0.008,-0.002 0.04505498,0.04056958 22.104539 0 0 0.014,-0.007 0.04505498,0.04056958 22.104539 0 0 0.002,-0.0581 0.04505498,0.04056958 22.104539 0 0 -0.0361,-0.0153 z m 0.9567,0.25083 a 0.04479232,0.04033307 22.104516 0 0 -0.0235,0.006 v 2.6e-4 a 0.04479232,0.04033307 22.104516 0 0 -0.007,0.005 0.04479232,0.04033307 22.104516 0 0 -0.0114,0.021 0.04479232,0.04033307 22.104516 0 0 -2.9e-4,0.004 0.04479232,0.04033307 22.104516 0 0 0.014,0.0329 0.04479232,0.04033307 22.104516 0 0 0.0367,0.0127 0.04479232,0.04033307 22.104516 0 0 0.004,-5.3e-4 0.04479232,0.04033307 22.104516 0 0 0.0215,-0.0104 0.04479232,0.04033307 22.104516 0 0 -0.002,-0.0578 0.04479232,0.04033307 22.104516 0 0 -0.0324,-0.0132 z m -1.13515,0.0241 a 0.04359955,0.03925905 22.104515 0 0 -0.0186,0.006 l -3e-4,-2.6e-4 a 0.04359955,0.03925905 22.104515 0 0 -0.003,0.002 0.04359955,0.03925905 22.104515 0 0 -0.003,0.0562 0.04359955,0.03925905 22.104515 0 0 0.0607,0.007 0.04359955,0.03925905 22.104515 0 0 0.003,-0.056 0.04359955,0.03925905 22.104515 0 0 -0.039,-0.0153 z m 0.69089,0.10106 a 0.04328229,0.03897337 22.104526 0 0 -0.0226,0.006 v 2.6e-4 a 0.04328229,0.03897337 22.104526 0 0 -0.003,0.002 0.04328229,0.03897337 22.104526 0 0 -0.0143,0.0308 0.04328229,0.03897337 22.104526 0 0 5.8e-4,0.004 0.04328229,0.03897337 22.104526 0 0 0.0103,0.0207 0.04328229,0.03897337 22.104526 0 0 0.0604,0.007 0.04328229,0.03897337 22.104526 0 0 0.003,-0.0557 0.04328229,0.03897337 22.104526 0 0 -0.0344,-0.0153 z m -0.99422,0.0389 a 0.04507887,0.04059109 22.104538 0 0 -0.0232,0.008 l 2.9e-4,2.7e-4 a 0.04507887,0.04059109 22.104538 0 0 -0.003,0.003 0.04507887,0.04059109 22.104538 0 0 5.9e-4,0.0581 0.04507887,0.04059109 22.104538 0 0 0.063,0.004 0.04507887,0.04059109 22.104538 0 0 -5.8e-4,-0.0583 0.04507887,0.04059109 22.104538 0 0 -0.0367,-0.014 z m -1.48431,0.59027 a 0.0434183,0.03909584 22.104522 0 0 -0.0186,0.005 0.0434183,0.03909584 22.104522 0 0 -0.002,0.002 h -3e-4 a 0.0434183,0.03909584 22.104522 0 0 -0.009,0.0529 0.0434183,0.03909584 22.104522 0 0 0.0596,0.0148 0.0434183,0.03909584 22.104522 0 0 0.0117,-0.0542 0.0434183,0.03909584 22.104522 0 0 -0.041,-0.0202 z"
       id="circle4859"
       inkscape:connector-curvature="0" />
    <g
       id="g5763"
       style="opacity:0.74500002;fill:#000000;fill-opacity:0.39464882"
       transform="translate(9.4494052,0.18898807)">
      <path
         inkscape:connector-curvature="0"
         id="path5647"
         style="font-style:normal;font-weight:normal;font-size:medium;line-height:1.25;font-family:sans-serif;letter-spacing:0px;word-spacing:0px;fill:#000000;fill-opacity:0.39464882;fill-rule:nonzero;stroke:#000000;stroke-width:0;stroke-linecap:round;stroke-miterlimit:4;stroke-dasharray:none;stroke-opacity:1"
         d="m 57.113226,133.10145 v 5.99963 h 1.260905 q 1.596801,0 2.335774,-0.72347 0.744141,-0.72347 0.744141,-2.2841 0,-1.55029 -0.744141,-2.26859 -0.738973,-0.72347 -2.335774,-0.72347 z m -1.043864,-0.85783 h 2.144572 q 2.242757,0 3.291788,0.93534 1.049032,0.93018 1.049032,2.91455 0,1.99471 -1.054199,2.93005 -1.0542,0.93535 -3.286621,0.93535 h -2.144572 z" />
      <path
         inkscape:connector-curvature="0"
         id="path5649"
         style="font-style:normal;font-weight:normal;font-size:medium;line-height:1.25;font-family:sans-serif;letter-spacing:0px;word-spacing:0px;fill:#000000;fill-opacity:0.39464882;fill-rule:nonzero;stroke:#000000;stroke-width:0;stroke-linecap:round;stroke-miterlimit:4;stroke-dasharray:none;stroke-opacity:1"
         d="m 65.836034,138.03775 q -0.780131,0 -1.08099,0.17841 -0.300857,0.17842 -0.300857,0.60871 0,0.34284 0.223894,0.54575 0.227393,0.1994 0.615709,0.1994 0.535247,0 0.857095,-0.37782 0.325346,-0.38132 0.325346,-1.01102 v -0.14343 z m 1.283893,-0.26588 v 2.23545 h -0.643696 v -0.59472 q -0.220396,0.35683 -0.54924,0.52825 -0.328845,0.16792 -0.80462,0.16792 -0.601716,0 -0.958547,-0.33584 -0.353333,-0.33934 -0.353333,-0.90607 0,-0.66119 0.440792,-0.99703 0.44429,-0.33585 1.322375,-0.33585 h 0.902573 v -0.063 q 0,-0.44429 -0.293861,-0.68568 -0.290363,-0.24489 -0.818613,-0.24489 -0.335842,0 -0.654191,0.0805 -0.31835,0.0805 -0.612211,0.24138 v -0.59472 q 0.353333,-0.13643 0.685676,-0.20291 0.332344,-0.07 0.647194,-0.07 0.850099,0 1.269901,0.44079 0.419801,0.4408 0.419801,1.33637 z" />
      <path
         inkscape:connector-curvature="0"
         id="path5651"
         style="font-style:normal;font-weight:normal;font-size:medium;line-height:1.25;font-family:sans-serif;letter-spacing:0px;word-spacing:0px;fill:#000000;fill-opacity:0.39464882;fill-rule:nonzero;stroke:#000000;stroke-width:0;stroke-linecap:round;stroke-miterlimit:4;stroke-dasharray:none;stroke-opacity:1"
         d="m 70.719726,136.69088 q -0.108449,-0.063 -0.237888,-0.0909 -0.12594,-0.0315 -0.279868,-0.0315 -0.545742,0 -0.839603,0.35683 -0.290362,0.35334 -0.290362,1.01802 v 2.06403 H 68.42481 v -3.91815 h 0.647195 v 0.60871 q 0.202904,-0.35683 0.52825,-0.52825 0.325346,-0.17492 0.790626,-0.17492 0.06647,0 0.146931,0.0105 0.08046,0.007 0.178415,0.0245 z" />
      <path
         inkscape:connector-curvature="0"
         id="path5653"
         style="font-style:normal;font-weight:normal;font-size:medium;line-height:1.25;font-family:sans-serif;letter-spacing:0px;word-spacing:0px;fill:#000000;fill-opacity:0.39464882;fill-rule:nonzero;stroke:#000000;stroke-width:0;stroke-linecap:round;stroke-miterlimit:4;stroke-dasharray:none;stroke-opacity:1"
         d="m 71.377415,134.56389 h 0.647195 v 3.21498 l 1.920592,-1.6897 h 0.822111 l -2.078018,1.83313 2.165477,2.08502 h -0.839603 l -1.990559,-1.9136 v 1.9136 h -0.647195 z" />
      <path
         inkscape:connector-curvature="0"
         id="path5655"
         style="font-style:normal;font-weight:normal;font-size:medium;line-height:1.25;font-family:sans-serif;letter-spacing:0px;word-spacing:0px;fill:#000000;fill-opacity:0.39464882;fill-rule:nonzero;stroke:#000000;stroke-width:0;stroke-linecap:round;stroke-miterlimit:4;stroke-dasharray:none;stroke-opacity:1"
         d="m 81.928246,132.24362 h 1.405598 l 3.42098,6.45438 v -6.45438 h 1.012858 v 7.71529 h -1.405599 l -3.420979,-6.45439 v 6.45439 h -1.012858 z" />
      <path
         inkscape:connector-curvature="0"
         id="path5657"
         style="font-style:normal;font-weight:normal;font-size:medium;line-height:1.25;font-family:sans-serif;letter-spacing:0px;word-spacing:0px;fill:#000000;fill-opacity:0.39464882;fill-rule:nonzero;stroke:#000000;stroke-width:0;stroke-linecap:round;stroke-miterlimit:4;stroke-dasharray:none;stroke-opacity:1"
         d="m 89.468575,136.09345 h 0.635039 v 3.86546 h -0.635039 z m 0,-1.50477 h 0.635039 v 0.80416 h -0.635039 z" />
      <path
         inkscape:connector-curvature="0"
         id="path5659"
         style="font-style:normal;font-weight:normal;font-size:medium;line-height:1.25;font-family:sans-serif;letter-spacing:0px;word-spacing:0px;fill:#000000;fill-opacity:0.39464882;fill-rule:nonzero;stroke:#000000;stroke-width:0;stroke-linecap:round;stroke-miterlimit:4;stroke-dasharray:none;stroke-opacity:1"
         d="m 93.972524,137.98131 q 0,-0.69026 -0.286458,-1.0699 -0.283007,-0.37965 -0.797251,-0.37965 -0.510792,0 -0.79725,0.37965 -0.283007,0.37964 -0.283007,1.0699 0,0.68681 0.283007,1.06645 0.286458,0.37964 0.79725,0.37964 0.514244,0 0.797251,-0.37964 0.286458,-0.37964 0.286458,-1.06645 z m 0.635039,1.49787 q 0,0.98707 -0.438314,1.4668 -0.438316,0.48318 -1.342557,0.48318 -0.334776,0 -0.631588,-0.0518 -0.296812,-0.0484 -0.576367,-0.15186 v -0.61779 q 0.279555,0.15186 0.552207,0.22434 0.272653,0.0725 0.55566,0.0725 0.624686,0 0.935303,-0.32787 0.310617,-0.32443 0.310617,-0.98362 v -0.31408 q -0.196724,0.34169 -0.50389,0.5108 -0.307166,0.16911 -0.735127,0.16911 -0.710968,0 -1.145832,-0.54185 -0.434864,-0.54185 -0.434864,-1.43574 0,-0.89734 0.434864,-1.4392 0.434864,-0.54185 1.145832,-0.54185 0.427961,0 0.735127,0.16912 0.307166,0.16911 0.50389,0.51079 v -0.58672 h 0.635039 z" />
      <path
         inkscape:connector-curvature="0"
         id="path5661"
         style="font-style:normal;font-weight:normal;font-size:medium;line-height:1.25;font-family:sans-serif;letter-spacing:0px;word-spacing:0px;fill:#000000;fill-opacity:0.39464882;fill-rule:nonzero;stroke:#000000;stroke-width:0;stroke-linecap:round;stroke-miterlimit:4;stroke-dasharray:none;stroke-opacity:1"
         d="m 99.128774,137.62582 v 2.33309 h -0.63504 v -2.31237 q 0,-0.54876 -0.21398,-0.82141 -0.21399,-0.27266 -0.64194,-0.27266 -0.51425,0 -0.81106,0.32787 -0.29682,0.32788 -0.29682,0.89389 v 2.18468 h -0.638485 v -5.37023 h 0.638485 v 2.1053 q 0.22779,-0.34858 0.53496,-0.52115 0.31062,-0.17257 0.71442,-0.17257 0.6661,0 1.00778,0.41416 0.34168,0.41071 0.34168,1.2114 z" />
      <path
         inkscape:connector-curvature="0"
         id="path5663"
         style="font-style:normal;font-weight:normal;font-size:medium;line-height:1.25;font-family:sans-serif;letter-spacing:0px;word-spacing:0px;fill:#000000;fill-opacity:0.39464882;fill-rule:nonzero;stroke:#000000;stroke-width:0;stroke-linecap:round;stroke-miterlimit:4;stroke-dasharray:none;stroke-opacity:1"
         d="m 101.03043,134.99594 v 1.09751 h 1.30804 v 0.49353 h -1.30804 v 2.0984 q 0,0.47282 0.1277,0.60742 0.13115,0.1346 0.52805,0.1346 h 0.65229 v 0.53151 h -0.65229 q -0.73513,0 -1.01469,-0.27266 -0.27955,-0.2761 -0.27955,-1.00087 v -2.0984 h -0.465926 v -0.49353 h 0.465926 v -1.09751 z" />
      <path
         inkscape:connector-curvature="0"
         id="path5665"
         style="font-style:normal;font-weight:normal;font-size:medium;line-height:1.25;font-family:sans-serif;letter-spacing:0px;word-spacing:0px;fill:#000000;fill-opacity:0.39464882;fill-rule:nonzero;stroke:#000000;stroke-width:0;stroke-linecap:round;stroke-miterlimit:4;stroke-dasharray:none;stroke-opacity:1"
         d="m 113.0736,132.49683 v 1.01803 q -0.59428,-0.28422 -1.12138,-0.42375 -0.5271,-0.13953 -1.01803,-0.13953 -0.85266,0 -1.31775,0.33073 -0.45992,0.33073 -0.45992,0.94051 0,0.5116 0.3049,0.77515 0.31005,0.25838 1.16788,0.41858 l 0.63046,0.12919 q 1.16788,0.22221 1.72082,0.78548 0.55811,0.55811 0.55811,1.49862 0,1.12138 -0.75448,1.70015 -0.74931,0.57878 -2.20142,0.57878 -0.54777,0 -1.16788,-0.12402 -0.61495,-0.12403 -1.27641,-0.36691 v -1.07487 q 0.63562,0.35657 1.2454,0.53744 0.60978,0.18087 1.19889,0.18087 0.89401,0 1.37976,-0.3514 0.48576,-0.3514 0.48576,-1.00253 0,-0.56844 -0.3514,-0.88883 -0.34623,-0.32039 -1.14205,-0.48059 l -0.63562,-0.12403 q -1.16788,-0.23254 -1.68982,-0.72863 -0.52193,-0.4961 -0.52193,-1.37976 0,-1.0232 0.71831,-1.61231 0.72347,-0.58911 1.98954,-0.58911 0.5426,0 1.10587,0.0982 0.56328,0.0982 1.15239,0.29455 z" />
      <path
         inkscape:connector-curvature="0"
         id="path5667"
         style="font-style:normal;font-weight:normal;font-size:medium;line-height:1.25;font-family:sans-serif;letter-spacing:0px;word-spacing:0px;fill:#000000;fill-opacity:0.39464882;fill-rule:nonzero;stroke:#000000;stroke-width:0;stroke-linecap:round;stroke-miterlimit:4;stroke-dasharray:none;stroke-opacity:1"
         d="m 115.48595,139.14492 v 2.07046 h -0.64484 v -5.38875 h 0.64484 v 0.59255 q 0.20216,-0.34856 0.5089,-0.51587 0.31022,-0.1708 0.73895,-0.1708 0.71107,0 1.15374,0.56467 0.44616,0.56467 0.44616,1.48488 0,0.92019 -0.44616,1.48486 -0.44267,0.56468 -1.15374,0.56468 -0.42873,0 -0.73895,-0.16732 -0.30674,-0.17079 -0.5089,-0.51936 z m 2.182,-1.36286 q 0,-0.70758 -0.2928,-1.10843 -0.2893,-0.40433 -0.7982,-0.40433 -0.5089,0 -0.80169,0.40433 -0.28931,0.40085 -0.28931,1.10843 0,0.70758 0.28931,1.11191 0.29279,0.40084 0.80169,0.40084 0.5089,0 0.7982,-0.40084 0.2928,-0.40433 0.2928,-1.11191 z" />
      <path
         inkscape:connector-curvature="0"
         id="path5669"
         style="font-style:normal;font-weight:normal;font-size:medium;line-height:1.25;font-family:sans-serif;letter-spacing:0px;word-spacing:0px;fill:#000000;fill-opacity:0.39464882;fill-rule:nonzero;stroke:#000000;stroke-width:0;stroke-linecap:round;stroke-miterlimit:4;stroke-dasharray:none;stroke-opacity:1"
         d="m 121.17099,137.76812 q -0.7773,0 -1.07705,0.17775 -0.29977,0.17777 -0.29977,0.6065 0,0.3416 0.22308,0.54377 0.22657,0.19867 0.61346,0.19867 0.53331,0 0.85399,-0.37645 0.32416,-0.37993 0.32416,-1.00733 v -0.14291 z m 1.27922,-0.26492 v 2.22732 h -0.64135 v -0.59256 q -0.2196,0.35553 -0.54724,0.52632 -0.32765,0.16732 -0.80169,0.16732 -0.59953,0 -0.95506,-0.33462 -0.35205,-0.33811 -0.35205,-0.90277 0,-0.65879 0.43919,-0.99341 0.44267,-0.33462 1.31756,-0.33462 h 0.89929 v -0.0627 q 0,-0.44267 -0.2928,-0.68318 -0.2893,-0.244 -0.81562,-0.244 -0.33463,0 -0.65182,0.0802 -0.31719,0.0802 -0.60998,0.24051 v -0.59256 q 0.35204,-0.13594 0.68318,-0.20216 0.33113,-0.0697 0.64484,-0.0697 0.847,0 1.26528,0.43919 0.41827,0.43919 0.41827,1.33151 z" />
      <path
         inkscape:connector-curvature="0"
         id="path5671"
         style="font-style:normal;font-weight:normal;font-size:medium;line-height:1.25;font-family:sans-serif;letter-spacing:0px;word-spacing:0px;fill:#000000;fill-opacity:0.39464882;fill-rule:nonzero;stroke:#000000;stroke-width:0;stroke-linecap:round;stroke-miterlimit:4;stroke-dasharray:none;stroke-opacity:1"
         d="m 126.58416,135.97651 v 0.59952 q -0.27189,-0.14988 -0.54725,-0.22308 -0.27187,-0.0767 -0.55073,-0.0767 -0.62392,0 -0.96899,0.39736 -0.34508,0.39388 -0.34508,1.10843 0,0.71455 0.34508,1.11191 0.34507,0.39387 0.96899,0.39387 0.27886,0 0.55073,-0.0731 0.27536,-0.0767 0.54725,-0.22657 v 0.59256 q -0.2684,0.12547 -0.55771,0.18821 -0.28581,0.0628 -0.60998,0.0628 -0.88185,0 -1.40121,-0.55422 -0.51937,-0.5542 -0.51937,-1.49532 0,-0.95507 0.52285,-1.5023 0.52633,-0.54724 1.43956,-0.54724 0.29628,0 0.57861,0.0628 0.28234,0.0593 0.54725,0.18125 z" />
      <path
         inkscape:connector-curvature="0"
         id="path5673"
         style="font-style:normal;font-weight:normal;font-size:medium;line-height:1.25;font-family:sans-serif;letter-spacing:0px;word-spacing:0px;fill:#000000;fill-opacity:0.39464882;fill-rule:nonzero;stroke:#000000;stroke-width:0;stroke-linecap:round;stroke-miterlimit:4;stroke-dasharray:none;stroke-opacity:1"
         d="m 131.04574,137.61823 v 0.31371 h -2.94883 q 0.0418,0.66227 0.39736,1.01082 0.35902,0.34508 0.99689,0.34508 0.36947,0 0.71455,-0.0907 0.34857,-0.0907 0.69015,-0.27189 v 0.6065 q -0.34507,0.1464 -0.70758,0.22309 -0.3625,0.0767 -0.73546,0.0767 -0.93415,0 -1.48139,-0.54376 -0.54375,-0.54375 -0.54375,-1.47093 0,-0.95855 0.51586,-1.51973 0.51936,-0.56467 1.39774,-0.56467 0.78774,0 1.24436,0.50891 0.4601,0.50541 0.4601,1.37681 z m -0.64135,-0.18822 q -0.007,-0.52633 -0.29628,-0.84003 -0.28582,-0.31372 -0.75986,-0.31372 -0.53679,0 -0.86095,0.30326 -0.32067,0.30324 -0.36948,0.85398 z" />
      <path
         inkscape:connector-curvature="0"
         id="path4751"
         d="M 41.809272,130.21308 H 71.476189"
         style="fill:#000000;fill-opacity:0.39464882;stroke:#000000;stroke-width:0.26499999;stroke-linecap:butt;stroke-linejoin:miter;stroke-miterlimit:4;stroke-dasharray:none;stroke-dashoffset:2.64999986;stroke-opacity:1" />
      <path
         style="fill:#000000;fill-opacity:0.39464882;stroke:#000000;stroke-width:0.26499999;stroke-linecap:butt;stroke-linejoin:miter;stroke-miterlimit:4;stroke-dasharray:none;stroke-dashoffset:2.64999986;stroke-opacity:1"
         d="m 115.76897,142.27779 h 29.66691"
         id="path4753"
         inkscape:connector-curvature="0" />
    </g>
  </g>
</svg>
