<?xml version="1.0" encoding="UTF-8" standalone="no"?>
<!-- Created with Inkscape (http://www.inkscape.org/) -->

<svg
   xmlns:dc="http://purl.org/dc/elements/1.1/"
   xmlns:cc="http://creativecommons.org/ns#"
   xmlns:rdf="http://www.w3.org/1999/02/22-rdf-syntax-ns#"
   xmlns:svg="http://www.w3.org/2000/svg"
   xmlns="http://www.w3.org/2000/svg"
   xmlns:sodipodi="http://sodipodi.sourceforge.net/DTD/sodipodi-0.dtd"
   xmlns:inkscape="http://www.inkscape.org/namespaces/inkscape"
   width="47.3041mm"
   height="60.121696mm"
   viewBox="0 0 47.3041 60.121697"
   version="1.1"
   id="svg4854"
   inkscape:version="0.92.3 (2405546, 2018-03-11)"
   sodipodi:docname="nebula.svg">
  <defs
     id="defs4848">
    <inkscape:path-effect
       effect="bspline"
       id="path-effect9337"
       is_visible="true"
       weight="33.333333"
       steps="2"
       helper_size="0"
       apply_no_weight="true"
       apply_with_weight="true"
       only_selected="false" />
    <inkscape:path-effect
       effect="bspline"
       id="path-effect9333"
       is_visible="true"
       weight="33.333333"
       steps="2"
       helper_size="0"
       apply_no_weight="true"
       apply_with_weight="true"
       only_selected="false" />
  </defs>
  <sodipodi:namedview
     id="base"
     pagecolor="#ffffff"
     bordercolor="#666666"
     borderopacity="1.0"
     inkscape:pageopacity="0.0"
     inkscape:pageshadow="2"
     inkscape:zoom="0.98994949"
     inkscape:cx="-3.2925822"
     inkscape:cy="91.154012"
     inkscape:document-units="mm"
     inkscape:current-layer="layer1"
     showgrid="false"
     inkscape:pagecheckerboard="true"
     fit-margin-top="0"
     fit-margin-left="0"
     fit-margin-right="0"
     fit-margin-bottom="0"
     showborder="false"
     inkscape:window-width="1920"
     inkscape:window-height="1027"
     inkscape:window-x="-8"
     inkscape:window-y="-8"
     inkscape:window-maximized="1" />
  <metadata
     id="metadata4851">
    <rdf:RDF>
      <cc:Work
         rdf:about="">
        <dc:format>image/svg+xml</dc:format>
        <dc:type
           rdf:resource="http://purl.org/dc/dcmitype/StillImage" />
        <dc:title />
      </cc:Work>
    </rdf:RDF>
  </metadata>
  <g
     inkscape:label="Layer 1"
     inkscape:groupmode="layer"
     id="layer1"
     transform="translate(-84.592146,-119.93527)">
    <path
       style="fill:none;stroke:#e2e2e2;stroke-width:1.00157481;stroke-linecap:round;stroke-linejoin:miter;stroke-miterlimit:4;stroke-dasharray:none;stroke-opacity:1"
       d="M 110.2793 0.49804688 C 108.93242 0.49804688 108.25872 0.49971641 107.41797 0.66601562 C 106.57718 0.83231484 105.56545 1.1675095 104.72266 1.3378906 C 103.87986 1.5083473 103.20694 1.5085994 102.86523 1.671875 C 102.52357 1.8351506 102.52411 2.1730353 102.19336 2.5117188 C 101.86265 2.8503644 101.1896 3.1860581 100.68359 3.3574219 C 100.17759 3.5286345 99.839383 3.5300838 99.666016 3.6933594 C 99.492535 3.856635 99.493687 4.1918674 99.162109 4.3652344 C 98.830267 4.5387147 98.15616 4.5395158 97.814453 4.8710938 C 97.472784 5.2029363 97.473898 5.8770429 97.310547 6.21875 C 97.147271 6.5604193 96.810086 6.5605469 96.636719 6.5605469 C 96.463238 6.5605469 97.473249 5.5494894 97.142578 5.7148438 C 96.811869 5.8800091 96.13731 6.2173081 95.462891 6.3886719 C 94.788434 6.5598845 94.115145 6.5593807 93.773438 6.7226562 C 93.431768 6.8859318 93.432845 7.2231174 93.269531 7.3964844 C 93.106256 7.5699647 92.768371 7.5698331 92.429688 7.9003906 C 92.091042 8.2310993 91.754561 8.9041531 91.419922 9.4101562 C 91.085434 9.9161594 90.749539 10.253201 90.576172 10.589844 C 90.402692 10.9266 90.402709 11.264133 89.734375 11.4375 C 89.065928 11.61098 87.719012 11.610667 86.373047 11.777344 L 86.373047 11.779297 C 85.027082 11.946352 83.681355 12.28132 82.501953 12.451172 C 81.322552 12.620873 80.312088 12.621094 78.796875 12.621094 L 73.914062 12.621094 C 72.56719 12.621094 71.895072 12.621566 71.222656 12.787109 C 70.550278 12.952275 69.875917 13.289581 69.861328 13.296875 C 69.84621 13.304434 70.520449 12.967777 69.310547 13.486328 C 68.100645 14.004879 65.168172 15.307084 63.3125 15.984375 C 61.456865 16.661666 60.782811 16.662411 60.109375 16.994141 C 59.435939 17.325983 58.762909 18.00009 58.257812 18.341797 C 57.752724 18.683466 57.415547 18.683449 57.242188 19.183594 C 57.068821 19.683663 57.068359 20.693754 57.068359 23.050781 L 57.068359 31.130859 L 57.068359 33.824219 C 57.068359 34.160975 57.067686 34.498508 56.904297 34.671875 C 56.740908 34.845355 56.405777 34.844537 56.232422 35.007812 C 56.059055 35.171088 56.058273 35.508311 55.726562 35.681641 C 55.394833 35.855121 54.720625 35.856256 54.378906 36.019531 C 54.037199 36.183185 54.0378 36.518701 53.707031 36.857422 C 53.376285 37.196068 52.704037 37.532359 52.361328 37.867188 C 52.018601 38.202054 52.01725 38.539524 51.685547 38.712891 C 51.353818 38.886371 50.680908 38.885553 50.175781 39.048828 C 49.670651 39.212104 49.334754 39.549327 48.998047 39.722656 C 48.661329 39.896137 48.322997 39.895318 47.986328 40.058594 C 47.649648 40.221869 47.313663 40.559093 46.808594 40.732422 C 46.303524 40.905902 45.630777 40.907037 45.289062 41.070312 C 44.947355 41.233588 44.946562 41.570811 44.783203 41.744141 C 44.619852 41.917621 44.283935 41.916803 43.947266 42.080078 C 43.610585 42.243354 43.272254 42.580577 42.935547 42.753906 C 42.598829 42.927387 42.263207 42.926568 42.089844 43.089844 C 41.916477 43.253119 41.916665 43.590343 42.083984 44.433594 C 42.251455 45.276882 42.587081 46.62383 42.929688 47.300781 C 43.272302 47.97777 43.610079 47.977349 43.773438 48.140625 C 43.936789 48.303901 43.937129 48.640753 44.105469 48.982422 C 44.273771 49.324091 44.608981 49.660572 44.777344 49.992188 C 44.945722 50.323652 44.945774 50.660617 45.119141 50.833984 C 45.292508 51.007465 45.62961 51.007485 45.792969 51.675781 C 45.95632 52.344228 45.957031 53.691502 45.957031 54.533203 L 45.957031 56.048828 C 45.957031 56.385584 45.956729 56.723155 45.625 56.896484 C 45.293271 57.069965 44.620259 57.069146 44.115234 57.232422 C 43.610206 57.395697 43.272257 57.732883 42.935547 57.90625 C 42.598829 58.07973 42.263207 58.080122 42.089844 58.580078 C 41.916477 59.080147 41.916016 60.089496 41.916016 62.783203 L 41.916016 72.378906 L 41.916016 76.083984 C 41.916016 76.589005 41.915267 76.925038 41.751953 77.261719 C 41.58864 77.598475 41.253128 77.936008 40.748047 78.109375 C 40.242966 78.282855 39.568285 78.282037 39.226562 78.445312 C 38.884855 78.608588 38.886019 78.945811 38.722656 79.119141 C 38.559305 79.292621 38.222191 79.291803 38.048828 79.455078 C 37.875461 79.618354 37.874675 79.955577 37.542969 80.128906 C 37.21124 80.302387 36.53898 80.303521 36.197266 80.466797 C 35.855559 80.63045 35.854823 80.966628 35.689453 81.470703 C 35.524099 81.974779 35.186981 82.647847 35.015625 83.322266 C 34.844261 83.996722 34.845042 84.669381 34.679688 85.341797 C 34.514333 86.01425 34.177219 86.688453 34.005859 87.53125 C 33.834496 88.374047 33.833984 89.383596 33.833984 90.730469 L 33.833984 94.939453 L 33.833984 97.464844 C 33.833984 98.13828 33.834763 98.8114 34.339844 99.658203 C 34.844925 100.50497 35.854909 101.51566 36.527344 102.35547 C 37.199778 103.19528 37.536182 103.86835 37.878906 104.20703 C 38.221634 104.54568 38.559301 104.54544 38.722656 104.70898 C 38.886007 104.87264 38.885227 105.20948 39.058594 105.38281 C 39.231961 105.55629 39.569063 105.55743 39.732422 105.7207 C 39.895773 105.88436 39.894992 106.21925 40.068359 106.39258 C 40.241726 106.56606 40.578829 106.56719 40.742188 106.73047 C 40.905539 106.89374 40.905879 107.23056 41.074219 107.57227 C 41.242521 107.91393 41.579317 108.25001 42.253906 108.75586 C 42.928495 109.26171 43.939431 109.93635 44.443359 110.43555 C 44.947284 110.93478 44.945774 111.26999 45.119141 111.44336 C 45.292508 111.61684 45.62961 111.61797 45.792969 111.78125 C 45.95632 111.94453 45.957102 112.28171 46.298828 112.45508 C 46.640535 112.62856 47.312813 112.62774 47.644531 112.79102 C 47.97626 112.95429 47.976652 113.29148 48.318359 113.46484 C 48.660066 113.63832 49.334302 113.63751 49.666016 113.80078 C 49.997745 113.96406 49.99657 114.30124 50.169922 114.47461 C 50.343289 114.64809 50.680473 114.64844 51.185547 114.64844 C 51.690624 114.64844 52.363591 114.64922 52.695312 114.8125 C 53.027042 114.97578 53.027813 115.31101 53.201172 115.48438 C 53.374539 115.65786 53.711335 115.6582 55.226562 115.6582 L 61.455078 115.6582 C 63.475387 115.6582 64.82374 115.65786 65.492188 115.48438 C 66.160635 115.31089 66.160156 114.97578 66.160156 113.62891 C 66.160156 112.28203 66.160376 109.92384 65.992188 108.58203 C 65.823999 107.24026 65.4867 106.90417 65.318359 106.5625 C 65.149792 106.22083 65.150391 105.88356 65.150391 105.54688 L 65.150391 104.53711 L 65.150391 103.86328 C 65.150391 103.86339 65.149636 104.20035 65.488281 104.54297 C 65.826927 104.88577 66.500354 105.22188 67.173828 105.55859 C 67.847302 105.89535 68.520383 106.23345 69.361328 106.73828 C 70.202235 107.24311 71.212641 107.91659 72.224609 108.42188 C 73.236578 108.92716 74.247594 109.26203 74.917969 109.59766 C 75.588344 109.93328 75.924579 110.27167 76.431641 110.60938 C 76.938664 110.94689 77.611758 111.28242 78.285156 111.61914 C 78.958555 111.9559 79.63185 112.29414 80.474609 112.63086 C 81.317406 112.96762 82.327213 113.30391 83.167969 113.64062 C 84.008725 113.97738 84.6834 114.31311 85.191406 114.48047 C 85.699413 114.6479 86.035087 114.64773 86.535156 114.98438 C 87.035226 115.32113 87.708741 115.99528 88.21875 116.33203 C 88.728759 116.66879 89.066325 116.66861 89.568359 116.83789 C 90.070432 117.00721 90.743462 117.34436 91.419922 117.51172 C 92.096344 117.67915 92.769538 117.67947 93.269531 117.84766 C 93.769563 118.01585 94.107866 118.35314 95.123047 118.52148 C 96.13819 118.68967 97.820316 118.68945 99.503906 118.68945 C 101.1875 118.68945 102.87186 118.68923 103.87695 118.85742 C 104.88201 119.02561 105.21807 119.36148 105.89453 119.69922 C 106.57099 120.03673 107.58122 120.37366 108.76172 120.54102 C 109.94222 120.70845 111.29013 120.70876 112.12695 120.87695 C 112.96378 121.04514 113.29962 121.383 113.80664 121.7207 C 114.3137 122.05859 114.9876 122.39514 115.66406 122.5625 C 116.34048 122.72993 117.01319 122.72976 117.68164 123.06641 C 118.35009 123.40316 119.02518 124.07539 119.53516 124.41211 C 120.04517 124.74887 120.38157 124.74887 120.54492 124.91211 C 120.7082 125.07538 120.70839 125.4122 120.87695 125.75391 C 121.04552 126.09558 121.38049 126.43233 121.54883 127.4375 C 121.71702 128.44267 121.71875 130.12618 121.71875 132.14648 L 121.71875 137.87109 L 121.71875 139.89258 C 121.71875 140.22933 121.71796 140.56495 121.55469 140.73828 C 121.39141 140.91176 121.05423 140.9129 120.88086 141.07617 C 120.70738 141.23983 120.7082 141.57468 120.54492 141.74805 C 120.38165 141.92153 120.04453 141.92192 119.37109 142.42188 C 118.69766 142.92194 117.68703 143.93331 117.01367 144.44336 C 116.34031 144.95344 116.00341 144.95196 115.83008 145.11523 C 115.6566 145.27851 115.65625 145.61573 115.65625 145.78906 C 115.65625 145.96254 112.62629 148.99351 112.46094 149.32422 C 112.29539 149.65493 111.95854 150.32713 111.28711 151.16992 C 110.61568 152.01272 109.60579 153.02342 109.0957 153.86523 C 108.58562 154.70701 108.58515 155.38095 108.42188 155.72266 C 108.2586 156.06433 107.92138 156.06431 107.74805 156.56445 C 107.57457 157.06452 107.57617 158.075 107.57617 159.42188 C 107.57617 160.76875 107.57557 162.45165 107.74414 163.4668 C 107.91271 164.48198 108.24959 164.81859 108.41797 165.15039 C 108.58616 165.48223 108.58576 165.8188 108.92188 166.49609 C 109.25787 167.17335 109.93202 168.18401 110.26953 168.85352 C 110.60704 169.52302 110.60517 169.85954 110.77344 170.20117 C 110.94163 170.54284 111.27893 170.8788 111.44727 171.37891 C 111.61583 171.87901 111.61596 172.55282 111.78906 172.89453 C 111.96254 173.2362 112.2995 173.23659 112.46289 173.56836 C 112.62617 173.9002 112.62697 174.57431 112.96875 174.91602 C 113.31042 175.25768 113.98388 175.25635 114.6543 175.42578 C 115.32467 175.5951 115.997 175.93225 116.8418 176.09961 C 117.6866 176.26704 118.69686 176.26758 120.54883 176.26758 L 128.29297 176.26758 C 131.49177 176.26758 135.19689 176.2666 138.22656 176.43555 C 141.25619 176.60449 143.61249 176.94164 145.29688 177.10938 C 146.98126 177.27719 147.99219 177.27734 149.67578 177.27734 L 155.23047 177.27734 L 158.26172 177.27734 C 159.1035 177.27734 160.11321 177.27766 160.61328 176.76758 C 161.11335 176.25749 161.1131 175.24762 160.60547 173.9043 C 160.0995 172.56094 159.08953 170.87625 158.41602 169.69727 C 157.74247 168.51824 157.40642 167.8453 156.90234 167.17383 C 156.39827 166.5024 155.72539 165.82882 155.38867 165.15039 C 155.05192 164.47197 155.05152 163.79931 154.71484 163.13086 C 154.37809 162.46241 153.70391 161.78936 153.36719 160.4375 C 153.03043 159.08564 153.03072 157.06502 153.20117 155.54883 C 153.37163 154.0326 153.70866 153.02195 153.875 152.34961 C 154.0413 151.67723 154.04048 151.34043 154.21094 150.66602 C 154.38139 149.9916 154.71843 148.98147 154.88477 148.48242 C 155.05106 147.98334 156.06055 146.97257 156.06055 146.63086 C 156.06055 146.28919 156.06181 145.61601 156.40234 144.77344 C 156.74288 143.93087 157.41518 142.92147 157.74805 141.91211 C 158.08102 140.90271 158.08203 139.8922 158.08203 138.37695 L 158.08203 132.98828 C 158.08203 131.13635 158.08225 129.45431 157.91406 128.44922 C 157.74587 127.44413 157.40861 127.10616 157.24023 126.42773 C 157.07205 125.74931 157.07167 124.73914 156.90234 123.90039 C 156.73302 123.0616 156.39587 122.38777 156.22852 121.54297 C 156.06108 120.69817 156.0625 119.68908 156.0625 118.17383 C 156.0625 116.65862 156.06077 114.63827 155.89258 113.46484 C 155.72439 112.29141 155.38908 111.95419 155.2207 111.10742 C 155.05251 110.26062 155.05138 108.91288 154.88281 108.07617 C 154.71462 107.23946 154.37736 106.90378 154.20898 105.88867 C 154.0408 104.87353 154.04102 103.19034 154.04102 102.35352 C 154.04102 101.51673 155.05078 100.50532 155.05078 100.33203 C 155.05078 100.15855 155.05144 99.822447 155.22266 99.316406 C 155.39387 98.810328 155.73109 98.137349 155.89648 97.806641 C 156.06203 97.475932 158.08203 95.455026 158.08203 95.113281 C 158.08203 94.771612 158.08238 94.098733 158.25586 93.59375 C 158.42934 93.08873 158.76489 92.752135 159.09961 92.246094 C 159.43448 91.740015 159.77215 91.0665 159.9375 90.5625 C 160.10267 90.0585 160.10156 89.719992 160.10156 89.556641 C 160.10156 89.393365 161.11328 88.384676 161.11328 88.042969 L 161.11328 86.695312 C 161.11328 86.36347 162.12305 85.352663 162.12305 84.505859 L 162.12305 80.125 C 162.12305 78.273069 162.12226 76.253212 161.95898 75.248047 C 161.79571 74.242919 161.45852 74.241651 161.28516 74.068359 C 161.11168 73.894879 161.11133 73.558202 161.11133 72.884766 L 161.11133 70.701172 C 161.11133 70.201103 163.13281 68.181104 163.13281 68.007812 C 163.13281 67.834332 163.13316 67.497336 163.30664 67.333984 C 163.48012 67.170709 163.81712 67.171875 163.98047 67.171875 C 164.14374 67.171875 165.15288 66.160156 165.32617 66.160156 C 165.49965 66.160156 165.83665 66.161762 166 65.988281 C 166.16328 65.814801 166.16246 65.477804 166.33594 65.314453 C 166.50942 65.151178 166.84641 65.150043 167.00977 64.976562 C 167.17304 64.803082 167.17418 64.46754 167.34766 64.130859 C 167.52076 63.794103 167.85618 63.45632 168.01953 63.292969 C 168.18281 63.129693 169.1939 62.119141 169.36719 62.119141 C 169.54067 62.119141 169.87766 62.119831 170.04102 61.441406 C 170.20429 60.762981 170.20347 59.415957 170.37695 58.574219 C 170.55043 57.732518 170.88739 57.396092 171.05078 56.722656 C 171.21406 56.04922 171.21519 55.038595 171.38867 54.365234 C 171.56215 53.691836 171.89716 53.356174 172.06055 53.019531 C 172.22382 52.682775 172.22496 52.344455 172.39844 52.007812 C 172.57192 51.671057 172.90891 51.335136 173.07227 50.830078 C 173.23554 50.324982 173.23472 49.652042 173.4082 49.320312 C 173.58168 48.98847 173.91864 48.987593 174.08203 48.814453 C 174.24531 48.640973 174.24449 48.305393 174.41797 47.96875 C 174.59145 47.631994 174.92845 47.293674 175.0918 46.957031 C 175.25507 46.620275 175.25621 46.283908 175.42969 45.947266 C 175.60279 45.61051 175.93817 45.274143 176.10156 44.9375 C 176.26484 44.600744 176.26564 44.262998 176.60742 44.099609 C 176.94909 43.936334 177.62339 43.937152 177.95508 43.763672 C 178.28692 43.590192 178.28516 43.252658 178.28516 42.916016 L 178.28516 41.90625 L 178.28516 40.896484 C 178.28516 40.559728 178.28692 40.223936 177.95508 40.060547 C 177.62324 39.897271 176.94913 39.89647 176.60742 39.554688 C 176.26575 39.213018 176.26536 38.53876 175.93359 38.207031 C 175.60175 37.875189 174.92794 37.87522 174.41797 37.707031 C 173.90796 37.538842 173.57189 37.203534 173.24023 37.035156 C 172.90877 36.866967 172.57177 36.86684 172.39844 36.693359 C 172.22496 36.519879 172.22578 36.18292 172.0625 36.019531 C 171.89922 35.856256 171.56233 35.855689 171.2207 35.6875 C 170.87903 35.519311 170.54064 35.182012 170.20898 35.013672 C 169.87752 34.845483 169.54096 34.846301 169.19922 34.677734 C 168.85755 34.509545 168.52107 34.172284 168.18945 34.003906 C 167.85799 33.835717 167.52172 33.835402 167.01367 33.667969 C 166.50559 33.500536 165.83213 33.163501 164.48828 32.994141 C 163.14439 32.824818 161.12373 32.826517 159.94531 32.988281 C 158.76689 33.151557 158.42853 33.486827 157.25 33.660156 C 156.07151 33.833637 154.05232 33.833984 150.85352 33.833984 L 140.24609 33.833984 L 134.52344 33.833984 C 133.51336 33.833984 133.17528 33.833637 133.00195 33.660156 C 132.82847 33.486676 132.82929 33.151632 132.66602 32.988281 C 132.50274 32.825006 132.16552 32.823871 131.99219 32.650391 C 131.81871 32.47691 131.81858 32.140247 131.65039 31.808594 C 131.4822 31.477129 131.14494 31.14046 130.97656 30.798828 C 130.80837 30.457159 130.80948 30.119771 130.47461 29.789062 C 130.13974 29.458354 129.46526 29.122856 128.78906 28.447266 C 128.11283 27.771675 127.44061 26.759784 126.94141 26.255859 C 126.44217 25.751935 126.10501 25.753369 125.93164 25.580078 C 125.75816 25.406598 125.75703 25.069601 125.59375 24.90625 C 125.43047 24.742974 125.09329 24.742173 124.91992 24.400391 C 124.74644 24.058721 124.74726 23.386417 124.58398 23.054688 C 124.42071 22.722845 124.08352 22.721968 123.91016 22.548828 C 123.73668 22.375348 123.73633 22.039451 123.73633 21.029297 L 123.73633 16.146484 L 123.73633 9.7480469 C 123.73633 8.2329099 123.73749 7.8977262 123.57422 7.734375 C 123.41094 7.5710994 123.0732 7.5692278 122.73047 7.2304688 C 122.38767 6.8918231 122.05134 6.2194806 121.7207 5.8847656 C 121.38999 5.5498995 121.05423 5.5500933 120.88086 5.3769531 C 120.70738 5.2034728 120.70694 4.8664631 120.20312 4.3671875 C 119.69924 3.8678741 118.68787 3.1943969 118.18164 2.6835938 C 117.67541 2.1728284 117.67695 1.8352262 117.51367 1.671875 C 117.3504 1.5085994 117.01351 1.5099859 116.67188 1.3417969 C 116.33021 1.1736079 115.9919 0.83630891 114.81836 0.66796875 C 113.64485 0.49940182 111.62617 0.49804688 110.2793 0.49804688 z M 16.642578 136.46094 C 16.622159 136.48266 16.581676 136.61071 16.5 136.69727 C 16.336641 136.87075 15.999539 136.86993 15.826172 137.0332 C 15.652805 137.19655 15.651682 137.53506 15.486328 138.03906 C 15.320974 138.54306 14.984703 139.21655 14.480469 140.05859 C 13.976234 140.9006 13.303189 141.90959 12.628906 143.08789 C 11.954623 144.26616 11.28013 145.61368 9.7675781 147.13086 C 8.2550225 148.64804 5.8982018 150.33045 4.2109375 152.68555 L 4.2109375 152.6875 C 2.5236732 155.04256 1.5129397 158.07359 1.0058594 160.43164 C 0.49878284 162.78965 0.49804688 164.47229 0.49804688 166.32422 L 0.49804688 172.72266 L 0.49804688 180.63477 C 0.49804688 182.99179 0.49865814 184.6759 0.66601562 185.85742 C 0.83337688 187.03894 1.1704831 187.71162 1.3398438 188.71875 C 1.5092006 189.72592 1.5085909 191.07429 2.0136719 192.25781 C 2.5187528 193.4413 3.528741 194.44986 4.2011719 195.45703 C 4.8736065 196.4642 5.2109326 197.47553 5.8847656 198.65625 C 6.5585987 199.83694 7.5681503 201.18278 8.2421875 202.02539 C 8.9162209 202.868 9.2531634 203.20621 9.5898438 203.54297 C 9.9265203 203.87965 10.2633 204.21541 10.431641 204.54688 C 10.599943 204.87857 10.600071 205.21519 10.773438 205.38867 C 10.946797 205.56196 11.283914 205.56243 11.447266 206.0625 C 11.610617 206.56257 11.609836 207.57195 11.783203 208.08203 C 11.956562 208.59219 12.29368 208.59258 12.457031 208.75586 C 12.620382 208.91921 12.619752 209.25567 12.787109 209.76367 C 12.954474 210.27172 13.291577 210.94599 13.460938 211.95312 C 13.630298 212.96029 13.631321 214.3079 13.804688 214.98633 C 13.978047 215.66483 14.315164 215.66485 14.478516 215.82812 C 14.641867 215.99151 14.640216 216.32825 14.808594 216.66992 C 14.976957 217.01155 15.31412 217.34784 15.482422 217.67969 C 15.650724 218.01138 15.650852 218.348 15.824219 218.52148 C 15.997578 218.69462 16.334696 218.69355 16.498047 219.02539 C 16.661398 219.35712 16.660617 220.03138 16.833984 220.37305 C 17.007344 220.71487 17.344461 220.71563 17.507812 220.87891 C 17.671175 221.04226 17.671965 221.3773 18.013672 221.55078 C 18.35539 221.72426 19.027646 221.7254 19.359375 221.88867 C 19.691085 222.05202 19.691867 222.38902 19.865234 222.5625 C 20.038594 222.7356 20.37453 222.73497 21.214844 222.9043 C 22.055157 223.07354 23.402457 223.41069 24.414062 223.57812 C 25.425664 223.74556 26.099556 223.74452 26.9375 224.08203 C 27.775444 224.41954 28.785607 225.09369 29.462891 225.42969 C 30.140178 225.76569 30.477008 225.76622 31.148438 225.93555 C 31.819867 226.10491 32.830439 226.43999 33.505859 226.60742 C 34.181276 226.77334 34.516336 226.77504 34.679688 226.60156 C 34.84305 226.42823 34.84384 226.09101 35.185547 225.92773 C 35.527269 225.76446 36.201474 225.76332 36.533203 225.58984 C 36.864921 225.41648 36.863742 225.0809 37.037109 224.74414 C 37.210473 224.4075 37.54865 224.07082 38.054688 223.73633 C 38.560725 223.40165 39.232844 223.06332 39.90625 222.72656 C 40.579656 222.38984 41.253771 222.05384 41.757812 221.88867 C 42.261854 221.72351 42.598829 221.72426 42.935547 221.55078 C 43.272265 221.37741 43.608253 221.04023 44.113281 220.87695 C 44.618309 220.71353 45.293111 220.71207 46.472656 220.37305 C 47.652205 220.03391 49.33454 219.36154 50.849609 218.85742 C 52.364682 218.35327 53.7124 218.016 54.722656 217.67773 C 55.732913 217.33947 56.405334 217.00306 57.246094 216.83789 C 58.086853 216.6725 59.098465 216.67257 60.109375 216.33203 C 61.120323 215.99146 62.130244 215.31766 63.140625 214.81445 C 64.151006 214.31121 65.160788 213.97525 66.169922 213.29883 C 67.179056 212.62237 68.188082 211.61186 69.199219 210.94141 C 70.210394 210.27096 71.221579 209.93353 71.720703 209.59375 C 72.219676 209.25405 72.219098 208.91879 72.392578 208.58203 C 72.565945 208.24524 72.903131 207.90848 73.066406 206.89844 C 73.230816 205.88836 73.230689 204.20438 73.0625 203.19922 C 72.894122 202.19409 72.556861 201.85729 72.388672 201.51562 C 72.220483 201.17396 72.221301 200.83732 72.052734 200.50586 C 71.884356 200.17421 71.547095 199.83618 71.378906 199.32617 C 71.210717 198.81616 71.211536 198.14265 71.042969 197.64258 C 70.874591 197.14247 70.536731 196.80529 70.199219 196.12891 C 69.861594 195.45256 69.524855 194.44339 69.357422 193.59961 C 69.189989 192.75583 69.189453 192.08242 69.189453 191.07227 L 69.189453 187.36719 C 69.189453 186.02032 69.189801 184.67381 69.363281 183.83203 C 69.53661 182.99022 69.873834 182.65316 70.037109 182.31641 C 70.200385 181.97976 70.200481 181.64444 70.878906 180.80273 C 71.557331 179.961 72.903818 178.61326 73.572266 177.77148 C 74.240599 176.92967 74.241181 176.5923 74.583984 176.25781 C 74.926712 175.92317 75.600548 175.58658 76.101562 174.91016 C 76.602614 174.23373 76.938201 173.22318 77.447266 172.55273 C 77.956368 171.88232 78.630229 171.54612 78.960938 171.03906 C 79.291722 170.53196 79.291143 169.85898 79.632812 169.18555 C 79.97452 168.51207 80.649251 167.83848 81.152344 167.16406 C 81.655437 166.48964 81.990985 165.81695 82.498047 165.14453 C 83.005108 164.47212 83.679876 163.79801 84.011719 162.45117 C 84.343561 161.1043 84.341797 159.08361 84.341797 157.56836 L 84.341797 154.36914 C 84.341797 153.6957 84.342963 153.35859 84.179688 153.19531 C 84.016336 153.03204 83.67934 153.03286 83.505859 152.85938 C 83.332719 152.68601 83.332913 152.34829 82.998047 152.01758 C 82.663332 151.68695 81.989036 151.35062 81.650391 151.00781 C 81.311632 150.66505 81.312569 150.32929 80.8125 150.16602 C 80.312431 150.00266 79.301101 150.00183 78.791016 149.66016 C 78.280968 149.31845 78.282068 148.64501 77.945312 147.97656 C 77.608594 147.30812 76.934412 146.63583 76.597656 145.78906 C 76.260863 144.94226 76.260932 143.93175 76.097656 143.43164 C 75.934305 142.93161 75.59693 142.93047 75.423828 143.09375 C 75.250348 143.25714 75.251166 143.59488 75.087891 143.93164 C 74.924539 144.26832 74.588709 144.60386 74.251953 144.77734 C 73.915311 144.95064 73.576927 144.95054 73.238281 145.28125 C 72.899636 145.612 72.563382 146.2861 72.228516 146.62891 C 71.893801 146.97167 71.558246 146.97149 71.384766 147.13477 C 71.211474 147.29815 71.211416 147.63511 70.542969 147.80859 C 69.874522 147.98207 68.526539 147.98242 66.337891 147.98242 L 59.435547 147.98242 L 57.078125 147.98242 C 56.741396 147.98242 56.405789 147.98126 56.232422 148.14453 C 56.059074 148.30792 56.057498 148.64488 55.220703 148.81836 C 54.383908 148.99184 52.700311 148.99297 51.853516 149.15625 C 51.006716 149.3196 51.007101 149.6566 50.84375 149.83008 C 50.680395 150.00337 50.344581 150.00328 50.005859 150.33398 C 49.667138 150.66469 49.330809 151.33688 48.996094 151.67969 C 48.661379 152.02249 48.32372 152.02227 48.150391 152.18555 C 47.977043 152.3489 47.977416 152.68719 47.140625 153.69727 C 46.303834 154.70734 44.61992 156.38952 43.441406 157.23633 C 42.262893 158.08294 41.5904 158.08446 40.917969 158.25 C 40.245534 158.41535 39.570502 158.75066 39.064453 158.92188 C 38.558405 159.09309 38.221878 159.09375 37.716797 159.09375 L 35.865234 159.09375 L 33.675781 159.09375 C 32.833986 159.09375 31.824925 159.09397 31.146484 158.92578 C 30.468044 158.75744 30.130895 158.42014 29.630859 158.25195 C 29.130824 158.08339 28.457343 158.0842 27.947266 157.91602 C 27.437184 157.74768 27.100085 157.40984 26.429688 157.07422 C 25.759286 156.73856 24.748676 156.40196 24.072266 156.06445 C 23.395851 155.72675 23.059727 155.38982 22.554688 154.88477 C 22.049644 154.37975 21.375781 153.70735 21.039062 153.19727 C 20.702337 152.68718 20.702973 152.34946 20.365234 151.3418 C 20.027477 150.33414 19.353276 148.65125 19.017578 147.63867 C 18.68188 146.6261 18.682012 146.2885 18.513672 145.95703 C 18.34532 145.62538 18.010099 145.28776 17.841797 144.60938 C 17.673457 143.93099 17.672246 142.92235 17.503906 142.25391 C 17.335543 141.5855 16.998494 141.2476 16.830078 140.23242 C 16.661662 139.2172 16.662109 137.53476 16.662109 136.86133 C 16.662109 136.52461 16.662997 136.43921 16.642578 136.46094 z "
       id="path9331"
       transform="matrix(0.26458333,0,0,0.26458333,84.592146,119.93527)" />
  </g>
</svg>
