<?xml version="1.0" encoding="UTF-8" standalone="no"?>
<!-- Created with Inkscape (http://www.inkscape.org/) -->

<svg
   xmlns:dc="http://purl.org/dc/elements/1.1/"
   xmlns:cc="http://creativecommons.org/ns#"
   xmlns:rdf="http://www.w3.org/1999/02/22-rdf-syntax-ns#"
   xmlns:svg="http://www.w3.org/2000/svg"
   xmlns="http://www.w3.org/2000/svg"
   xmlns:sodipodi="http://sodipodi.sourceforge.net/DTD/sodipodi-0.dtd"
   xmlns:inkscape="http://www.inkscape.org/namespaces/inkscape"
   width="26.166933mm"
   height="24.109121mm"
   viewBox="0 0 26.166933 24.109121"
   version="1.1"
   id="svg9361"
   inkscape:version="0.92.3 (2405546, 2018-03-11)"
   sodipodi:docname="starcluster.svg">
  <defs
     id="defs9355" />
  <sodipodi:namedview
     id="base"
     pagecolor="#ffffff"
     bordercolor="#666666"
     borderopacity="1.0"
     inkscape:pageopacity="0.0"
     inkscape:pageshadow="2"
     inkscape:zoom="0.98994949"
     inkscape:cx="-283.2"
     inkscape:cy="14.06127"
     inkscape:document-units="mm"
     inkscape:current-layer="layer1"
     showgrid="false"
     inkscape:pagecheckerboard="true"
     fit-margin-top="0"
     fit-margin-left="0"
     fit-margin-right="0"
     fit-margin-bottom="0"
     showborder="false"
     inkscape:window-width="1920"
     inkscape:window-height="1027"
     inkscape:window-x="-8"
     inkscape:window-y="-8"
     inkscape:window-maximized="1" />
  <metadata
     id="metadata9358">
    <rdf:RDF>
      <cc:Work
         rdf:about="">
        <dc:format>image/svg+xml</dc:format>
        <dc:type
           rdf:resource="http://purl.org/dc/dcmitype/StillImage" />
        <dc:title />
      </cc:Work>
    </rdf:RDF>
  </metadata>
  <g
     inkscape:label="Layer 1"
     inkscape:groupmode="layer"
     id="layer1"
     transform="translate(-82.069837,-114.40542)">
    <path
       style="color:#000000;font-style:normal;font-variant:normal;font-weight:normal;font-stretch:normal;font-size:medium;line-height:normal;font-family:sans-serif;font-variant-ligatures:normal;font-variant-position:normal;font-variant-caps:normal;font-variant-numeric:normal;font-variant-alternates:normal;font-feature-settings:normal;text-indent:0;text-align:start;text-decoration:none;text-decoration-line:none;text-decoration-style:solid;text-decoration-color:#000000;letter-spacing:normal;word-spacing:normal;text-transform:none;writing-mode:lr-tb;direction:ltr;text-orientation:mixed;dominant-baseline:auto;baseline-shift:baseline;text-anchor:start;white-space:normal;shape-padding:0;clip-rule:nonzero;display:inline;overflow:visible;visibility:visible;opacity:0.8;isolation:auto;mix-blend-mode:normal;color-interpolation:sRGB;color-interpolation-filters:linearRGB;solid-color:#000000;solid-opacity:1;vector-effect:none;fill:#b2b2b2;fill-opacity:1;fill-rule:nonzero;stroke:#c2b9b9;stroke-width:1.00157475;stroke-linecap:round;stroke-linejoin:round;stroke-miterlimit:4;stroke-dasharray:none;stroke-dashoffset:0;stroke-opacity:1;paint-order:stroke fill markers;color-rendering:auto;image-rendering:auto;shape-rendering:auto;text-rendering:auto;enable-background:accumulate"
       d="m 343.35352,432.39844 c -0.82921,3e-4 -1.51106,0.68249 -1.50977,1.51172 3.2e-4,0.82809 0.68166,1.50946 1.50977,1.50976 0.82808,-3e-4 1.50944,-0.68171 1.50976,-1.50976 0.001,-0.82923 -0.68057,-1.51142 -1.50976,-1.51172 z m 14.83203,1.75976 c -0.10005,-0.003 -0.20015,0.003 -0.29883,0.0195 -0.81321,0.13758 -1.36932,0.9214 -1.23047,1.73438 0.13894,0.81203 0.92233,1.36749 1.73437,1.22851 0.81192,-0.13756 1.36755,-0.92042 1.23047,-1.73242 -0.11894,-0.70265 -0.72322,-1.22826 -1.43554,-1.25 z m 8.4082,4.78516 c -0.0351,-3e-4 -0.0703,-2.8e-4 -0.10547,0.002 a 0.50083743,0.50083743 0 0 0 -0.002,0 c -0.72585,0.0484 -1.31723,0.62001 -1.39063,1.34375 -0.0836,0.81721 0.52068,1.55894 1.33789,1.64258 0.81721,0.0835 1.55892,-0.52068 1.64258,-1.33789 0.0836,-0.81558 -0.5169,-1.55652 -1.33203,-1.64258 h -0.002 c -0.0491,-0.004 -0.0991,-0.008 -0.14844,-0.008 z m -13.90039,1.73242 c -0.82921,3e-4 -1.51105,0.68253 -1.50977,1.51172 3.2e-4,0.82809 0.68166,1.50946 1.50977,1.50977 0.82921,10e-4 1.51141,-0.68054 1.51172,-1.50977 10e-4,-0.83029 -0.68141,-1.51304 -1.51172,-1.51172 z m 48.54102,1.82031 c -0.82814,3.1e-4 -1.50947,0.68164 -1.50977,1.50977 3e-4,0.82809 0.68167,1.50943 1.50977,1.50976 0.82808,-3.3e-4 1.50942,-0.68167 1.50976,-1.50976 -3.4e-4,-0.8281 -0.68168,-1.50943 -1.50976,-1.50977 z m -56.07618,2.04688 c -0.82809,3e-4 -1.50945,0.68167 -1.50976,1.50976 3.1e-4,0.8281 0.68166,1.50943 1.50976,1.50977 0.82811,-3.4e-4 1.50946,-0.68167 1.50977,-1.50977 -3.2e-4,-0.82809 -0.68167,-1.50946 -1.50977,-1.50976 z m 38.14258,1.69141 c -0.73028,0.0264 -1.3419,0.58221 -1.43945,1.30664 -0.10961,0.81985 0.4751,1.58529 1.29492,1.69531 0.82088,0.11112 1.58728,-0.47386 1.69727,-1.29492 0.1096,-0.81986 -0.47515,-1.58529 -1.29493,-1.69532 a 0.50083743,0.50083743 0 0 0 -0.002,0 c -0.0847,-0.0113 -0.16849,-0.0155 -0.25391,-0.0117 z m 16.07227,1.17773 0.002,0.002 c -0.79041,-0.008 -1.46092,0.60662 -1.52344,1.39453 -0.065,0.82806 0.56456,1.56413 1.39258,1.62891 0.82707,0.065 1.56258,-0.56371 1.62891,-1.39062 0.0646,-0.82587 -0.56188,-1.55881 -1.38672,-1.62696 h -0.002 c -0.034,-0.003 -0.0691,-0.004 -0.10352,-0.008 a 0.50083743,0.50083743 0 0 0 -0.008,0 z m -43.55664,0.0273 c -0.79251,0.0265 -1.43713,0.66852 -1.4668,1.46094 -0.003,0.0684 0.0912,0.0952 0.0977,0.16211 -0.0276,-0.002 -0.0443,-0.0293 -0.0723,-0.0293 -0.8281,3.1e-4 -1.50945,0.68167 -1.50977,1.50977 -10e-4,0.82919 0.68056,1.51138 1.50977,1.51172 0.64782,-2.7e-4 1.10379,-0.46696 1.31641,-1.04492 0.22597,0.1353 0.44978,0.28635 0.72851,0.28711 a 0.50083743,0.50083743 0 0 0 0.002,0 c 0.45702,-1.9e-4 0.83337,-0.22943 1.11132,-0.55469 0.28736,0.28951 0.67001,0.47662 1.10547,0.46093 0.82771,-0.0302 1.48485,-0.73478 1.45508,-1.5625 -0.0295,-0.82766 -0.73481,-1.48486 -1.5625,-1.45507 -0.50428,0.0189 -0.87577,0.32394 -1.13672,0.71875 -0.0326,-0.0375 -0.045,-0.0872 -0.0644,-0.13282 l 0.0527,0.0801 c -0.0538,-0.76928 -0.68646,-1.38172 -1.45703,-1.41211 a 0.50083743,0.50083743 0 0 0 -0.002,0 c -0.0359,-0.001 -0.0715,-0.001 -0.10742,0 z m -7.33203,0.16211 c -0.79166,0.003 -1.45548,0.62212 -1.50977,1.41211 a 0.50083743,0.50083743 0 0 0 0,0.004 c -0.0566,0.83244 0.58352,1.56384 1.41601,1.61914 0.83142,0.0567 1.56233,-0.58268 1.61915,-1.41406 0.0565,-0.83244 -0.5835,-1.5658 -1.41602,-1.6211 a 0.50083743,0.50083743 0 0 0 -0.002,0 c -0.0351,-0.002 -0.0702,-2.6e-4 -0.10547,0 z m -9.65626,0.50586 c -0.82918,3e-4 -1.51105,0.68058 -1.50976,1.50977 3.2e-4,0.82809 0.68168,1.50946 1.50976,1.50976 0.82811,-3e-4 1.50945,-0.68167 1.50977,-1.50976 10e-4,-0.82919 -0.68056,-1.50947 -1.50977,-1.50977 z m 23.24024,0.48047 c -0.8281,3e-4 -1.50943,0.68167 -1.50977,1.50977 3.3e-4,0.82809 0.68166,1.50946 1.50977,1.50976 0.8281,-3.4e-4 1.50947,-0.68167 1.50976,-1.50976 -3.1e-4,-0.8281 -0.68167,-1.50943 -1.50976,-1.50977 z m 10.50781,3.61133 c -0.82921,-0.001 -1.5114,0.68057 -1.51172,1.50976 3.2e-4,0.82919 0.68252,1.51106 1.51172,1.50977 0.8281,-3e-4 1.50945,-0.68167 1.50977,-1.50977 -3.2e-4,-0.82809 -0.68166,-1.50942 -1.50977,-1.50976 z m 15.09766,0.11523 c -0.8281,3.1e-4 -1.50943,0.68167 -1.50977,1.50977 -1.5e-4,0.29707 0.19793,0.52782 0.35742,0.77148 -0.0151,0.085 -0.0332,0.16931 -0.0332,0.25586 3e-4,0.8281 0.68163,1.50943 1.50977,1.50977 0.82919,10e-4 1.51138,-0.68058 1.51172,-1.50977 -3.4e-4,-0.29745 -0.19951,-0.528 -0.35938,-0.77148 0.0151,-0.085 0.0332,-0.16931 0.0332,-0.25586 -3e-4,-0.8281 -0.68167,-1.50943 -1.50976,-1.50977 z m -41.84766,0.0645 v 0.002 c -0.8281,3e-4 -1.50945,0.68168 -1.50976,1.50976 -0.001,0.8292 0.68056,1.51138 1.50976,1.51172 0.0347,5e-5 0.0616,-0.0194 0.0937,-0.0254 -0.0928,0.0589 -0.17933,0.12629 -0.24804,0.21485 -0.26846,-0.24303 -0.60936,-0.41395 -0.9961,-0.41407 -0.49425,6.1e-4 -0.87404,0.28385 -1.15039,0.65821 0.008,-0.11717 0.0955,-0.21147 0.0742,-0.33203 -0.12484,-0.70164 -0.73263,-1.22484 -1.44531,-1.24219 a 0.50083743,0.50083743 0 0 0 -0.002,0 c -0.10004,-0.002 -0.19838,0.006 -0.29687,0.0215 -0.81162,0.14363 -1.36266,0.92832 -1.2207,1.74024 0.14218,0.81411 0.93225,1.36823 1.74609,1.22461 a 0.50083743,0.50083743 0 0 0 0,-0.002 c 0.28513,-0.0503 0.47763,-0.25322 0.67969,-0.43554 -0.16948,0.2468 -0.4547,0.4222 -0.45508,0.73242 -0.001,0.82919 0.68058,1.51142 1.50976,1.51172 0.77752,-10e-4 1.42579,-0.60257 1.49805,-1.36914 0.0377,-0.0957 0.0696,-0.19553 0.12695,-0.28125 0.21264,0.26192 0.48417,0.40781 0.82032,0.48242 0.25307,0.49856 0.71598,0.86827 1.29101,0.86914 0.82811,-3.4e-4 1.50945,-0.68167 1.50977,-1.50977 -2.8e-4,-0.722 -0.55466,-1.25157 -1.23633,-1.39648 -0.25697,-0.49126 -0.71663,-0.85347 -1.28711,-0.84961 -0.0174,1.5e-4 -0.0352,10e-4 -0.0527,0.002 0.32541,-0.27855 0.55344,-0.65569 0.55273,-1.11328 -3.1e-4,-0.82923 -0.68251,-1.51105 -1.51172,-1.50976 z m 7.22461,0.60547 c -0.82809,3.3e-4 -1.50945,0.68167 -1.50976,1.50976 3.1e-4,0.8281 0.68166,1.50943 1.50976,1.50977 0.14744,-2.7e-4 0.26132,-0.11077 0.40039,-0.15235 0.23792,0.52453 0.66642,0.94505 1.27539,0.94532 0.23199,-1.2e-4 0.40038,-0.15281 0.59766,-0.24805 0.1875,0.72121 0.85128,1.24067 1.60547,1.13476 0.81049,-0.11414 1.38535,-0.87675 1.27148,-1.6875 -0.10613,-0.75413 -0.77431,-1.31181 -1.53515,-1.2832 h -0.002 c -0.0482,0.002 -0.0967,0.004 -0.14453,0.0117 a 0.50083743,0.50083743 0 0 0 -0.004,0 c -0.16991,0.0227 -0.26707,0.16893 -0.4121,0.24414 -0.16332,-0.65711 -0.67253,-1.19114 -1.37696,-1.19141 -0.14744,2.3e-4 -0.26128,0.11077 -0.40039,0.15235 -0.23792,-0.52453 -0.66641,-0.9451 -1.27539,-0.94531 z m -30.09375,0.0605 c -0.73355,0.0416 -1.33657,0.61182 -1.41992,1.3418 -0.0936,0.82507 0.50906,1.58272 1.33398,1.67773 0.82613,0.0952 1.58471,-0.50781 1.67969,-1.33398 0.0936,-0.82507 -0.50907,-1.58272 -1.33398,-1.67774 -0.0848,-0.0113 -0.17052,-0.0116 -0.25586,-0.008 a 0.50083743,0.50083743 0 0 0 -0.004,0 z m 53.95313,0.0508 c -0.82921,-0.001 -1.5114,0.68058 -1.51172,1.50977 3.1e-4,0.82923 0.68251,1.51105 1.51172,1.50976 0.8281,-3e-4 1.50946,-0.68163 1.50976,-1.50976 -3e-4,-0.82806 -0.68167,-1.50946 -1.50976,-1.50977 z m -13.73047,0.45313 c -0.82921,-10e-4 -1.51141,0.68054 -1.51172,1.50976 3.2e-4,0.82919 0.68252,1.51105 1.51172,1.50977 0.34877,-1.1e-4 0.64154,-0.17122 0.89843,-0.37305 0.16396,0.65624 0.67317,1.18919 1.37696,1.18946 a 0.50083743,0.50083743 0 0 0 0.002,0 c 0.0943,-1.9e-4 0.15865,-0.0881 0.25,-0.10547 0.14997,0.6751 0.67332,1.22434 1.39063,1.22461 0.8281,-3.4e-4 1.50945,-0.68167 1.50976,-1.50977 -3.2e-4,-0.82809 -0.68167,-1.50947 -1.50976,-1.50976 -0.0948,2e-5 -0.16015,0.0881 -0.25196,0.10546 -0.14902,-0.67623 -0.67237,-1.22629 -1.39062,-1.22656 -0.34927,1.1e-4 -0.64137,0.1728 -0.89844,0.375 -0.16396,-0.65624 -0.67317,-1.18919 -1.37695,-1.18945 z m 11.22851,1.30664 -0.002,0.002 c -0.0999,-0.003 -0.20033,0.002 -0.29883,0.0176 -0.82102,0.14098 -1.38217,0.93498 -1.24023,1.75586 0.14237,0.82114 0.9369,1.38014 1.75781,1.23633 0.81987,-0.14249 1.37839,-0.93593 1.23633,-1.75586 -0.12359,-0.70779 -0.73507,-1.23564 -1.45313,-1.25586 z m 8.47266,0.70508 v 0.002 c -0.76751,3e-4 -1.35525,0.6085 -1.44531,1.35352 -0.22791,-0.25361 -0.50738,-0.47198 -0.86719,-0.52735 -0.085,-0.0113 -0.17202,-0.0195 -0.25781,-0.0195 h -0.002 c -0.73916,0.0151 -1.3685,0.5604 -1.48242,1.29102 -0.12926,0.82847 0.44684,1.61725 1.27539,1.74609 0.82284,0.12813 1.59767,-0.44254 1.73438,-1.26172 0.2725,0.26457 0.63907,0.4354 1.04492,0.43555 0.82809,-3.4e-4 1.50947,-0.68167 1.50976,-1.50977 -2.9e-4,-0.82809 -0.68167,-1.50942 -1.50976,-1.50976 z m -43.69922,0.57422 c -0.73729,0.0412 -1.34536,0.61405 -1.42969,1.34765 -0.0926,0.80504 0.48766,1.52338 1.2793,1.6543 -0.26891,0.27326 -0.4393,0.64506 -0.43945,1.05469 3.1e-4,0.82809 0.68166,1.50942 1.50976,1.50976 0.82811,-3e-4 1.50945,-0.68167 1.50977,-1.50976 -2.9e-4,-0.76438 -0.605,-1.34722 -1.34571,-1.44141 0.26023,-0.23924 0.4703,-0.54495 0.51368,-0.91992 0.0954,-0.829 -0.50927,-1.59063 -1.33789,-1.6875 h -0.002 c -0.0344,-0.004 -0.0688,-0.008 -0.10351,-0.008 -0.0504,-0.002 -0.10193,-0.002 -0.15235,0 a 0.50083743,0.50083743 0 0 0 -0.002,0 z m -3.9707,0.6582 c -0.82921,-0.001 -1.51141,0.68057 -1.51172,1.50976 -0.001,0.83033 0.68141,1.51301 1.51172,1.51172 0.8292,-3.4e-4 1.51105,-0.68253 1.50976,-1.51172 -3.1e-4,-0.82809 -0.68166,-1.50942 -1.50976,-1.50976 z m 26.38281,0.13476 c -0.8292,-10e-4 -1.5114,0.68054 -1.51172,1.50977 3.1e-4,0.82919 0.68251,1.51105 1.51172,1.50977 0.8281,-3.4e-4 1.50945,-0.68168 1.50977,-1.50977 -3.3e-4,-0.82813 -0.68167,-1.50946 -1.50977,-1.50977 z m 4.77539,2.08789 c -0.82809,3.1e-4 -1.50946,0.68168 -1.50976,1.50977 a 0.50083743,0.50083743 0 0 0 0,0.002 c 1.9e-4,0.10545 0.0523,0.20031 0.0742,0.30274 -0.0639,0.0612 -0.13898,0.10787 -0.1914,0.17969 -0.47029,0.24189 -0.81398,0.68333 -0.84375,1.2207 -0.029,0.53099 0.22876,1.01383 0.63476,1.30469 -0.0813,-0.0144 -0.16115,-0.034 -0.24609,-0.0332 h -0.002 c -0.0508,3.8e-4 -0.0999,0.003 -0.15039,0.008 a 0.50083743,0.50083743 0 0 0 -0.004,0 c -0.83257,0.0945 -1.44095,0.8587 -1.34766,1.6914 0.064,0.56694 0.44949,1.0296 0.97071,1.23438 0.12783,0.15811 0.28673,0.2844 0.46093,0.38086 -0.0397,-0.013 -0.0714,-0.0371 -0.11718,-0.0371 -0.18029,7e-5 -0.3297,0.11356 -0.33008,0.25 7e-5,0.13644 0.14979,0.24804 0.33008,0.24804 0.18028,-3e-5 0.32774,-0.1116 0.32812,-0.24804 -5e-5,-0.0584 -0.0387,-0.10775 -0.084,-0.15039 0.18043,0.0786 0.37447,0.12689 0.57812,0.12695 0.25833,-3.4e-4 0.44146,-0.20019 0.66211,-0.32227 0.29696,0.30993 0.67432,0.5318 1.11719,0.50977 0.82408,-0.0412 1.4685,-0.75404 1.42773,-1.57813 -0.0411,-0.82408 -0.75401,-1.46847 -1.57812,-1.42773 -0.25599,0.0113 -0.4389,0.20599 -0.65235,0.33789 -0.10514,-0.10469 -0.1984,-0.21328 -0.33007,-0.2832 -0.11703,-0.1833 -0.27131,-0.33358 -0.44336,-0.45703 0.0653,0.0125 0.12919,0.0275 0.19726,0.0312 0.49595,0.0271 0.96083,-0.20316 1.26172,-0.58985 0.51596,-0.2494 0.8628,-0.76279 0.86328,-1.3457 a 0.50083743,0.50083743 0 0 0 0,-0.002 c -3.2e-4,-0.15912 -0.062,-0.30651 -0.11133,-0.45703 0.24265,-0.27251 0.54487,-0.52012 0.54493,-0.89649 -3.3e-4,-0.82809 -0.68167,-1.50946 -1.50977,-1.50977 z m 8.4375,0.875 -0.002,0.002 c -0.0996,-0.002 -0.20079,0.006 -0.29883,0.0215 a 0.50083743,0.50083743 0 0 0 -0.002,0 c -0.80877,0.14967 -1.35042,0.93957 -1.19922,1.74805 0.14978,0.80746 0.93858,1.34859 1.74609,1.19922 0.80878,-0.14967 1.35042,-0.93953 1.19922,-1.74805 -0.12971,-0.69592 -0.73573,-1.20928 -1.44336,-1.22266 z m -18.5918,0.60743 c -0.72816,0.0227 -1.34111,0.56973 -1.44336,1.29101 -0.11531,0.81574 0.46167,1.5833 1.27735,1.69922 0.81678,0.11717 1.5853,-0.4604 1.70117,-1.27734 0.11698,-0.81778 -0.46118,-1.58673 -1.2793,-1.70117 a 0.50083743,0.50083743 0 0 0 -0.006,0 c -0.0831,-0.0113 -0.16617,-0.0155 -0.25,-0.0117 z m 13.79102,0.10742 c -0.82425,-0.0151 -1.51561,0.64839 -1.53125,1.47265 -0.003,0.14325 0.0484,0.27856 0.0859,0.41602 -0.0706,0.15685 -0.15718,0.30767 -0.17188,0.48047 a 0.50083743,0.50083743 0 0 0 -0.002,0.002 c -0.069,0.83528 0.56319,1.58081 1.39844,1.65039 0.83428,0.0692 1.57734,-0.56042 1.64843,-1.39453 a 0.50083743,0.50083743 0 0 0 0.002,-0.002 c 0.0159,-0.19729 -0.0562,-0.38492 -0.11524,-0.57227 0.0692,-0.16894 0.15191,-0.33562 0.15625,-0.51953 a 0.50083743,0.50083743 0 0 0 0,-0.002 c 0.0166,-0.82318 -0.64755,-1.51402 -1.4707,-1.53125 z m -27.7793,1.01367 c -0.8281,3.4e-4 -1.50945,0.68167 -1.50976,1.50977 -10e-4,0.82922 0.68056,1.51142 1.50976,1.51171 0.82921,-2.9e-4 1.51105,-0.68249 1.50977,-1.51171 -3.2e-4,-0.8281 -0.68166,-1.50943 -1.50977,-1.50977 z m -6.11328,0.11914 c -0.83031,-0.001 -1.513,0.68143 -1.51172,1.51172 a 0.50083743,0.50083743 0 0 0 0,0.004 c 5.2e-4,0.0752 0.0156,0.14857 0.0274,0.22265 -0.18554,0.25512 -0.41584,0.49349 -0.41602,0.81641 3.1e-4,0.82809 0.68166,1.50942 1.50977,1.50976 0.8292,0.001 1.5114,-0.68057 1.51172,-1.50976 a 0.50083743,0.50083743 0 0 0 0,-0.002 c -3.8e-4,-0.0756 -0.0156,-0.15016 -0.0274,-0.22461 0.18554,-0.25437 0.41522,-0.49203 0.41602,-0.81446 a 0.50083743,0.50083743 0 0 0 0,-0.002 c 0.001,-0.82919 -0.68057,-1.51142 -1.50977,-1.51172 z m 9.2832,0.082 c -0.82919,3.4e-4 -1.51104,0.68253 -1.50976,1.51172 a 0.50083743,0.50083743 0 0 0 0,0.002 c 7.3e-4,0.28347 0.18305,0.5079 0.33008,0.74414 -0.0295,0.11793 -0.0641,0.2334 -0.0645,0.35547 a 0.50083743,0.50083743 0 0 0 0,0.002 c 3.3e-4,0.82809 0.68166,1.50946 1.50977,1.50976 0.8281,-3e-4 1.50944,-0.68167 1.50977,-1.50976 2.9e-4,-0.28536 -0.18219,-0.5122 -0.33008,-0.75 0.0283,-0.11717 0.0645,-0.23062 0.0645,-0.35157 0.001,-0.82922 -0.68056,-1.51137 -1.50977,-1.51171 z m 36.33985,0.43555 c -0.44323,-3.8e-4 -0.80763,0.23887 -1.08985,0.56055 -0.24982,-0.175 -0.43628,-0.45701 -0.75195,-0.45703 -0.82809,2.9e-4 -1.50942,0.68167 -1.50976,1.50976 a 0.50083743,0.50083743 0 0 0 0,0.002 c 1.1e-4,0.0227 0.0118,0.0449 0.0156,0.0684 -0.47438,0.17159 -0.80384,0.51408 -0.92383,1.00977 -0.0506,5.7e-4 -0.0979,-0.0253 -0.14844,-0.0215 -0.8147,0.0934 -1.40981,0.84154 -1.3164,1.65625 0.0166,0.14438 0.14299,0.22577 0.19726,0.35352 -0.14607,-0.0476 -0.25296,-0.17383 -0.41406,-0.17383 -0.70805,-10e-4 -1.21978,0.53585 -1.38086,1.19727 -0.19377,-0.0911 -0.35731,-0.24219 -0.58398,-0.24219 -0.8292,-10e-4 -1.51141,0.68058 -1.51172,1.50977 a 0.50083743,0.50083743 0 0 0 0,0.002 c 8.6e-4,0.22337 0.1163,0.41774 0.21094,0.61719 -0.0204,0.11452 -0.0435,0.22891 -0.0371,0.3457 a 0.50083743,0.50083743 0 0 0 0,0.002 c 0.043,0.74899 0.66185,1.27579 1.38672,1.35157 -0.21555,0.26115 -0.38658,0.56997 -0.38672,0.93164 3.1e-4,0.80235 0.65031,1.44156 1.44336,1.48242 -0.38793,0.29669 -0.67498,0.70327 -0.64258,1.22265 0.0367,0.59169 0.4639,0.98409 0.98047,1.19922 -0.29084,0.27591 -0.48031,0.65362 -0.48047,1.08203 4e-5,0.11981 0.10188,0.19672 0.12891,0.3086 -0.10938,-0.0265 -0.19208,-0.11102 -0.3086,-0.11328 0.12091,-0.79771 -0.40854,-1.56503 -1.20703,-1.70899 -0.085,-0.0151 -0.17141,-0.0234 -0.25781,-0.0234 -0.72896,-0.004 -1.36025,0.52258 -1.48828,1.24024 -0.0102,0.0559 0.021,0.1097 0.0176,0.16601 -0.46178,0.0786 -0.82948,0.35415 -1.04882,0.76563 -0.64306,0.11679 -1.19753,0.5548 -1.27344,1.23047 -0.0925,0.82537 0.51063,1.58269 1.33594,1.67578 0.22805,0.0265 0.44392,-0.0611 0.6582,-0.13672 0.27519,0.25776 0.53094,0.56791 0.91992,0.56836 0.68245,-2.6e-4 1.16931,-0.50835 1.35352,-1.13477 0.2824,0.23887 0.63826,0.39854 1.0332,0.38282 0.83771,-0.034 1.50012,-0.75016 1.4668,-1.58789 -0.004,-0.0971 -0.0919,-0.15463 -0.11328,-0.2461 0.10771,0.0265 0.18021,0.12305 0.29492,0.12305 0.8281,-3e-4 1.50945,-0.68167 1.50976,-1.50977 -1.7e-4,-0.47531 -0.25353,-0.8531 -0.60156,-1.13086 0.46418,-0.25965 0.83095,-0.66347 0.83008,-1.22851 -3.4e-4,-0.8281 -0.68167,-1.50946 -1.50977,-1.50977 a 0.50083743,0.50083743 0 0 0 -0.002,0 c -0.1146,4.6e-4 -0.22478,0.0341 -0.33594,0.0605 -0.0849,-0.0227 -0.16798,-0.0499 -0.25586,-0.0586 0.33396,-0.27818 0.57209,-0.65517 0.57227,-1.11914 -2.9e-4,-0.76441 -0.605,-1.34719 -1.3457,-1.44141 0.22586,-0.28271 0.37977,-0.63158 0.35742,-1.01758 a 0.50083743,0.50083743 0 0 0 0,-0.002 c -0.009,-0.14967 -0.10485,-0.27137 -0.15625,-0.41016 0.15023,0.0503 0.26146,0.17811 0.42773,0.17774 0.8281,-3.4e-4 1.50946,-0.68167 1.50977,-1.50977 3.3e-4,-0.21241 -0.14614,-0.36243 -0.22657,-0.54687 0.19794,0.0654 0.37089,0.19682 0.58985,0.17187 0.37296,-0.0431 0.57024,-0.38232 0.81055,-0.6543 0.19578,0.0888 0.37995,0.21132 0.59765,0.21094 0.8281,-3e-4 1.50943,-0.68171 1.50977,-1.50976 a 0.50083743,0.50083743 0 0 0 0,-0.002 c -7.6e-4,-0.22639 -0.12162,-0.42148 -0.21875,-0.62304 9.8e-4,-0.0151 10e-4,-0.0302 0.002,-0.0449 a 0.50083743,0.50083743 0 0 0 0,-0.0234 c -7e-5,-0.008 -0.004,-0.0139 -0.004,-0.0215 0.2487,-0.0865 0.44815,-0.2177 0.6211,-0.41601 0.2502,0.17574 0.43557,0.45891 0.75195,0.45898 0.8281,-3.4e-4 1.50943,-0.68167 1.50977,-1.50977 -3.4e-4,-0.82744 -0.68059,-1.50836 -1.50782,-1.50976 z m -29.75,0.95117 v 0.002 c -0.79282,-0.0151 -1.47084,0.59511 -1.54102,1.38477 -0.006,0.065 0.0522,0.10995 0.0547,0.17383 -0.21887,-0.10432 -0.43243,-0.2316 -0.6875,-0.21875 -0.24797,0.0113 -0.43526,0.1874 -0.64453,0.3125 -0.18573,-0.14211 -0.34435,-0.32763 -0.57813,-0.3711 h -0.002 c -0.0834,-0.0151 -0.16706,-0.0216 -0.25195,-0.0254 a 0.50083743,0.50083743 0 0 0 -0.004,0 c -0.72796,-0.0113 -1.36304,0.5108 -1.49609,1.22657 -0.15077,0.81059 0.39233,1.60224 1.20312,1.75195 a 0.50083743,0.50083743 0 0 0 0.002,0 c 0.36703,0.0673 0.6795,-0.1532 0.99023,-0.3418 0.27655,0.21808 0.55197,0.45963 0.91211,0.44727 0.0756,0.12906 0.16591,0.24878 0.26562,0.35547 -0.005,0.0176 -0.0254,0.0301 -0.0254,0.0488 8e-5,0.13645 0.14785,0.24805 0.32813,0.24805 0.0205,0 0.0332,-0.0148 0.0527,-0.0176 0.21813,0.12741 0.46472,0.20128 0.74219,0.17774 0.3909,-0.0333 0.73274,-0.21877 0.98242,-0.48828 0.003,0.1285 0.13238,0.23943 0.30469,0.24804 0.18104,0.008 0.34104,-0.0975 0.35352,-0.23437 0.0113,-0.1372 -0.12718,-0.25656 -0.3086,-0.26563 a 0.10902478,0.0825185 0 0 0 -0.002,0 c -0.008,-3.7e-4 -0.0139,-3e-5 -0.0215,0 l -0.002,-0.002 c -0.0637,2.1e-4 -0.11521,0.0266 -0.16601,0.0508 0.18074,-0.27545 0.2797,-0.60664 0.25,-0.95703 -0.0215,-0.25512 -0.18443,-0.44296 -0.31641,-0.64648 0.56259,-0.18444 1.03632,-0.58418 1.08984,-1.20703 0.0724,-0.82923 -0.55001,-1.57068 -1.3789,-1.64454 h -0.002 c -0.0344,-0.003 -0.0691,-0.004 -0.10351,-0.008 z m 20.48633,0.0879 c -0.82811,3e-4 -1.50945,0.68167 -1.50977,1.50977 3.1e-4,0.82809 0.68166,1.50942 1.50977,1.50976 0.82809,-3.4e-4 1.50945,-0.68167 1.50976,-1.50976 -3.2e-4,-0.8281 -0.68167,-1.50943 -1.50976,-1.50977 z m -13.0293,0.47266 c -0.82811,3e-4 -1.50944,0.68163 -1.50977,1.50976 -3.1e-4,0.20183 0.14186,0.3428 0.21485,0.51954 -0.18754,0.0385 -0.35743,0.10536 -0.51367,0.20703 0.0379,-0.12964 0.15173,-0.22193 0.15234,-0.36329 0.003,-0.82063 -0.6696,-1.49855 -1.49023,-1.50195 -0.75364,-0.003 -1.38139,0.56675 -1.48243,1.29492 -0.0305,-0.008 -0.0543,-0.0265 -0.0879,-0.0273 -0.0227,-5.3e-4 -0.0449,6.9e-4 -0.0664,0.004 -0.17689,0.0227 -0.29782,0.15136 -0.26758,0.28515 0.0302,0.1338 0.20202,0.2258 0.3789,0.20313 0.0198,-0.003 0.0286,-0.0184 0.0469,-0.0234 0.11637,0.70554 0.73006,1.25284 1.4668,1.25586 0.29824,10e-4 0.5344,-0.16409 0.76953,-0.31641 -0.0367,0.12095 -0.14169,0.20637 -0.14649,0.33789 -0.45707,0.1312 -0.84467,0.42887 -1.02734,0.8418 -0.0266,-0.11684 -0.14906,-0.21094 -0.31055,-0.21094 -0.18028,8e-5 -0.32774,0.11161 -0.32812,0.24805 7e-5,0.13644 0.14784,0.24805 0.32812,0.24805 0.11914,-3e-5 0.20597,-0.0563 0.26367,-0.12891 -0.0335,0.11362 -0.0679,0.22745 -0.0684,0.35547 -7e-5,0.037 0.009,0.0702 0.0137,0.10547 -0.16299,0.0143 -0.29457,0.11154 -0.29492,0.23828 7e-5,0.13682 0.14746,0.25038 0.32812,0.25 0.0531,0 0.0941,-0.0232 0.13672,-0.043 0.0465,0.0788 0.0905,0.15825 0.14062,0.23438 -0.11495,0.0453 -0.22141,0.10586 -0.32422,0.16992 0.007,-0.0198 0.0312,-0.0333 0.0313,-0.0547 -8e-5,-0.13644 -0.14785,-0.24805 -0.32813,-0.24805 -0.18066,-2.2e-4 -0.33008,0.11161 -0.33008,0.24805 8e-5,0.13682 0.14942,0.25038 0.33008,0.25 0.0313,-10e-6 0.0513,-0.0191 0.0801,-0.0254 -0.21112,0.18448 -0.35938,0.4162 -0.42188,0.69531 -0.0412,-0.0141 -0.0752,-0.0391 -0.12304,-0.0391 l -0.004,0.002 c -0.18028,8e-5 -0.32775,0.11161 -0.32812,0.24805 -8e-5,0.034 0.0302,0.0568 0.0469,0.0859 -0.0408,0.008 -0.0793,0.0181 -0.11328,0.0332 0.008,-0.0227 0.0352,-0.0367 0.0351,-0.0586 6.5e-4,-0.13531 -0.14544,-0.24729 -0.32421,-0.24805 -0.17878,-4.9e-4 -0.32737,0.11079 -0.32813,0.24609 -6.8e-4,0.13531 0.14583,0.24534 0.32422,0.2461 0.065,1.9e-4 0.11695,-0.0251 0.16797,-0.0508 -0.008,0.0189 -0.0293,0.0331 -0.0293,0.0547 -0.13719,0.0302 -0.24962,0.11003 -0.25,0.22266 -1.1e-4,0.0499 0.0374,0.0896 0.0703,0.12891 -0.12245,0.0378 -0.2195,0.11172 -0.21875,0.21679 4e-5,0.003 3.7e-4,0.004 0.002,0.008 -0.13342,0.034 -0.23803,0.11859 -0.23047,0.23046 0.009,0.10461 0.11192,0.17575 0.23633,0.20704 -0.007,0.0673 -0.0311,0.12804 -0.0273,0.19921 0.0317,0.62054 0.44468,1.13964 0.99805,1.33985 -0.0191,0.0239 -0.0391,0.0473 -0.043,0.0781 -0.0189,0.13418 0.11376,0.25473 0.29102,0.26758 0.17726,0.0113 0.33846,-0.0865 0.35547,-0.2207 10e-4,-0.0148 -0.0135,-0.0264 -0.0215,-0.0391 a 0.50083743,0.50083743 0 0 0 0.002,0 c 0.17202,-0.009 0.33315,-0.0526 0.48438,-0.11524 -0.006,0.1164 0.0933,0.22043 0.24414,0.24805 -0.0113,0.0265 -0.0426,0.0463 -0.043,0.0762 8e-5,0.11754 0.11974,0.20319 0.26563,0.22852 -0.0442,0.0423 -0.082,0.0906 -0.082,0.14843 7e-5,0.13644 0.14746,0.24843 0.32812,0.24805 0.12246,0 0.21517,-0.0592 0.27148,-0.13672 0.007,3.6e-4 0.0129,9.9e-4 0.0195,0.002 -0.006,0.10558 -0.002,0.21213 0.0156,0.32032 0.0541,0.32352 0.35539,0.4895 0.58594,0.70898 -0.0415,0.0994 -0.10745,0.18872 -0.12696,0.29492 a 0.50083743,0.50083743 0 0 0 0,0.002 c -0.13295,0.73867 0.34549,1.39945 1.03711,1.63476 -0.0455,0.19767 -0.19712,0.36622 -0.16015,0.57031 0.14797,0.81687 0.94286,1.36778 1.75976,1.21875 0.0928,-0.0151 0.13544,-0.11007 0.22071,-0.14257 0.005,0.56447 0.35222,0.9847 0.83398,1.23437 -0.75951,0.15421 -1.31911,0.83621 -1.22851,1.61914 a 0.50083743,0.50083743 0 0 0 0,0.002 c 0.0159,0.13796 0.14173,0.22533 0.19336,0.35157 -0.44606,0.22374 -0.81228,0.57854 -0.86329,1.10351 -0.0793,0.81426 0.52553,1.55014 1.33985,1.62891 0.81426,0.0794 1.55015,-0.52555 1.6289,-1.33985 0.0227,-0.23469 -0.17109,-0.4033 -0.2539,-0.61718 0.59844,-0.25777 1.04629,-0.79981 0.96875,-1.47656 -0.063,-0.54566 -0.45919,-0.91026 -0.93555,-1.12305 0.65658,-0.11943 1.21606,-0.58441 1.26367,-1.27735 0.0566,-0.81811 -0.5705,-1.53961 -1.38867,-1.5957 a 0.50083743,0.50083743 0 0 0 -0.004,0 c -0.0344,-0.002 -0.0689,-0.002 -0.10351,-0.002 h -0.002 c -0.20168,9.8e-4 -0.34886,0.1361 -0.52539,0.21094 0.007,-0.1183 0.0944,-0.21462 0.0723,-0.33594 -0.0448,-0.24492 -0.20766,-0.42417 -0.35352,-0.61133 0.7752,-0.10016 1.37036,-0.76939 1.31641,-1.55859 a 0.50083743,0.50083743 0 0 0 0,-0.002 c -0.0526,-0.76278 -0.68307,-1.36832 -1.44726,-1.39257 -0.0499,-0.002 -0.10059,-0.002 -0.15039,0.002 -0.30101,0.0227 -0.52703,0.20498 -0.75196,0.37695 -0.12651,-0.66808 -0.68928,-1.15989 -1.36328,-1.20312 0.17218,-0.007 0.31214,-0.11415 0.3125,-0.2461 -4e-5,-0.0782 -0.0553,-0.13981 -0.13086,-0.18554 0.10091,-0.0427 0.18202,-0.10978 0.18164,-0.20313 -7e-5,-0.13644 -0.14979,-0.24805 -0.33008,-0.24805 -0.0264,8e-5 -0.0481,0.004 -0.0723,0.0117 -0.0189,-0.004 -0.0389,-0.008 -0.0566,-0.0117 0.0726,-0.0457 0.125,-0.1092 0.125,-0.18554 -8e-5,-0.12586 -0.13196,-0.22084 -0.29297,-0.23633 0.0491,-0.0465 0.083,-0.10447 0.0781,-0.16797 -0.002,-0.0265 -0.0219,-0.0453 -0.0332,-0.0684 0.034,0.008 0.0559,0.0312 0.0918,0.0312 0.18028,-4e-5 0.3297,-0.11356 0.33008,-0.25 7e-5,-0.034 -0.0315,-0.0596 -0.0508,-0.0898 0.0431,0.0113 0.0809,0.0349 0.12891,0.0273 0.0813,-0.008 0.12325,-0.0628 0.17578,-0.10742 0.0427,0.0151 0.0836,0.0332 0.13086,0.0332 0.18028,-4e-5 0.32775,-0.1116 0.32813,-0.24805 -1.5e-4,-0.0378 -0.0257,-0.0702 -0.0469,-0.10351 2.3e-4,-0.003 -1.5e-4,-0.004 0,-0.008 a 0.10902478,0.0825185 0 0 0 0,-0.004 c -4e-5,-10e-4 0,-0.003 0,-0.004 0.0541,-0.0151 0.097,-0.034 0.13477,-0.0684 0.0544,0.0302 0.0953,0.0762 0.16406,0.0762 0.18028,-4e-5 0.32775,-0.11161 0.32812,-0.24805 -7e-5,-0.13644 -0.14822,-0.25 -0.32812,-0.25 l 0.004,0.008 c -0.0964,-7e-5 -0.17668,0.0389 -0.23829,0.0918 -0.0544,-0.0302 -0.0953,-0.0742 -0.16406,-0.0742 -0.18028,8e-5 -0.32812,0.11161 -0.32812,0.24805 0,0.004 0.004,0.008 0.004,0.0117 -0.10318,0.0264 -0.17509,0.0844 -0.20117,0.16601 -0.0113,1.2e-4 -0.0238,-0.004 -0.0352,-0.004 -0.17725,0.0151 -0.30556,0.13926 -0.28515,0.27343 0.003,0.0227 0.0305,0.0382 0.043,0.0586 -0.0302,-0.008 -0.057,-0.0312 -0.0918,-0.0312 -0.1542,-1.5e-4 -0.26406,0.0884 -0.29883,0.19726 -0.0423,-0.0151 -0.0778,-0.0391 -0.12695,-0.0391 -0.0433,-5e-5 -0.0733,0.0235 -0.11133,0.0352 0.0378,-0.1173 0.0675,-0.23906 0.0684,-0.37305 0.0399,-0.0412 0.076,-0.0861 0.0762,-0.14063 -5e-5,-0.0928 -0.079,-0.15846 -0.17968,-0.20117 -0.0458,-0.0811 -0.0967,-0.16075 -0.13672,-0.24609 0.13043,0.0378 0.24586,0.12109 0.38281,0.12109 0.0294,-1e-5 0.0569,-0.008 0.0859,-0.01 0.0282,0.002 0.051,0.0177 0.0801,0.0137 0.0224,-0.003 0.0324,-0.0209 0.0527,-0.0273 0.39583,-0.0591 0.74236,-0.27069 0.97656,-0.57618 0.0264,0.009 0.0423,0.0297 0.0723,0.0332 0.17915,0.0227 0.34709,-0.0741 0.37695,-0.20899 0.0593,0.0435 0.13812,0.0723 0.22656,0.0723 0.18029,-4e-5 0.3297,-0.11161 0.33008,-0.24805 -4e-5,-0.13644 -0.14979,-0.25 -0.33008,-0.25 v 0.002 c -0.16705,4e-5 -0.29518,0.0998 -0.31445,0.22266 -0.0345,-0.029 -0.0833,-0.0441 -0.13086,-0.0605 0.0505,-0.15031 0.0842,-0.30812 0.084,-0.47461 a 0.50083743,0.50083743 0 0 0 0,-0.002 c -5.7e-4,-0.21808 -0.11305,-0.40777 -0.20312,-0.60352 0.17703,-0.24981 0.39684,-0.48396 0.40039,-0.79687 0.002,-0.2109 -0.14353,-0.36093 -0.2207,-0.54492 0.16994,-0.0362 0.33292,-0.0969 0.48047,-0.17774 -0.0428,0.1396 -0.0723,0.28473 -0.0723,0.4375 0,0.16263 0.0338,0.3159 0.082,0.46289 -0.004,-1.3e-4 -0.009,0 -0.0137,0 -0.15912,0.004 -0.29329,0.0954 -0.31445,0.21485 -0.0227,0.13493 0.10481,0.26115 0.2832,0.27929 0.10134,0.0107 0.18995,-0.0207 0.25977,-0.0703 0.27473,0.37267 0.71292,0.61914 1.20898,0.61914 0.82854,0 1.51367,-0.67731 1.51367,-1.50586 0,-0.82854 -0.68513,-1.51367 -1.51367,-1.51367 -0.2642,0 -0.50821,0.0775 -0.72461,0.19922 0.0286,-0.10854 0.0471,-0.22163 0.0469,-0.3418 -2.9e-4,-0.82813 -0.68166,-1.50946 -1.50976,-1.50976 z m -26.01758,1.69726 c -0.8384,0.008 -1.52189,0.70629 -1.51367,1.54493 0.009,0.83837 0.70629,1.52187 1.54492,1.51367 0.83776,-0.008 1.52082,-0.7052 1.51367,-1.54297 -0.008,-0.8386 -0.70455,-1.52281 -1.54297,-1.51563 z m 20.10547,1.01563 c -0.18066,4e-5 -0.33008,0.1116 -0.33008,0.24805 8e-5,0.13644 0.1498,0.25 0.33008,0.25 0.18066,2.2e-4 0.32775,-0.11319 0.32813,-0.25 2.6e-4,-0.13682 -0.14709,-0.24843 -0.32813,-0.24805 z m 31.08203,0.12891 c -0.82809,2.9e-4 -1.50946,0.68167 -1.50976,1.50976 3e-4,0.8281 0.68167,1.50943 1.50976,1.50977 0.82813,-3.4e-4 1.50946,-0.68167 1.50977,-1.50977 -3.1e-4,-0.82809 -0.68167,-1.50947 -1.50977,-1.50976 z m -38.60351,0.2246 c -0.048,6.1e-4 -0.0968,0.003 -0.14454,0.008 a 0.50083743,0.50083743 0 0 0 -0.008,0.002 c -0.82725,0.10394 -1.42211,0.87 -1.31836,1.69727 0.10247,0.82715 0.86614,1.42228 1.69336,1.32031 0.8284,-0.10243 1.42595,-0.86902 1.32227,-1.69727 -0.0966,-0.77072 -0.76842,-1.34935 -1.54492,-1.33008 z m -4.64258,0.35157 c -0.17473,7.1e-4 -0.33505,0.0739 -0.49805,0.13281 a 0.50083743,0.50083743 0 0 0 -0.0215,0 c -0.0178,4e-5 -0.0295,0.0195 -0.0469,0.0195 -0.0584,0.0227 -0.12638,0.0152 -0.18164,0.0488 l 0.13086,-0.0273 c -0.22896,0.0189 -0.41876,0.14171 -0.61523,0.25585 -0.16525,-0.0605 -0.32852,-0.13438 -0.50586,-0.13476 -0.82811,3.4e-4 -1.50946,0.68167 -1.50977,1.50976 3.2e-4,0.82814 0.68167,1.50947 1.50977,1.50977 0.12805,1.9e-4 0.21975,-0.10926 0.34179,-0.14062 -0.008,0.0491 -0.0611,0.0806 -0.0645,0.13085 -0.055,0.82923 0.58292,1.55788 1.41211,1.61329 0.82921,0.0548 1.5579,-0.58292 1.61328,-1.41211 0.0276,-0.4136 -0.15386,-0.76979 -0.41602,-1.06641 0.21532,-0.26457 0.36332,-0.57502 0.36329,-0.92969 -3.3e-4,-0.82809 -0.68166,-1.50942 -1.50977,-1.50976 a 0.50083743,0.50083743 0 0 0 -0.002,0 z m 22.32422,0.40429 c -0.17197,-0.001 -0.31648,0.10046 -0.33008,0.23047 -0.0151,0.13644 0.12245,0.257 0.30273,0.26758 0.17991,0.0113 0.33916,-0.0925 0.35352,-0.22851 0.0151,-0.13607 -0.12126,-0.25624 -0.30078,-0.26758 -0.008,-5.3e-4 -0.0159,-0.001 -0.0234,-0.002 a 0.10902478,0.0825185 0 0 0 -0.002,0 z m -9.48047,0.002 v 0.002 c -0.17235,0.004 -0.31389,0.10946 -0.32032,0.24023 -5.6e-4,0.0113 0.0197,0.016 0.0234,0.0274 -0.008,-2.7e-4 -0.0118,-0.004 -0.0156,-0.004 -0.18029,8e-5 -0.32775,0.11161 -0.32813,0.24805 -2.6e-4,0.13644 0.14747,0.25 0.32813,0.25 0.14097,-4e-5 0.241,-0.077 0.28711,-0.17188 0.0491,0.0227 0.0977,0.0469 0.1582,0.0469 0.0994,-4e-5 0.18172,-0.0381 0.24219,-0.0918 0.0627,0.0476 0.14537,0.0788 0.24023,0.0762 0.18029,-0.004 0.32283,-0.12137 0.31641,-0.25781 -0.008,-0.13644 -0.15956,-0.24515 -0.33985,-0.24023 -0.10998,0.003 -0.19097,0.0541 -0.24804,0.11914 -0.008,-0.008 -0.01,-0.0159 -0.0137,-0.0234 l 0.01,0.0117 c -0.0113,-0.12662 -0.14859,-0.22751 -0.3164,-0.23242 -0.008,-2.3e-4 -0.0159,-2.3e-4 -0.0234,0 z m -3.27735,0.76172 c -0.57984,2.1e-4 -1.08147,0.33765 -1.33398,0.82226 -0.11314,0.0395 -0.2048,0.10925 -0.20508,0.20899 -1.1e-4,0.0517 0.038,0.0928 0.0742,0.13281 -0.0267,0.11157 -0.0449,0.22645 -0.0449,0.3457 -2.7e-4,0.17512 0.0362,0.34107 0.0918,0.49805 -7.3e-4,0.004 -0.008,0.007 -0.008,0.0117 10e-6,0.0181 0.0204,0.0298 0.0254,0.0469 0.16083,0.40122 0.49028,0.71473 0.89844,0.86133 0.0593,0.0665 0.1429,0.11719 0.25586,0.11719 0.0265,4e-5 0.0478,-0.0177 0.0742,-0.0215 -0.002,0.008 -0.0119,0.0139 -0.0156,0.0215 -0.0113,0.13682 0.12831,0.25655 0.3086,0.26562 0.18066,0.008 0.33947,-0.0956 0.35156,-0.23242 0.005,-0.0471 -0.0183,-0.087 -0.0488,-0.125 0.15203,-0.0454 0.29556,-0.10922 0.42383,-0.19726 0.045,0.11517 0.18184,0.19856 0.34375,0.18359 0.18028,-0.0151 0.30979,-0.14286 0.28711,-0.2793 -0.0212,-0.11865 -0.15216,-0.20196 -0.30664,-0.21094 0.20876,-0.25944 0.33844,-0.58357 0.33789,-0.93945 -6e-5,-0.15053 -0.0285,-0.29402 -0.0703,-0.43164 0.0326,0.01 0.0621,0.0253 0.0996,0.0254 0.18028,-7e-5 0.32774,-0.1116 0.32812,-0.24805 -7e-5,-0.11905 -0.11904,-0.20665 -0.26758,-0.23046 -0.0559,-0.0809 -0.15728,-0.13943 -0.28125,-0.13868 -0.003,4e-5 -0.008,-1.1e-4 -0.0117,0 0.0711,-0.0457 0.12148,-0.10838 0.1211,-0.18359 -8e-5,-0.13577 -0.14739,-0.24671 -0.32617,-0.24805 h -0.002 -0.002 c -0.14662,0.001 -0.25104,0.0835 -0.29102,0.18555 -0.23424,-0.15 -0.51035,-0.24013 -0.80664,-0.24023 z m 10.21094,0.043 c -0.18028,8e-5 -0.32775,0.11161 -0.32812,0.24805 -4e-5,0.0488 0.0433,0.0869 0.0781,0.12695 -0.003,0.0151 -0.008,0.0275 -0.008,0.043 7e-5,0.13644 0.14784,0.24805 0.32812,0.24805 0.18067,1.9e-4 0.3297,-0.11161 0.33008,-0.24805 -7e-5,-0.0491 -0.0433,-0.0869 -0.0781,-0.12695 0.003,-0.0151 0.008,-0.0271 0.008,-0.043 -8e-5,-0.13644 -0.1498,-0.24805 -0.33008,-0.24805 z m -7.53711,0.11133 c -0.18028,4e-5 -0.32775,0.11161 -0.32812,0.24805 7e-5,0.13644 0.14784,0.25 0.32812,0.25 0.0302,-4e-5 0.0577,-0.0198 0.0879,-0.0273 0.0518,0.0865 0.14468,0.15625 0.27735,0.15625 0.0503,-4e-5 0.0878,-0.0267 0.13086,-0.041 0.0408,0.11868 0.1852,0.20489 0.3496,0.1875 0.17651,-0.0189 0.30034,-0.1455 0.2754,-0.2793 -0.0227,-0.12434 -0.16845,-0.21585 -0.33399,-0.21093 -0.0113,2.6e-4 -0.0217,6e-5 -0.0293,0.002 a 0.10902478,0.0825185 0 0 0 -0.002,0 c -0.0378,0.004 -0.0585,0.0274 -0.0898,0.041 -0.034,-0.10809 -0.14538,-0.19726 -0.29883,-0.19726 -0.0302,4e-5 -0.0577,0.0198 -0.0879,0.0273 -0.0518,-0.0865 -0.14506,-0.15625 -0.27734,-0.15625 z m 48.58008,0.40235 c -0.82923,-10e-4 -1.51142,0.68053 -1.51172,1.50976 -10e-4,0.83029 0.6814,1.51301 1.51172,1.51172 0.82919,-3e-4 1.51101,-0.68253 1.50977,-1.51172 -3.4e-4,-0.82813 -0.68168,-1.50946 -1.50977,-1.50976 z m -35.51172,0.56836 c -0.83361,0.034 -1.49305,0.74642 -1.46094,1.58007 0.0333,0.83475 0.7473,1.49469 1.58204,1.46094 0.83474,-0.034 1.49468,-0.74728 1.46093,-1.58203 a 0.50083743,0.50083743 0 0 0 0,-0.002 c -0.0348,-0.83362 -0.74836,-1.49082 -1.58203,-1.45703 z m -12.3789,0.26757 c -0.15837,0.004 -0.29216,0.0938 -0.31446,0.21289 -0.0265,0.13456 0.10166,0.26198 0.2793,0.28125 0.17764,0.0189 0.34382,-0.0764 0.36914,-0.21093 0.0265,-0.13493 -0.0993,-0.26236 -0.27734,-0.28125 a 0.10902478,0.0825185 0 0 0 -0.002,0 c -0.0189,-10e-4 -0.0381,-0.002 -0.0547,-0.002 z m -0.92188,0.44922 c -0.17183,-0.002 -0.31855,0.0986 -0.33398,0.22852 -10e-4,0.0113 0.0117,0.0199 0.0117,0.0312 -0.0476,-0.0189 -0.0948,-0.0394 -0.15039,-0.0391 -0.054,10e-4 -0.0953,0.0316 -0.14062,0.0527 -0.0404,-0.0227 -0.074,-0.0553 -0.125,-0.0625 -0.0189,-0.003 -0.0377,-0.004 -0.0547,-0.004 a 0.10902478,0.0825185 0 0 0 -0.002,0 c -0.15836,-0.001 -0.29707,0.0852 -0.32617,0.20313 -0.034,0.13342 0.0852,0.26412 0.26171,0.28906 a 0.10902478,0.0825185 0 0 0 0.002,0 c 0.0797,0.0113 0.14719,-0.0268 0.21484,-0.0566 0.0601,0.034 0.12098,0.0761 0.19922,0.0742 0.0631,0.0813 0.16453,0.14113 0.29492,0.13281 0.18142,-0.0113 0.31823,-0.13391 0.30274,-0.27148 -0.004,-0.042 -0.0396,-0.0738 -0.0684,-0.10742 0.12245,-0.0302 0.22656,-0.0948 0.23828,-0.19727 0.0151,-0.13644 -0.1205,-0.25939 -0.30078,-0.27148 -0.007,-4.6e-4 -0.0145,-10e-4 -0.0215,-0.002 z m 9.56836,0.18555 c -0.72662,0.0302 -1.33333,0.58363 -1.42774,1.30469 -0.10683,0.81577 0.47722,1.57471 1.29297,1.68164 0.44788,0.0587 0.87433,-0.097 1.18946,-0.37891 0.0148,0.11158 0.12279,0.2073 0.27539,0.22461 0.1799,0.0189 0.35012,-0.0749 0.37695,-0.21094 0.0265,-0.13606 -0.0978,-0.26474 -0.27734,-0.28515 -0.0189,-10e-4 -0.0381,-0.004 -0.0566,-0.004 v 0.002 c -0.0369,5.9e-4 -0.0644,0.0201 -0.0977,0.0293 0.13928,-0.1939 0.23855,-0.41863 0.27148,-0.66992 0.022,-0.168 0.007,-0.33224 -0.0254,-0.49024 0.0948,-0.0439 0.16797,-0.10975 0.16797,-0.19921 -7e-5,-0.13645 -0.14784,-0.24805 -0.32812,-0.24805 -0.003,0 -0.005,0.002 -0.008,0.002 -0.22591,-0.3916 -0.61937,-0.68279 -1.09766,-0.74609 h -0.002 c -0.0839,-0.0113 -0.16936,-0.0155 -0.25391,-0.0117 z m -13.60742,0.1875 c -0.18255,10e-4 -0.33197,0.11557 -0.33008,0.25391 0.002,0.13833 0.15534,0.25113 0.33789,0.25 0.18255,-0.001 0.32964,-0.11558 0.32813,-0.25391 -0.002,-0.13833 -0.15339,-0.25113 -0.33594,-0.25 z m 11.14258,0.1875 c -0.18029,4e-5 -0.32775,0.11356 -0.32813,0.25 4e-5,0.13644 0.14784,0.24805 0.32813,0.24805 0.18028,-8e-5 0.3297,-0.11161 0.33007,-0.24805 -7e-5,-0.13644 -0.14979,-0.25 -0.33007,-0.25 z m -7.33204,0.28906 c -0.18028,8e-5 -0.32774,0.11161 -0.32812,0.24805 -2.7e-4,0.13644 0.14746,0.25 0.32812,0.25 0.18067,-4e-5 0.33008,-0.11356 0.33008,-0.25 -7e-5,-0.13644 -0.14979,-0.24805 -0.33008,-0.24805 z m 4.69727,0.26953 c -0.002,0.01 -0.006,0.0193 -0.004,0.0293 0.0113,0.12359 0.1428,0.21018 0.30078,0.22266 -0.0469,0.0431 -0.084,0.0946 -0.084,0.15429 4e-5,0.13229 0.14173,0.23734 0.31445,0.24414 -0.0847,0.0488 -0.1478,0.11576 -0.14062,0.20118 0.008,0.0975 0.10221,0.16173 0.21484,0.19726 -0.0631,0.0454 -0.10547,0.10901 -0.10547,0.17969 4e-5,0.0189 0.0236,0.0341 0.0274,0.0508 -0.0227,-0.004 -0.043,-0.0195 -0.0684,-0.0195 0.0265,-0.13153 -0.0882,-0.25744 -0.26172,-0.28125 -0.0189,-0.003 -0.0385,-0.004 -0.0566,-0.004 -0.15874,-6e-4 -0.29663,0.0868 -0.32422,0.20508 -0.002,0.008 0.004,0.0178 0.004,0.0254 -0.10054,0.0113 -0.1809,0.0593 -0.22852,0.12695 -0.13984,0.0189 -0.26109,0.0901 -0.27734,0.20118 -0.0189,0.13606 0.11148,0.26222 0.29101,0.27734 0.0495,0.004 0.0961,-0.0121 0.14258,-0.0234 0.0133,0.009 0.0278,0.0177 0.041,0.0274 -0.18706,0.16047 -0.33157,0.36427 -0.42188,0.59375 -0.0346,-0.009 -0.0611,-0.0298 -0.0996,-0.0293 -0.0669,6e-4 -0.124,0.0213 -0.17578,0.0508 0.008,-0.0189 0.0293,-0.0292 0.0293,-0.0508 0,-0.0495 -0.0188,-0.0967 -0.0547,-0.13672 0.0862,-0.0514 0.14799,-0.1213 0.13477,-0.20898 -0.0113,-0.0767 -0.079,-0.13333 -0.16211,-0.17188 0.034,-0.0393 0.0937,-0.0633 0.0937,-0.11133 -4e-5,-0.0828 -0.0633,-0.14605 -0.14649,-0.1914 0.10469,-0.042 0.18788,-0.10984 0.1875,-0.20508 -2e-5,-0.0586 -0.0353,-0.10466 -0.084,-0.14258 0.0745,-0.19028 0.11328,-0.39773 0.10351,-0.61328 0.0493,-0.0175 0.0912,-0.0472 0.13868,-0.0684 -0.0189,0.0272 -0.0523,0.046 -0.0566,0.0781 -0.0189,0.13606 0.11345,0.2614 0.29297,0.27539 0.0862,0.008 0.14908,-0.0427 0.21485,-0.082 0.0378,0.0113 0.0732,0.0234 0.11328,0.0234 0.18028,-4e-5 0.3297,-0.11356 0.33008,-0.25 -8e-5,-0.13644 -0.1498,-0.24805 -0.33008,-0.24805 -0.0756,-1.1e-4 -0.1281,0.0434 -0.18555,0.0781 -0.0265,-0.008 -0.0478,-0.0138 -0.0742,-0.0176 -0.0108,-9.1e-4 -0.0186,0.006 -0.0293,0.006 0.15994,-0.10514 0.28875,-0.24186 0.39648,-0.39258 z m -4.55469,0.48633 c -0.11641,0.008 -0.19689,0.0737 -0.24414,0.15039 -0.004,0 -0.0118,-1.9e-4 -0.0156,0 -0.15837,0.008 -0.2897,0.0993 -0.3086,0.21875 -0.0189,0.11301 0.0784,0.21151 0.21485,0.25196 0.008,0.0151 0.0237,0.0254 0.0312,0.0371 -0.0892,0.0408 -0.15575,0.10158 -0.16407,0.1836 -0.0302,-0.008 -0.0507,-0.0234 -0.082,-0.0234 -0.0227,-3.8e-4 -0.0452,0.001 -0.0664,0.004 -0.17575,0.0227 -0.29385,0.15407 -0.26172,0.28711 0.003,0.0151 0.0237,0.0239 0.0312,0.0391 -0.0598,0.0213 -0.10578,0.0547 -0.14063,0.0957 -0.17247,-0.0689 -0.35981,-0.10781 -0.55468,-0.10742 -0.0474,-2.3e-4 -0.0954,0.002 -0.14258,0.008 a 0.50083743,0.50083743 0 0 0 -0.008,0 c -0.5356,0.0563 -0.90273,0.43978 -1.11914,0.90625 -0.0234,1.2e-4 -0.0469,-0.003 -0.0703,-0.002 a 0.50083743,0.50083743 0 0 0 -0.002,0 c -0.72815,0.0401 -1.32916,0.60382 -1.41406,1.32812 -0.0809,0.68546 0.35917,1.28175 0.98632,1.52735 0.0317,0.0884 0.0971,0.14958 0.14454,0.23047 -0.41077,0.24756 -0.71033,0.61536 -0.74805,1.11328 -0.13217,-0.0416 -0.23713,-0.14308 -0.38086,-0.14649 h -0.002 c -0.0996,-0.002 -0.20079,0.006 -0.29883,0.0215 -0.80719,0.14853 -1.35049,0.93477 -1.20313,1.74219 0.0163,0.0892 0.10099,0.14423 0.13282,0.22851 -0.4394,0.2177 -0.80087,0.56222 -0.86524,1.07813 -0.10125,0.81664 0.48627,1.57305 1.30274,1.67578 0.81663,0.10129 1.57308,-0.48628 1.67578,-1.30274 0.0302,-0.24151 -0.17039,-0.41689 -0.25196,-0.63867 0.52792,-0.22072 0.846,-0.68257 0.87891,-1.25195 0.1663,0.0639 0.29492,0.20117 0.48242,0.20117 0.82921,-3e-4 1.51105,-0.68253 1.50977,-1.51172 -3.4e-4,-0.26683 -0.25073,-0.41845 -0.37891,-0.64258 0.0548,-0.034 0.12371,-0.0376 0.17383,-0.0762 0.27776,0.31748 0.65501,0.53692 1.10547,0.53711 0.82809,-3.4e-4 1.50944,-0.68167 1.50976,-1.50977 -2.2e-4,-0.58945 -0.34803,-1.09961 -0.8457,-1.34765 0.006,-0.0186 0.0292,-0.0309 0.0293,-0.0508 -4e-5,-0.13644 -0.14942,-0.25038 -0.33008,-0.25 -0.12815,2e-5 -0.21734,0.0666 -0.27149,0.14843 -0.0309,-0.002 -0.0604,-0.01 -0.0918,-0.01 -0.0957,4e-5 -0.15512,0.0861 -0.2461,0.10352 0.11891,-0.24265 0.2598,-0.4817 0.23047,-0.76758 a 0.50083743,0.50083743 0 0 0 0,-0.002 c -0.0167,-0.16043 -0.0617,-0.31039 -0.125,-0.45117 0.0446,0.0173 0.0836,0.0449 0.13672,0.0449 0.18066,2.3e-4 0.32775,-0.11356 0.32813,-0.25 -8e-5,-0.13682 -0.14747,-0.24842 -0.32813,-0.24804 -0.15715,6e-5 -0.27296,0.0909 -0.30469,0.20312 -0.0554,-0.0765 -0.10542,-0.15803 -0.17382,-0.22265 0.0688,-0.0387 0.11747,-0.0971 0.1289,-0.16602 0.008,-0.0397 -0.0377,-0.0688 -0.0547,-0.10547 0.1149,-0.0378 0.18423,-0.1133 0.19141,-0.20703 0.0378,0.0113 0.0647,0.0352 0.10547,0.0352 0.18028,-4e-5 0.32812,-0.11356 0.32812,-0.25 -7e-5,-0.0439 -0.0541,-0.0684 -0.082,-0.10547 0.0113,-0.004 0.0258,-0.008 0.0371,-0.0117 0.0605,0.0522 0.14392,0.0879 0.24219,0.0879 0.18028,-8e-5 0.32775,-0.11161 0.32813,-0.24805 -8e-5,-0.13644 -0.14785,-0.24804 -0.32813,-0.24804 -0.0189,0 -0.035,0.0138 -0.0547,0.0176 0.0265,-0.0401 0.0572,-0.0781 0.0508,-0.125 -0.0189,-0.1251 -0.15829,-0.22108 -0.32421,-0.2207 l -0.002,-0.006 c -0.0113,-4e-5 -0.0217,-9.4e-4 -0.0293,0 a 0.10902478,0.0825185 0 0 0 -0.002,0 z m -1.02344,0.14649 c -0.0107,10e-5 -0.0206,10e-4 -0.0312,0.002 a 0.10902478,0.0825185 0 0 0 -0.002,0 c -0.18066,0.0151 -0.3118,0.14052 -0.29101,0.27734 0.0227,0.13682 0.18652,0.23658 0.36718,0.22071 0.18067,-0.0151 0.31338,-0.14053 0.29297,-0.27735 -0.0188,-0.12685 -0.16553,-0.22374 -0.33398,-0.22265 z m -1.51757,0.008 c -0.18029,4e-5 -0.32775,0.1116 -0.32813,0.24804 8e-5,0.12624 0.13278,0.22317 0.29492,0.23829 -0.0113,0.0264 -0.043,0.0471 -0.043,0.0781 0,0.0609 0.0379,0.11474 0.0859,0.1582 -0.0809,0.0518 -0.14062,0.12004 -0.1289,0.20508 0.0189,0.13644 0.18262,0.23664 0.36328,0.22266 0.18066,-0.0151 0.31501,-0.13662 0.29687,-0.27344 -0.008,-0.0503 -0.0459,-0.0899 -0.0859,-0.12695 0.0729,-0.0457 0.12501,-0.10882 0.125,-0.18555 -3e-5,-0.12623 -0.1312,-0.22316 -0.29296,-0.23828 0.0113,-0.0265 0.043,-0.0471 0.043,-0.0781 -7e-5,-0.13644 -0.14784,-0.24804 -0.32812,-0.24804 z m 21.26757,0.0156 c -0.34695,-5.3e-4 -0.58545,0.26684 -0.8496,0.47657 -0.11415,-0.0416 -0.22442,-0.0965 -0.34571,-0.10938 -0.82604,-0.0862 -1.57802,0.52378 -1.66406,1.34961 -0.0862,0.82568 0.52204,1.57744 1.34766,1.66406 a 0.50083743,0.50083743 0 0 0 0.002,0 c 0.39619,0.0404 0.68306,-0.25625 0.98633,-0.49414 0.16981,0.0643 0.34078,0.13281 0.52343,0.13281 0.82811,-3e-4 1.50946,-0.68163 1.50977,-1.50976 -3.2e-4,-0.8281 -0.68167,-1.50946 -1.50977,-1.50977 z m -24.29101,0.20703 c -0.18028,4e-5 -0.32775,0.11356 -0.32813,0.25 8e-5,0.13645 0.14785,0.24805 0.32813,0.24805 0.18028,-7e-5 0.3297,-0.1116 0.33008,-0.24805 -8e-5,-0.13644 -0.1498,-0.25 -0.33008,-0.25 z m -3.12695,0.16993 c -0.16075,0.004 -0.29629,0.0962 -0.31836,0.21679 -0.0246,0.13682 0.10434,0.26469 0.28515,0.28321 0.1804,0.0189 0.35021,-0.078 0.375,-0.21485 0.0249,-0.13682 -0.10434,-0.26468 -0.28515,-0.2832 -0.0185,-0.001 -0.038,-0.002 -0.0566,-0.002 z m 4.63672,0.0371 c -0.18029,7e-5 -0.32971,0.11355 -0.33008,0.25 -2.7e-4,0.13644 0.14941,0.24804 0.33008,0.24804 0.18066,-4e-5 0.32812,-0.1116 0.32812,-0.24804 -4e-5,-0.13645 -0.14784,-0.25 -0.32812,-0.25 z m 10.68359,0.0645 c -0.18028,4e-5 -0.3297,0.1116 -0.33008,0.24805 8e-5,0.13644 0.1498,0.25 0.33008,0.25 0.18028,-8e-5 0.32775,-0.11356 0.32812,-0.25 -7e-5,-0.13645 -0.14784,-0.24805 -0.32812,-0.24805 z m -9.9375,0.084 c -0.18028,8e-5 -0.32775,0.11356 -0.32813,0.25 -3e-4,0.13682 0.14747,0.24805 0.32813,0.24805 0.18066,1.9e-4 0.32812,-0.11123 0.32812,-0.24805 -7e-5,-0.13644 -0.14746,-0.25037 -0.32812,-0.25 z m 3.86133,0.13282 c -0.0113,5.6e-4 -0.0237,0.003 -0.0312,0.004 -0.17726,0.0227 -0.29983,0.14903 -0.27149,0.2832 0.0302,0.13418 0.19774,0.22663 0.375,0.20508 0.17726,-0.0227 0.29946,-0.14903 0.27149,-0.2832 -0.0265,-0.11868 -0.15962,-0.20747 -0.31836,-0.20898 h -0.004 c -0.008,-4e-5 -0.0139,-3.4e-4 -0.0215,0 z m 12.22656,0.0215 v 0.002 c -0.78053,-0.008 -1.44311,0.59695 -1.50586,1.375 a 0.50083743,0.50083743 0 0 0 0,0.002 c -0.0479,0.59977 0.33331,1.05472 0.83008,1.33203 -0.0953,0.19993 -0.28662,0.35112 -0.28711,0.57812 a 0.50083743,0.50083743 0 0 0 0,0.002 c 2.3e-4,0.61118 0.42361,1.04067 0.95117,1.27734 -0.22295,0.26343 -0.39439,0.58068 -0.39453,0.94922 -7.8e-4,0.50347 0.28872,0.88632 0.67187,1.16211 -0.48091,0.25398 -0.86306,0.66325 -0.86328,1.24023 -2e-5,0.20523 0.13317,0.35717 0.20899,0.53711 -0.61103,0.12057 -1.12601,0.55699 -1.21875,1.18945 -0.1115,0.7654 0.4157,1.4504 1.15429,1.62891 -0.0603,0.16214 -0.19523,0.28688 -0.19531,0.46875 2.7e-4,0.71354 0.54499,1.23278 1.21485,1.38672 -0.20247,0.25701 -0.37485,0.54917 -0.375,0.89844 3.1e-4,0.82919 0.68251,1.51101 1.51171,1.50976 0.56359,-7e-5 0.98299,-0.3685 1.24219,-0.83984 0.0511,0.004 0.099,0.0254 0.15039,0.0254 0.81891,-0.0113 1.4821,-0.69672 1.46875,-1.51563 -0.0125,-0.81887 -0.69673,-1.48209 -1.51562,-1.46875 a 0.50083743,0.50083743 0 0 0 -0.002,0 c -0.30701,0.004 -0.56904,0.1486 -0.80664,0.31641 0.028,-0.11414 0.13083,-0.19237 0.13086,-0.31445 -7e-5,-0.30161 -0.0924,-0.58819 -0.25195,-0.83008 0.39491,-0.31257 0.68356,-0.73944 0.62109,-1.27149 -0.0552,-0.46653 -0.36533,-0.80135 -0.74804,-1.03515 0.15118,-0.23773 0.42936,-0.39553 0.42968,-0.6875 -1.8e-4,-0.50132 -0.28698,-0.88478 -0.66796,-1.16016 0.48102,-0.25474 0.86222,-0.66456 0.86132,-1.24219 -2.3e-4,-0.612 -0.4246,-1.04116 -0.95312,-1.27734 0.22295,-0.26343 0.39439,-0.58068 0.39453,-0.94922 -5.2e-4,-0.55789 -0.36159,-0.96344 -0.82031,-1.22461 0.0733,-0.15874 0.23004,-0.27323 0.24414,-0.45117 0.0653,-0.81838 -0.55659,-1.54628 -1.375,-1.61133 a 0.50083743,0.50083743 0 0 0 -0.008,0 c -0.0325,-0.002 -0.065,-0.002 -0.0977,-0.002 z m -11.43164,0.9082 c -0.0113,3.8e-4 -0.0219,6.7e-4 -0.0332,0.002 a 0.10902478,0.0825185 0 0 0 -0.002,0 c -0.0518,0.008 -0.0979,0.0238 -0.14062,0.0469 -0.14703,0.0189 -0.26254,0.11009 -0.27539,0.22461 -0.0113,0.0813 0.0362,0.15758 0.11523,0.20898 0.0265,0.11641 0.16283,0.20666 0.32422,0.20704 0.18028,-4e-5 0.32775,-0.11356 0.32812,-0.25 -2.2e-4,-0.0302 -0.016,-0.0568 -0.0273,-0.084 0.0302,-0.045 0.0645,-0.0884 0.0547,-0.13867 -0.0227,-0.12737 -0.17405,-0.22247 -0.34375,-0.2168 z m -7.83203,0.008 c -0.18066,-2.3e-4 -0.32775,0.1116 -0.32813,0.24804 -3e-5,0.0147 0.0182,0.0231 0.0215,0.0371 -0.70154,0.20213 -1.18251,0.89187 -1.09571,1.63867 0.0965,0.83029 0.86111,1.43442 1.69141,1.33789 0.82907,-0.0964 1.4327,-0.85823 1.33789,-1.6875 -0.0168,-0.14573 -0.0604,-0.28233 -0.11523,-0.41211 0.095,-0.0437 0.16992,-0.10945 0.16992,-0.19921 -8e-5,-0.13644 -0.14942,-0.25038 -0.33008,-0.25 -0.0461,2e-5 -0.0792,0.0239 -0.11914,0.0371 -0.23524,-0.26258 -0.54429,-0.45335 -0.9043,-0.50586 -0.003,-0.13444 -0.14979,-0.24414 -0.32812,-0.24414 z m 1.44922,0.041 c -0.0113,2.7e-4 -0.0217,6e-5 -0.0293,0.002 a 0.10902478,0.0825185 0 0 0 -0.002,0 c -0.17802,0.0189 -0.30267,0.1467 -0.27735,0.28125 0.0265,0.13456 0.19113,0.22984 0.36914,0.21094 0.17802,-0.0189 0.30462,-0.1467 0.2793,-0.28125 -0.0227,-0.1251 -0.17121,-0.2178 -0.33789,-0.21289 z m -8.33789,0.22461 c -0.82811,3.4e-4 -1.50946,0.68167 -1.50977,1.50977 2.9e-4,0.7666 0.60781,1.35204 1.35156,1.44336 -0.0627,0.16516 -0.19914,0.29252 -0.19922,0.47851 1.5e-4,0.36926 0.17088,0.68755 0.39453,0.95117 -0.37238,0.3137 -0.63977,0.73162 -0.58789,1.24805 0.0842,0.82938 0.83657,1.44285 1.66602,1.35938 0.82959,-0.0835 1.44469,-0.83619 1.36133,-1.66602 -0.031,-0.30576 -0.20647,-0.54707 -0.39063,-0.77148 0.33589,-0.27818 0.576,-0.65557 0.57617,-1.1211 -2.8e-4,-0.7666 -0.60781,-1.35204 -1.35156,-1.44336 0.0627,-0.16516 0.19915,-0.29252 0.19922,-0.47851 -3.1e-4,-0.8281 -0.68167,-1.50943 -1.50976,-1.50977 z m 13.86523,0.0586 c -0.0113,-7e-5 -0.0219,9.7e-4 -0.0332,0.002 -0.17991,0.0113 -0.31584,0.13542 -0.29883,0.27148 0.0151,0.13644 0.17909,0.23746 0.35937,0.22461 0.0665,-0.004 0.12703,-0.0229 0.17579,-0.0547 -0.0578,0.045 -0.0938,0.10693 -0.0938,0.17383 8e-5,0.13644 0.14785,0.24805 0.32813,0.24805 0.0113,0 0.0238,-0.0117 0.0352,-0.0117 -0.003,0.0151 -0.0234,0.0228 -0.0234,0.0391 -3e-4,0.13644 0.14942,0.25 0.33008,0.25 0.18066,-4e-5 0.32812,-0.11356 0.32812,-0.25 -7e-5,-0.13644 -0.14784,-0.24804 -0.32812,-0.24804 -0.0113,0 -0.0238,0.0117 -0.0352,0.0117 0.003,-0.0151 0.0234,-0.0228 0.0234,-0.0391 -8e-5,-0.13644 -0.14822,-0.25 -0.32813,-0.25 -0.0869,0 -0.16565,0.028 -0.22461,0.0703 0.0767,-0.0514 0.12154,-0.12854 0.11133,-0.21093 -0.0151,-0.127 -0.1576,-0.22543 -0.32617,-0.22657 z m 2.32227,0.33008 c -0.18029,8e-5 -0.33008,0.11161 -0.33008,0.24805 4e-5,0.13644 0.15017,0.24805 0.33008,0.24805 0.18028,-4e-5 0.32774,-0.11161 0.32812,-0.24805 -7e-5,-0.13644 -0.14784,-0.24805 -0.32812,-0.24805 z m 35.91015,0.67383 c -0.82919,3.4e-4 -1.51105,0.68253 -1.50976,1.51172 3.4e-4,0.82809 0.68167,1.50943 1.50976,1.50976 0.82923,10e-4 1.51142,-0.68053 1.51172,-1.50976 10e-4,-0.83033 -0.68139,-1.513 -1.51172,-1.51172 z m -36.77148,0.16992 c -0.18029,4e-5 -0.32775,0.11356 -0.32813,0.25 -3e-4,0.13644 0.14747,0.24805 0.32813,0.24805 0.18066,-8e-5 0.32812,-0.11161 0.32812,-0.24805 -7e-5,-0.13644 -0.14784,-0.25 -0.32812,-0.25 z m -29.2168,0.12696 c -0.8281,3.4e-4 -1.50943,0.68167 -1.50977,1.50976 3.3e-4,0.82813 0.68167,1.50946 1.50977,1.50977 0.82811,-3.1e-4 1.50945,-0.68164 1.50977,-1.50977 -3.3e-4,-0.82809 -0.68167,-1.50942 -1.50977,-1.50976 z m 31.18359,0.89453 c -0.18028,3e-5 -0.32774,0.1116 -0.32812,0.24804 -3e-4,0.13644 0.14746,0.24805 0.32812,0.24805 0.18067,-7e-5 0.33008,-0.11123 0.33008,-0.24805 -7e-5,-0.13644 -0.14979,-0.24804 -0.33008,-0.24804 z m -45.55078,0.13281 c -0.73846,0.0265 -1.35747,0.58435 -1.45898,1.31641 -0.11373,0.83047 0.47796,1.60807 1.30859,1.7207 0.82876,0.11263 1.60478,-0.47588 1.71875,-1.30469 0.11373,-0.83047 -0.47796,-1.60811 -1.30859,-1.7207 a 0.50083743,0.50083743 0 0 0 -0.002,0 c -0.0851,-0.0113 -0.17011,-0.0155 -0.25586,-0.0117 z m 43.42969,0.0957 c -0.18028,4e-5 -0.32775,0.11356 -0.32812,0.25 -3.1e-4,0.13644 0.14746,0.24805 0.32812,0.24805 0.18028,-4e-5 0.32813,-0.11161 0.32813,-0.24805 -8e-5,-0.13644 -0.14785,-0.25 -0.32813,-0.25 z m -22.13086,0.13086 c -0.8281,3e-4 -1.50945,0.68167 -1.50976,1.50977 -10e-4,0.82919 0.68056,1.51141 1.50976,1.51172 0.8292,-3.1e-4 1.51104,-0.68253 1.50977,-1.51172 -3.2e-4,-0.82813 -0.68166,-1.50947 -1.50977,-1.50977 z m 23.36914,0.043 c -0.18028,4e-5 -0.32775,0.11161 -0.32812,0.24805 7e-5,0.13644 0.14784,0.24804 0.32812,0.24804 0.18066,1.9e-4 0.3297,-0.11122 0.33008,-0.24804 -8e-5,-0.13644 -0.14942,-0.24843 -0.33008,-0.24805 z m 25.70703,0.3457 c -0.82813,3.4e-4 -1.50946,0.68167 -1.50976,1.50977 3e-4,0.82809 0.68167,1.50947 1.50976,1.50976 0.8281,-2.9e-4 1.50943,-0.68163 1.50977,-1.50976 -3.4e-4,-0.8281 -0.68167,-1.50943 -1.50977,-1.50977 z m -45.64843,0.51172 c -0.82811,3e-4 -1.50945,0.68167 -1.50977,1.50977 -10e-4,0.82919 0.68055,1.51141 1.50977,1.51172 0.83029,10e-4 1.513,-0.68144 1.51171,-1.51172 -3.2e-4,-0.82919 -0.68253,-1.51105 -1.51171,-1.50977 z m 17.84179,0.80469 c -0.0363,-3.4e-4 -0.0714,-3.1e-4 -0.10742,0.002 a 0.50083743,0.50083743 0 0 0 -0.002,0 c -0.0488,0.003 -0.0983,0.01 -0.14649,0.0176 -0.8146,0.13077 -1.37685,0.90997 -1.24609,1.72461 0.13088,0.8146 0.90999,1.37687 1.72461,1.24609 0.81393,-0.13077 1.3756,-0.90877 1.24609,-1.72265 -0.11486,-0.71974 -0.73802,-1.25821 -1.46679,-1.26758 a 0.50083743,0.50083743 0 0 0 -0.002,0 z m 48.01172,0.28906 v 0.002 c -0.73799,0.0151 -1.3638,0.56674 -1.47266,1.29687 -0.12358,0.82587 0.45539,1.60872 1.28126,1.73242 0.82585,0.12359 1.60871,-0.45538 1.73242,-1.28125 0.12359,-0.82492 -0.45495,-1.6054 -1.2793,-1.73047 -0.0858,-0.0113 -0.17321,-0.0195 -0.25977,-0.0195 a 0.50083743,0.50083743 0 0 0 -0.002,0 z m -42.92187,1.16406 c -0.18029,4e-5 -0.3297,0.11161 -0.33008,0.24805 7e-5,0.13644 0.14979,0.25 0.33008,0.25 0.18028,-4e-5 0.32774,-0.11356 0.32812,-0.25 -4e-5,-0.13644 -0.14784,-0.24804 -0.32812,-0.24805 z m -16.20508,1.22071 c -0.29991,3.8e-4 -0.57862,0.12509 -0.82617,0.29101 -0.53683,0.21015 -0.93116,0.69153 -0.97461,1.26954 a 0.50083743,0.50083743 0 0 0 0,0.002 c -0.059,0.82526 0.57313,1.55323 1.39843,1.61133 0.33423,0.0227 0.65603,-0.0902 0.9336,-0.27539 0.57651,-0.22413 0.97884,-0.76219 0.97851,-1.38672 0.001,-0.82919 -0.68056,-1.51142 -1.50976,-1.51172 z m 31.44922,0.29883 c -0.78675,0.0378 -1.41891,0.68335 -1.4375,1.4707 -0.02,0.82658 0.64416,1.52279 1.4707,1.54297 0.82656,0.0189 1.52282,-0.64416 1.54297,-1.47071 0.02,-0.82653 -0.64416,-1.52282 -1.4707,-1.54296 -0.0333,-0.001 -0.0665,-0.001 -0.0996,0 a 0.50083743,0.50083743 0 0 0 -0.006,0 z m -23.23828,1.3164 c -0.82811,3e-4 -1.50946,0.68164 -1.50977,1.50977 3.2e-4,0.82809 0.68167,1.50942 1.50977,1.50976 0.82919,10e-4 1.5114,-0.68057 1.51171,-1.50976 -3.1e-4,-0.82923 -0.68251,-1.51105 -1.51171,-1.50977 z m 6.45312,1.35352 c -0.0506,0.002 -0.10031,0.008 -0.15039,0.0156 a 0.50083743,0.50083743 0 0 0 -0.002,0 c -0.23783,0.0353 -0.45394,0.13966 -0.64844,0.27735 -0.6758,0.10917 -1.20944,0.66554 -1.26953,1.35937 -0.0421,0.49215 0.16953,0.9584 0.53711,1.27149 0.12368,0.7075 0.74182,1.2536 1.48242,1.2539 0.8281,-3.4e-4 1.50944,-0.68167 1.50977,-1.50976 a 0.50083743,0.50083743 0 0 0 0,-0.002 c -10e-4,-0.17726 -0.0655,-0.34433 -0.12696,-0.50976 0.1321,-0.27213 0.29601,-0.54235 0.25196,-0.84766 -0.11267,-0.77348 -0.80317,-1.34239 -1.58399,-1.30664 z m -35.97656,0.0449 c -0.8292,-10e-4 -1.5114,0.68058 -1.51172,1.50977 -10e-4,0.83032 0.68141,1.513 1.51172,1.51171 0.8292,-3.4e-4 1.51106,-0.68252 1.50976,-1.51171 -3.1e-4,-0.8281 -0.68167,-1.50943 -1.50976,-1.50977 z m 6.6582,0.24609 c -0.0489,10e-4 -0.0979,0.004 -0.14648,0.0117 a 0.50083743,0.50083743 0 0 0 -0.006,0 c -0.81693,0.11717 -1.39448,0.88622 -1.27735,1.70313 0.11581,0.81683 0.88429,1.39461 1.70118,1.27929 0.81808,-0.11565 1.39634,-0.88523 1.27929,-1.70312 -0.10862,-0.75969 -0.78222,-1.32125 -1.54883,-1.29102 z m 79.11328,0.19922 c -0.72858,0.004 -1.35405,0.53896 -1.47265,1.25781 -0.13531,0.81415 0.42394,1.59607 1.23828,1.73047 a 0.50083743,0.50083743 0 0 0 0.002,0 c 0.81351,0.13342 1.59269,-0.42703 1.72656,-1.24023 v -0.002 c 0.13229,-0.81245 -0.42594,-1.5922 -1.23828,-1.72657 -0.0843,-0.0151 -0.16849,-0.0176 -0.2539,-0.0176 a 0.50083743,0.50083743 0 0 0 -0.002,0 z m -53.72265,1.51758 c -0.05,-5.3e-4 -0.10062,0.002 -0.15039,0.008 a 0.50083743,0.50083743 0 0 0 -0.002,0 c -0.82666,0.079 -1.44301,0.82362 -1.36523,1.65039 0.0774,0.8278 0.82262,1.44494 1.65039,1.36719 0.30559,-0.0292 0.58297,-0.14842 0.80664,-0.33008 -0.26584,0.27269 -0.43344,0.64175 -0.43359,1.04883 3.2e-4,0.8281 0.68167,1.50946 1.50976,1.50977 0.0622,0 0.0998,-0.0588 0.16016,-0.0664 -0.0159,0.0873 -0.0976,0.14486 -0.0977,0.23633 -0.001,0.82919 0.68056,1.51142 1.50977,1.51172 0.82919,-3.4e-4 1.51104,-0.68253 1.50976,-1.51172 -3.1e-4,-0.82813 -0.68166,-1.50946 -1.50976,-1.50977 -0.0622,0 -0.0998,0.0588 -0.16016,0.0664 0.0159,-0.0873 0.0976,-0.14486 0.0977,-0.23633 -3.2e-4,-0.82813 -0.68166,-1.50946 -1.50977,-1.50976 -0.39869,1.4e-4 -0.76022,0.16171 -1.03125,0.41796 0.35252,-0.31087 0.56063,-0.77824 0.51367,-1.27734 -0.0724,-0.77 -0.72289,-1.367 -1.49609,-1.37305 z m -30.94922,1.23242 c -0.82812,3e-4 -1.50945,0.68164 -1.50977,1.50977 -10e-4,0.82919 0.68055,1.51141 1.50977,1.51172 0.82918,-3.1e-4 1.51104,-0.68253 1.50976,-1.51172 -3.1e-4,-0.8281 -0.68166,-1.50947 -1.50976,-1.50977 z m 41.61133,0.76563 c -0.82811,3e-4 -1.50946,0.68167 -1.50977,1.50976 3.1e-4,0.8281 0.68166,1.50943 1.50977,1.50977 0.82809,-3.4e-4 1.50945,-0.68167 1.50976,-1.50977 -3.1e-4,-0.82809 -0.68167,-1.50942 -1.50976,-1.50976 z m -21.46094,0.13281 c -0.8292,-10e-4 -1.5114,0.68058 -1.51172,1.50977 3.1e-4,0.82919 0.68251,1.51105 1.51172,1.50976 0.8281,-3.4e-4 1.50945,-0.68167 1.50976,-1.50976 -3.2e-4,-0.8281 -0.68167,-1.50943 -1.50976,-1.50977 z m -15.04297,0.2207 c -0.82811,3.4e-4 -1.50945,0.68167 -1.50977,1.50977 3.3e-4,0.82813 0.68167,1.50946 1.50977,1.50976 0.8292,0.001 1.5114,-0.68053 1.51172,-1.50976 -3.1e-4,-0.82919 -0.68251,-1.51105 -1.51172,-1.50977 z m 18.63867,0.89063 c -0.82921,-10e-4 -1.5114,0.68057 -1.51172,1.50976 2.3e-4,0.57491 0.37947,0.98344 0.85742,1.23828 -0.47012,0.25815 -0.84268,0.66297 -0.84179,1.23243 3.1e-4,0.82809 0.68166,1.50942 1.50976,1.50976 0.82921,0.001 1.51141,-0.68057 1.51172,-1.50976 1.1e-4,-0.0692 -0.0651,-0.11122 -0.0742,-0.17774 0.725,-0.10847 1.31612,-0.67661 1.31641,-1.42969 -3.1e-4,-0.82808 -0.68166,-1.50942 -1.50977,-1.50976 h -0.006 c -0.25447,-0.48393 -0.67896,-0.86226 -1.25195,-0.86328 z m -8.23633,0.74804 c -0.82808,3.5e-4 -1.50944,0.68168 -1.50976,1.50977 3.1e-4,0.8281 0.68166,1.50946 1.50976,1.50977 0.82922,10e-4 1.51141,-0.68054 1.51172,-1.50977 -3.2e-4,-0.82919 -0.6825,-1.51104 -1.51172,-1.50977 z m 14.60547,1.32422 c -0.82809,3.1e-4 -1.50944,0.68167 -1.50976,1.50977 3.1e-4,0.82809 0.68166,1.50942 1.50976,1.50977 0.82921,10e-4 1.51141,-0.68058 1.51172,-1.50977 -3.2e-4,-0.82923 -0.68252,-1.51105 -1.51172,-1.50977 z m 7.54297,1.80078 c -0.82809,3.1e-4 -1.50945,0.68168 -1.50976,1.50977 -10e-4,0.82923 0.68056,1.51138 1.50976,1.51172 0.82921,-3e-4 1.51105,-0.68249 1.50977,-1.51172 -3.3e-4,-0.82809 -0.68167,-1.50946 -1.50977,-1.50977 z m 28.43555,2.14063 c -0.84019,-0.0113 -1.5389,0.67544 -1.54688,1.51563 -0.008,0.83908 0.67653,1.53499 1.51563,1.54296 0.83799,0.008 1.5334,-0.67376 1.54297,-1.51172 0.0113,-0.83908 -0.67263,-1.53731 -1.51172,-1.54687 z m -15.49414,0.33398 c -0.78416,-10e-4 -1.4447,0.61052 -1.50196,1.39258 -0.0608,0.82315 0.5674,1.55173 1.39063,1.61133 a 0.50083743,0.50083743 0 0 0 0.002,0 c 0.82207,0.059 1.54778,-0.56858 1.60742,-1.39062 0.0609,-0.82315 -0.5674,-1.55169 -1.39062,-1.61133 a 0.50083743,0.50083743 0 0 0 -0.006,0 c -0.0336,-0.002 -0.0677,-0.002 -0.10156,-0.002 z m 4.24609,3.38868 c -0.8281,3.4e-4 -1.50947,0.68167 -1.50976,1.50976 2.3e-4,0.63031 0.44608,1.07399 1,1.29883 -1.5e-4,0.008 -0.004,0.016 -0.004,0.0273 3.1e-4,0.8281 0.68166,1.50943 1.50976,1.50977 0.82814,-3.4e-4 1.50947,-0.68167 1.50977,-1.50977 -2.3e-4,-0.63031 -0.44607,-1.07402 -1,-1.29882 1.5e-4,-0.008 0.004,-0.0159 0.004,-0.0234 a 0.50083743,0.50083743 0 0 0 0,-0.002 c -3.1e-4,-0.82808 -0.68163,-1.50946 -1.50977,-1.50976 z m -8.14844,0.32812 c -0.82809,3e-4 -1.50945,0.68167 -1.50976,1.50977 -10e-4,0.82919 0.68057,1.51141 1.50976,1.51172 0.82921,-3.1e-4 1.51106,-0.68253 1.50977,-1.51172 -3.2e-4,-0.8281 -0.68166,-1.50947 -1.50977,-1.50977 z m -9.74804,1.39649 c -0.82811,3.4e-4 -1.50946,0.68167 -1.50977,1.50976 -0.001,0.82923 0.68056,1.51142 1.50977,1.51172 0.82919,-3.4e-4 1.51104,-0.68253 1.50976,-1.51172 -3.1e-4,-0.82809 -0.68166,-1.50942 -1.50976,-1.50976 z m 5.69336,1.04882 c -0.8281,3.1e-4 -1.50945,0.68164 -1.50977,1.50977 3.1e-4,0.82809 0.68166,1.50942 1.50977,1.50977 0.8292,10e-4 1.5114,-0.68058 1.51171,-1.50977 -3.2e-4,-0.82919 -0.68252,-1.51105 -1.51171,-1.50977 z m -13.66016,0.3086 c -0.82811,3e-4 -1.50945,0.68163 -1.50977,1.50976 3.3e-4,0.8281 0.68167,1.50947 1.50977,1.50977 0.82809,-3e-4 1.50945,-0.68171 1.50976,-1.50977 -2.9e-4,-0.82813 -0.68166,-1.50946 -1.50976,-1.50976 z m -0.0488,4.16211 c -0.8281,3.4e-4 -1.50945,0.68167 -1.50976,1.50976 3.1e-4,0.8281 0.68167,1.50943 1.50976,1.50977 0.8281,-3e-4 1.50945,-0.68167 1.50977,-1.50977 -3.2e-4,-0.82809 -0.68166,-1.50946 -1.50977,-1.50976 z m -14.79297,3.13086 c -0.82921,-10e-4 -1.51139,0.68057 -1.51172,1.50976 3.3e-4,0.82923 0.68252,1.51105 1.51172,1.50977 0.8281,-3e-4 1.50945,-0.68164 1.50977,-1.50977 -3.2e-4,-0.82809 -0.68166,-1.50942 -1.50977,-1.50976 z M 379.27344,520.5 c -0.8281,3e-4 -1.50945,0.68167 -1.50977,1.50977 3.2e-4,0.82809 0.68167,1.50942 1.50977,1.50976 0.82809,-3.4e-4 1.50946,-0.68167 1.50976,-1.50976 -3e-4,-0.8281 -0.68167,-1.50943 -1.50976,-1.50977 z"
       transform="scale(0.26458333)"
       id="path14795"
       inkscape:connector-curvature="0" />
  </g>
</svg>
